<?xml version="1.0" encoding="utf-8" standalone="no"?>
<!DOCTYPE svg PUBLIC "-//W3C//DTD SVG 1.1//EN"
  "http://www.w3.org/Graphics/SVG/1.1/DTD/svg11.dtd">
<svg xmlns:xlink="http://www.w3.org/1999/xlink" width="460.8pt" height="345.6pt" viewBox="0 0 460.8 345.6" xmlns="http://www.w3.org/2000/svg" version="1.1">
 <metadata>
  <rdf:RDF xmlns:dc="http://purl.org/dc/elements/1.1/" xmlns:cc="http://creativecommons.org/ns#" xmlns:rdf="http://www.w3.org/1999/02/22-rdf-syntax-ns#">
   <cc:Work>
    <dc:type rdf:resource="http://purl.org/dc/dcmitype/StillImage"/>
    <dc:date>2025-10-27T23:52:18.890535</dc:date>
    <dc:format>image/svg+xml</dc:format>
    <dc:creator>
     <cc:Agent>
      <dc:title>Matplotlib v3.6.3, https://matplotlib.org/</dc:title>
     </cc:Agent>
    </dc:creator>
   </cc:Work>
  </rdf:RDF>
 </metadata>
 <defs>
  <style type="text/css">*{stroke-linejoin: round; stroke-linecap: butt}</style>
 </defs>
 <g id="figure_1">
  <g id="patch_1">
   <path d="M 0 345.6 
L 460.8 345.6 
L 460.8 0 
L 0 0 
z
" style="fill: #ffffff"/>
  </g>
  <g id="axes_1">
   <g id="patch_2">
    <path d="M 57.6 307.584 
L 414.72 307.584 
L 414.72 41.472 
L 57.6 41.472 
z
" style="fill: #ffffff"/>
   </g>
   <g id="PolyCollection_1">
    <defs>
     <path id="m8a814299e4" d="M 73.832727 -91.344227 
L 73.832727 -91.344226 
L 103.346777 -91.344226 
L 132.860826 -91.344226 
L 162.374876 -91.344226 
L 191.888926 -91.344226 
L 221.402975 -91.344226 
L 250.917025 -91.344226 
L 280.431074 -91.344226 
L 309.945124 -91.344226 
L 339.459174 -91.344226 
L 368.973223 -91.344226 
L 398.487273 -91.344226 
L 398.487273 -91.344227 
L 398.487273 -91.344227 
L 368.973223 -91.344227 
L 339.459174 -91.344227 
L 309.945124 -91.344227 
L 280.431074 -91.344227 
L 250.917025 -91.344227 
L 221.402975 -91.344227 
L 191.888926 -91.344227 
L 162.374876 -91.344227 
L 132.860826 -91.344227 
L 103.346777 -91.344227 
L 73.832727 -91.344227 
z
" style="stroke: #d3d3d3"/>
    </defs>
    <g clip-path="url(#p0eeca5640c)">
     <use xlink:href="#m8a814299e4" x="0" y="345.6" style="fill: #d3d3d3; stroke: #d3d3d3"/>
    </g>
   </g>
   <g id="PolyCollection_2">
    <defs>
     <path id="m41f24070eb" d="M 73.832727 -100.209666 
L 73.832727 -100.209665 
L 103.346777 -100.209665 
L 132.860826 -100.209665 
L 162.374876 -100.209665 
L 191.888926 -100.209665 
L 221.402975 -100.209665 
L 250.917025 -100.209665 
L 280.431074 -100.209665 
L 309.945124 -100.209665 
L 339.459174 -100.209665 
L 368.973223 -100.209665 
L 398.487273 -100.209665 
L 398.487273 -100.209666 
L 398.487273 -100.209666 
L 368.973223 -100.209666 
L 339.459174 -100.209666 
L 309.945124 -100.209666 
L 280.431074 -100.209666 
L 250.917025 -100.209666 
L 221.402975 -100.209666 
L 191.888926 -100.209666 
L 162.374876 -100.209666 
L 132.860826 -100.209666 
L 103.346777 -100.209666 
L 73.832727 -100.209666 
z
" style="stroke: #d3d3d3"/>
    </defs>
    <g clip-path="url(#p0eeca5640c)">
     <use xlink:href="#m41f24070eb" x="0" y="345.6" style="fill: #d3d3d3; stroke: #d3d3d3"/>
    </g>
   </g>
   <g id="matplotlib.axis_1">
    <g id="xtick_1">
     <g id="line2d_1">
      <path d="M 103.346777 307.584 
L 103.346777 41.472 
" clip-path="url(#p0eeca5640c)" style="fill: none; stroke: #b0b0b0; stroke-width: 0.8; stroke-linecap: square"/>
     </g>
     <g id="line2d_2">
      <defs>
       <path id="m3529b5087d" d="M 0 0 
L 0 3.5 
" style="stroke: #000000; stroke-width: 0.8"/>
      </defs>
      <g>
       <use xlink:href="#m3529b5087d" x="103.346777" y="307.584" style="stroke: #000000; stroke-width: 0.8"/>
      </g>
     </g>
     <g id="text_1">
      <!-- 0.2 -->
      <g transform="translate(95.395214 322.182437) scale(0.1 -0.1)">
       <defs>
        <path id="DejaVuSans-30" d="M 2034 4250 
Q 1547 4250 1301 3770 
Q 1056 3291 1056 2328 
Q 1056 1369 1301 889 
Q 1547 409 2034 409 
Q 2525 409 2770 889 
Q 3016 1369 3016 2328 
Q 3016 3291 2770 3770 
Q 2525 4250 2034 4250 
z
M 2034 4750 
Q 2819 4750 3233 4129 
Q 3647 3509 3647 2328 
Q 3647 1150 3233 529 
Q 2819 -91 2034 -91 
Q 1250 -91 836 529 
Q 422 1150 422 2328 
Q 422 3509 836 4129 
Q 1250 4750 2034 4750 
z
" transform="scale(0.015625)"/>
        <path id="DejaVuSans-2e" d="M 684 794 
L 1344 794 
L 1344 0 
L 684 0 
L 684 794 
z
" transform="scale(0.015625)"/>
        <path id="DejaVuSans-32" d="M 1228 531 
L 3431 531 
L 3431 0 
L 469 0 
L 469 531 
Q 828 903 1448 1529 
Q 2069 2156 2228 2338 
Q 2531 2678 2651 2914 
Q 2772 3150 2772 3378 
Q 2772 3750 2511 3984 
Q 2250 4219 1831 4219 
Q 1534 4219 1204 4116 
Q 875 4013 500 3803 
L 500 4441 
Q 881 4594 1212 4672 
Q 1544 4750 1819 4750 
Q 2544 4750 2975 4387 
Q 3406 4025 3406 3419 
Q 3406 3131 3298 2873 
Q 3191 2616 2906 2266 
Q 2828 2175 2409 1742 
Q 1991 1309 1228 531 
z
" transform="scale(0.015625)"/>
       </defs>
       <use xlink:href="#DejaVuSans-30"/>
       <use xlink:href="#DejaVuSans-2e" x="63.623047"/>
       <use xlink:href="#DejaVuSans-32" x="95.410156"/>
      </g>
     </g>
    </g>
    <g id="xtick_2">
     <g id="line2d_3">
      <path d="M 162.374876 307.584 
L 162.374876 41.472 
" clip-path="url(#p0eeca5640c)" style="fill: none; stroke: #b0b0b0; stroke-width: 0.8; stroke-linecap: square"/>
     </g>
     <g id="line2d_4">
      <g>
       <use xlink:href="#m3529b5087d" x="162.374876" y="307.584" style="stroke: #000000; stroke-width: 0.8"/>
      </g>
     </g>
     <g id="text_2">
      <!-- 0.4 -->
      <g transform="translate(154.423314 322.182437) scale(0.1 -0.1)">
       <defs>
        <path id="DejaVuSans-34" d="M 2419 4116 
L 825 1625 
L 2419 1625 
L 2419 4116 
z
M 2253 4666 
L 3047 4666 
L 3047 1625 
L 3713 1625 
L 3713 1100 
L 3047 1100 
L 3047 0 
L 2419 0 
L 2419 1100 
L 313 1100 
L 313 1709 
L 2253 4666 
z
" transform="scale(0.015625)"/>
       </defs>
       <use xlink:href="#DejaVuSans-30"/>
       <use xlink:href="#DejaVuSans-2e" x="63.623047"/>
       <use xlink:href="#DejaVuSans-34" x="95.410156"/>
      </g>
     </g>
    </g>
    <g id="xtick_3">
     <g id="line2d_5">
      <path d="M 221.402975 307.584 
L 221.402975 41.472 
" clip-path="url(#p0eeca5640c)" style="fill: none; stroke: #b0b0b0; stroke-width: 0.8; stroke-linecap: square"/>
     </g>
     <g id="line2d_6">
      <g>
       <use xlink:href="#m3529b5087d" x="221.402975" y="307.584" style="stroke: #000000; stroke-width: 0.8"/>
      </g>
     </g>
     <g id="text_3">
      <!-- 0.6 -->
      <g transform="translate(213.451413 322.182437) scale(0.1 -0.1)">
       <defs>
        <path id="DejaVuSans-36" d="M 2113 2584 
Q 1688 2584 1439 2293 
Q 1191 2003 1191 1497 
Q 1191 994 1439 701 
Q 1688 409 2113 409 
Q 2538 409 2786 701 
Q 3034 994 3034 1497 
Q 3034 2003 2786 2293 
Q 2538 2584 2113 2584 
z
M 3366 4563 
L 3366 3988 
Q 3128 4100 2886 4159 
Q 2644 4219 2406 4219 
Q 1781 4219 1451 3797 
Q 1122 3375 1075 2522 
Q 1259 2794 1537 2939 
Q 1816 3084 2150 3084 
Q 2853 3084 3261 2657 
Q 3669 2231 3669 1497 
Q 3669 778 3244 343 
Q 2819 -91 2113 -91 
Q 1303 -91 875 529 
Q 447 1150 447 2328 
Q 447 3434 972 4092 
Q 1497 4750 2381 4750 
Q 2619 4750 2861 4703 
Q 3103 4656 3366 4563 
z
" transform="scale(0.015625)"/>
       </defs>
       <use xlink:href="#DejaVuSans-30"/>
       <use xlink:href="#DejaVuSans-2e" x="63.623047"/>
       <use xlink:href="#DejaVuSans-36" x="95.410156"/>
      </g>
     </g>
    </g>
    <g id="xtick_4">
     <g id="line2d_7">
      <path d="M 280.431074 307.584 
L 280.431074 41.472 
" clip-path="url(#p0eeca5640c)" style="fill: none; stroke: #b0b0b0; stroke-width: 0.8; stroke-linecap: square"/>
     </g>
     <g id="line2d_8">
      <g>
       <use xlink:href="#m3529b5087d" x="280.431074" y="307.584" style="stroke: #000000; stroke-width: 0.8"/>
      </g>
     </g>
     <g id="text_4">
      <!-- 0.8 -->
      <g transform="translate(272.479512 322.182437) scale(0.1 -0.1)">
       <defs>
        <path id="DejaVuSans-38" d="M 2034 2216 
Q 1584 2216 1326 1975 
Q 1069 1734 1069 1313 
Q 1069 891 1326 650 
Q 1584 409 2034 409 
Q 2484 409 2743 651 
Q 3003 894 3003 1313 
Q 3003 1734 2745 1975 
Q 2488 2216 2034 2216 
z
M 1403 2484 
Q 997 2584 770 2862 
Q 544 3141 544 3541 
Q 544 4100 942 4425 
Q 1341 4750 2034 4750 
Q 2731 4750 3128 4425 
Q 3525 4100 3525 3541 
Q 3525 3141 3298 2862 
Q 3072 2584 2669 2484 
Q 3125 2378 3379 2068 
Q 3634 1759 3634 1313 
Q 3634 634 3220 271 
Q 2806 -91 2034 -91 
Q 1263 -91 848 271 
Q 434 634 434 1313 
Q 434 1759 690 2068 
Q 947 2378 1403 2484 
z
M 1172 3481 
Q 1172 3119 1398 2916 
Q 1625 2713 2034 2713 
Q 2441 2713 2670 2916 
Q 2900 3119 2900 3481 
Q 2900 3844 2670 4047 
Q 2441 4250 2034 4250 
Q 1625 4250 1398 4047 
Q 1172 3844 1172 3481 
z
" transform="scale(0.015625)"/>
       </defs>
       <use xlink:href="#DejaVuSans-30"/>
       <use xlink:href="#DejaVuSans-2e" x="63.623047"/>
       <use xlink:href="#DejaVuSans-38" x="95.410156"/>
      </g>
     </g>
    </g>
    <g id="xtick_5">
     <g id="line2d_9">
      <path d="M 339.459174 307.584 
L 339.459174 41.472 
" clip-path="url(#p0eeca5640c)" style="fill: none; stroke: #b0b0b0; stroke-width: 0.8; stroke-linecap: square"/>
     </g>
     <g id="line2d_10">
      <g>
       <use xlink:href="#m3529b5087d" x="339.459174" y="307.584" style="stroke: #000000; stroke-width: 0.8"/>
      </g>
     </g>
     <g id="text_5">
      <!-- 1.0 -->
      <g transform="translate(331.507611 322.182437) scale(0.1 -0.1)">
       <defs>
        <path id="DejaVuSans-31" d="M 794 531 
L 1825 531 
L 1825 4091 
L 703 3866 
L 703 4441 
L 1819 4666 
L 2450 4666 
L 2450 531 
L 3481 531 
L 3481 0 
L 794 0 
L 794 531 
z
" transform="scale(0.015625)"/>
       </defs>
       <use xlink:href="#DejaVuSans-31"/>
       <use xlink:href="#DejaVuSans-2e" x="63.623047"/>
       <use xlink:href="#DejaVuSans-30" x="95.410156"/>
      </g>
     </g>
    </g>
    <g id="xtick_6">
     <g id="line2d_11">
      <path d="M 398.487273 307.584 
L 398.487273 41.472 
" clip-path="url(#p0eeca5640c)" style="fill: none; stroke: #b0b0b0; stroke-width: 0.8; stroke-linecap: square"/>
     </g>
     <g id="line2d_12">
      <g>
       <use xlink:href="#m3529b5087d" x="398.487273" y="307.584" style="stroke: #000000; stroke-width: 0.8"/>
      </g>
     </g>
     <g id="text_6">
      <!-- 1.2 -->
      <g transform="translate(390.53571 322.182437) scale(0.1 -0.1)">
       <use xlink:href="#DejaVuSans-31"/>
       <use xlink:href="#DejaVuSans-2e" x="63.623047"/>
       <use xlink:href="#DejaVuSans-32" x="95.410156"/>
      </g>
     </g>
    </g>
    <g id="text_7">
     <!-- stopMass [GeV] -->
     <g transform="translate(196.912344 335.860562) scale(0.1 -0.1)">
      <defs>
       <path id="DejaVuSans-73" d="M 2834 3397 
L 2834 2853 
Q 2591 2978 2328 3040 
Q 2066 3103 1784 3103 
Q 1356 3103 1142 2972 
Q 928 2841 928 2578 
Q 928 2378 1081 2264 
Q 1234 2150 1697 2047 
L 1894 2003 
Q 2506 1872 2764 1633 
Q 3022 1394 3022 966 
Q 3022 478 2636 193 
Q 2250 -91 1575 -91 
Q 1294 -91 989 -36 
Q 684 19 347 128 
L 347 722 
Q 666 556 975 473 
Q 1284 391 1588 391 
Q 1994 391 2212 530 
Q 2431 669 2431 922 
Q 2431 1156 2273 1281 
Q 2116 1406 1581 1522 
L 1381 1569 
Q 847 1681 609 1914 
Q 372 2147 372 2553 
Q 372 3047 722 3315 
Q 1072 3584 1716 3584 
Q 2034 3584 2315 3537 
Q 2597 3491 2834 3397 
z
" transform="scale(0.015625)"/>
       <path id="DejaVuSans-74" d="M 1172 4494 
L 1172 3500 
L 2356 3500 
L 2356 3053 
L 1172 3053 
L 1172 1153 
Q 1172 725 1289 603 
Q 1406 481 1766 481 
L 2356 481 
L 2356 0 
L 1766 0 
Q 1100 0 847 248 
Q 594 497 594 1153 
L 594 3053 
L 172 3053 
L 172 3500 
L 594 3500 
L 594 4494 
L 1172 4494 
z
" transform="scale(0.015625)"/>
       <path id="DejaVuSans-6f" d="M 1959 3097 
Q 1497 3097 1228 2736 
Q 959 2375 959 1747 
Q 959 1119 1226 758 
Q 1494 397 1959 397 
Q 2419 397 2687 759 
Q 2956 1122 2956 1747 
Q 2956 2369 2687 2733 
Q 2419 3097 1959 3097 
z
M 1959 3584 
Q 2709 3584 3137 3096 
Q 3566 2609 3566 1747 
Q 3566 888 3137 398 
Q 2709 -91 1959 -91 
Q 1206 -91 779 398 
Q 353 888 353 1747 
Q 353 2609 779 3096 
Q 1206 3584 1959 3584 
z
" transform="scale(0.015625)"/>
       <path id="DejaVuSans-70" d="M 1159 525 
L 1159 -1331 
L 581 -1331 
L 581 3500 
L 1159 3500 
L 1159 2969 
Q 1341 3281 1617 3432 
Q 1894 3584 2278 3584 
Q 2916 3584 3314 3078 
Q 3713 2572 3713 1747 
Q 3713 922 3314 415 
Q 2916 -91 2278 -91 
Q 1894 -91 1617 61 
Q 1341 213 1159 525 
z
M 3116 1747 
Q 3116 2381 2855 2742 
Q 2594 3103 2138 3103 
Q 1681 3103 1420 2742 
Q 1159 2381 1159 1747 
Q 1159 1113 1420 752 
Q 1681 391 2138 391 
Q 2594 391 2855 752 
Q 3116 1113 3116 1747 
z
" transform="scale(0.015625)"/>
       <path id="DejaVuSans-4d" d="M 628 4666 
L 1569 4666 
L 2759 1491 
L 3956 4666 
L 4897 4666 
L 4897 0 
L 4281 0 
L 4281 4097 
L 3078 897 
L 2444 897 
L 1241 4097 
L 1241 0 
L 628 0 
L 628 4666 
z
" transform="scale(0.015625)"/>
       <path id="DejaVuSans-61" d="M 2194 1759 
Q 1497 1759 1228 1600 
Q 959 1441 959 1056 
Q 959 750 1161 570 
Q 1363 391 1709 391 
Q 2188 391 2477 730 
Q 2766 1069 2766 1631 
L 2766 1759 
L 2194 1759 
z
M 3341 1997 
L 3341 0 
L 2766 0 
L 2766 531 
Q 2569 213 2275 61 
Q 1981 -91 1556 -91 
Q 1019 -91 701 211 
Q 384 513 384 1019 
Q 384 1609 779 1909 
Q 1175 2209 1959 2209 
L 2766 2209 
L 2766 2266 
Q 2766 2663 2505 2880 
Q 2244 3097 1772 3097 
Q 1472 3097 1187 3025 
Q 903 2953 641 2809 
L 641 3341 
Q 956 3463 1253 3523 
Q 1550 3584 1831 3584 
Q 2591 3584 2966 3190 
Q 3341 2797 3341 1997 
z
" transform="scale(0.015625)"/>
       <path id="DejaVuSans-20" transform="scale(0.015625)"/>
       <path id="DejaVuSans-5b" d="M 550 4863 
L 1875 4863 
L 1875 4416 
L 1125 4416 
L 1125 -397 
L 1875 -397 
L 1875 -844 
L 550 -844 
L 550 4863 
z
" transform="scale(0.015625)"/>
       <path id="DejaVuSans-47" d="M 3809 666 
L 3809 1919 
L 2778 1919 
L 2778 2438 
L 4434 2438 
L 4434 434 
Q 4069 175 3628 42 
Q 3188 -91 2688 -91 
Q 1594 -91 976 548 
Q 359 1188 359 2328 
Q 359 3472 976 4111 
Q 1594 4750 2688 4750 
Q 3144 4750 3555 4637 
Q 3966 4525 4313 4306 
L 4313 3634 
Q 3963 3931 3569 4081 
Q 3175 4231 2741 4231 
Q 1884 4231 1454 3753 
Q 1025 3275 1025 2328 
Q 1025 1384 1454 906 
Q 1884 428 2741 428 
Q 3075 428 3337 486 
Q 3600 544 3809 666 
z
" transform="scale(0.015625)"/>
       <path id="DejaVuSans-65" d="M 3597 1894 
L 3597 1613 
L 953 1613 
Q 991 1019 1311 708 
Q 1631 397 2203 397 
Q 2534 397 2845 478 
Q 3156 559 3463 722 
L 3463 178 
Q 3153 47 2828 -22 
Q 2503 -91 2169 -91 
Q 1331 -91 842 396 
Q 353 884 353 1716 
Q 353 2575 817 3079 
Q 1281 3584 2069 3584 
Q 2775 3584 3186 3129 
Q 3597 2675 3597 1894 
z
M 3022 2063 
Q 3016 2534 2758 2815 
Q 2500 3097 2075 3097 
Q 1594 3097 1305 2825 
Q 1016 2553 972 2059 
L 3022 2063 
z
" transform="scale(0.015625)"/>
       <path id="DejaVuSans-56" d="M 1831 0 
L 50 4666 
L 709 4666 
L 2188 738 
L 3669 4666 
L 4325 4666 
L 2547 0 
L 1831 0 
z
" transform="scale(0.015625)"/>
       <path id="DejaVuSans-5d" d="M 1947 4863 
L 1947 -844 
L 622 -844 
L 622 -397 
L 1369 -397 
L 1369 4416 
L 622 4416 
L 622 4863 
L 1947 4863 
z
" transform="scale(0.015625)"/>
      </defs>
      <use xlink:href="#DejaVuSans-73"/>
      <use xlink:href="#DejaVuSans-74" x="52.099609"/>
      <use xlink:href="#DejaVuSans-6f" x="91.308594"/>
      <use xlink:href="#DejaVuSans-70" x="152.490234"/>
      <use xlink:href="#DejaVuSans-4d" x="215.966797"/>
      <use xlink:href="#DejaVuSans-61" x="302.246094"/>
      <use xlink:href="#DejaVuSans-73" x="363.525391"/>
      <use xlink:href="#DejaVuSans-73" x="415.625"/>
      <use xlink:href="#DejaVuSans-20" x="467.724609"/>
      <use xlink:href="#DejaVuSans-5b" x="499.511719"/>
      <use xlink:href="#DejaVuSans-47" x="538.525391"/>
      <use xlink:href="#DejaVuSans-65" x="616.015625"/>
      <use xlink:href="#DejaVuSans-56" x="677.539062"/>
      <use xlink:href="#DejaVuSans-5d" x="745.947266"/>
     </g>
    </g>
   </g>
   <g id="matplotlib.axis_2">
    <g id="ytick_1">
     <g id="line2d_13">
      <path d="M 57.6 272.611701 
L 414.72 272.611701 
" clip-path="url(#p0eeca5640c)" style="fill: none; stroke: #b0b0b0; stroke-width: 0.8; stroke-linecap: square"/>
     </g>
     <g id="line2d_14">
      <defs>
       <path id="mc3e825ab4c" d="M 0 0 
L -3.5 0 
" style="stroke: #000000; stroke-width: 0.8"/>
      </defs>
      <g>
       <use xlink:href="#mc3e825ab4c" x="57.6" y="272.611701" style="stroke: #000000; stroke-width: 0.8"/>
      </g>
     </g>
     <g id="text_8">
      <!-- 0.6 -->
      <g transform="translate(34.696875 276.41092) scale(0.1 -0.1)">
       <use xlink:href="#DejaVuSans-30"/>
       <use xlink:href="#DejaVuSans-2e" x="63.623047"/>
       <use xlink:href="#DejaVuSans-36" x="95.410156"/>
      </g>
     </g>
    </g>
    <g id="ytick_2">
     <g id="line2d_15">
      <path d="M 57.6 237.198108 
L 414.72 237.198108 
" clip-path="url(#p0eeca5640c)" style="fill: none; stroke: #b0b0b0; stroke-width: 0.8; stroke-linecap: square"/>
     </g>
     <g id="line2d_16">
      <g>
       <use xlink:href="#mc3e825ab4c" x="57.6" y="237.198108" style="stroke: #000000; stroke-width: 0.8"/>
      </g>
     </g>
     <g id="text_9">
      <!-- 0.8 -->
      <g transform="translate(34.696875 240.997327) scale(0.1 -0.1)">
       <use xlink:href="#DejaVuSans-30"/>
       <use xlink:href="#DejaVuSans-2e" x="63.623047"/>
       <use xlink:href="#DejaVuSans-38" x="95.410156"/>
      </g>
     </g>
    </g>
    <g id="ytick_3">
     <g id="line2d_17">
      <path d="M 57.6 201.784515 
L 414.72 201.784515 
" clip-path="url(#p0eeca5640c)" style="fill: none; stroke: #b0b0b0; stroke-width: 0.8; stroke-linecap: square"/>
     </g>
     <g id="line2d_18">
      <g>
       <use xlink:href="#mc3e825ab4c" x="57.6" y="201.784515" style="stroke: #000000; stroke-width: 0.8"/>
      </g>
     </g>
     <g id="text_10">
      <!-- 1.0 -->
      <g transform="translate(34.696875 205.583733) scale(0.1 -0.1)">
       <use xlink:href="#DejaVuSans-31"/>
       <use xlink:href="#DejaVuSans-2e" x="63.623047"/>
       <use xlink:href="#DejaVuSans-30" x="95.410156"/>
      </g>
     </g>
    </g>
    <g id="ytick_4">
     <g id="line2d_19">
      <path d="M 57.6 166.370921 
L 414.72 166.370921 
" clip-path="url(#p0eeca5640c)" style="fill: none; stroke: #b0b0b0; stroke-width: 0.8; stroke-linecap: square"/>
     </g>
     <g id="line2d_20">
      <g>
       <use xlink:href="#mc3e825ab4c" x="57.6" y="166.370921" style="stroke: #000000; stroke-width: 0.8"/>
      </g>
     </g>
     <g id="text_11">
      <!-- 1.2 -->
      <g transform="translate(34.696875 170.17014) scale(0.1 -0.1)">
       <use xlink:href="#DejaVuSans-31"/>
       <use xlink:href="#DejaVuSans-2e" x="63.623047"/>
       <use xlink:href="#DejaVuSans-32" x="95.410156"/>
      </g>
     </g>
    </g>
    <g id="ytick_5">
     <g id="line2d_21">
      <path d="M 57.6 130.957328 
L 414.72 130.957328 
" clip-path="url(#p0eeca5640c)" style="fill: none; stroke: #b0b0b0; stroke-width: 0.8; stroke-linecap: square"/>
     </g>
     <g id="line2d_22">
      <g>
       <use xlink:href="#mc3e825ab4c" x="57.6" y="130.957328" style="stroke: #000000; stroke-width: 0.8"/>
      </g>
     </g>
     <g id="text_12">
      <!-- 1.4 -->
      <g transform="translate(34.696875 134.756547) scale(0.1 -0.1)">
       <use xlink:href="#DejaVuSans-31"/>
       <use xlink:href="#DejaVuSans-2e" x="63.623047"/>
       <use xlink:href="#DejaVuSans-34" x="95.410156"/>
      </g>
     </g>
    </g>
    <g id="ytick_6">
     <g id="line2d_23">
      <path d="M 57.6 95.543735 
L 414.72 95.543735 
" clip-path="url(#p0eeca5640c)" style="fill: none; stroke: #b0b0b0; stroke-width: 0.8; stroke-linecap: square"/>
     </g>
     <g id="line2d_24">
      <g>
       <use xlink:href="#mc3e825ab4c" x="57.6" y="95.543735" style="stroke: #000000; stroke-width: 0.8"/>
      </g>
     </g>
     <g id="text_13">
      <!-- 1.6 -->
      <g transform="translate(34.696875 99.342953) scale(0.1 -0.1)">
       <use xlink:href="#DejaVuSans-31"/>
       <use xlink:href="#DejaVuSans-2e" x="63.623047"/>
       <use xlink:href="#DejaVuSans-36" x="95.410156"/>
      </g>
     </g>
    </g>
    <g id="ytick_7">
     <g id="line2d_25">
      <path d="M 57.6 60.130141 
L 414.72 60.130141 
" clip-path="url(#p0eeca5640c)" style="fill: none; stroke: #b0b0b0; stroke-width: 0.8; stroke-linecap: square"/>
     </g>
     <g id="line2d_26">
      <g>
       <use xlink:href="#mc3e825ab4c" x="57.6" y="60.130141" style="stroke: #000000; stroke-width: 0.8"/>
      </g>
     </g>
     <g id="text_14">
      <!-- 1.8 -->
      <g transform="translate(34.696875 63.92936) scale(0.1 -0.1)">
       <use xlink:href="#DejaVuSans-31"/>
       <use xlink:href="#DejaVuSans-2e" x="63.623047"/>
       <use xlink:href="#DejaVuSans-38" x="95.410156"/>
      </g>
     </g>
    </g>
    <g id="text_15">
     <!-- $\overline{\Delta y}$ -->
     <g transform="translate(28.596875 180.928) rotate(-90) scale(0.1 -0.1)">
      <defs>
       <path id="DejaVuSans-394" d="M 2188 4044 
L 906 525 
L 3472 525 
L 2188 4044 
z
M 50 0 
L 1831 4666 
L 2547 4666 
L 4325 0 
L 50 0 
z
" transform="scale(0.015625)"/>
       <path id="DejaVuSans-Oblique-79" d="M 1588 -325 
Q 1188 -997 936 -1164 
Q 684 -1331 294 -1331 
L -159 -1331 
L -63 -850 
L 269 -850 
Q 509 -850 678 -719 
Q 847 -588 1056 -206 
L 1234 128 
L 459 3500 
L 1069 3500 
L 1650 819 
L 3256 3500 
L 3859 3500 
L 1588 -325 
z
" transform="scale(0.015625)"/>
      </defs>
      <use xlink:href="#DejaVuSans-394" transform="translate(0 0.84375)"/>
      <use xlink:href="#DejaVuSans-Oblique-79" transform="translate(68.408203 0.84375)"/>
      <path d="M 0 85.5 
L 0 91.75 
L 127.587891 91.75 
L 127.587891 85.5 
L 0 85.5 
z
"/>
     </g>
    </g>
   </g>
   <g id="LineCollection_1">
    <path d="M 73.832727 237.461765 
L 73.832727 237.46176 
" clip-path="url(#p0eeca5640c)" style="fill: none; stroke: #a0522d; stroke-width: 1.5"/>
   </g>
   <g id="LineCollection_2">
    <path d="M 73.832727 295.488 
L 73.832727 295.487995 
" clip-path="url(#p0eeca5640c)" style="fill: none; stroke: #40e0d0; stroke-width: 1.5"/>
   </g>
   <g id="LineCollection_3">
    <path d="M 103.346777 219.469535 
L 103.346777 219.469529 
" clip-path="url(#p0eeca5640c)" style="fill: none; stroke: #a0522d; stroke-width: 1.5"/>
   </g>
   <g id="LineCollection_4">
    <path d="M 103.346777 283.594522 
L 103.346777 283.594517 
" clip-path="url(#p0eeca5640c)" style="fill: none; stroke: #40e0d0; stroke-width: 1.5"/>
   </g>
   <g id="LineCollection_5">
    <path d="M 132.860826 202.349364 
L 132.860826 202.349359 
" clip-path="url(#p0eeca5640c)" style="fill: none; stroke: #a0522d; stroke-width: 1.5"/>
   </g>
   <g id="LineCollection_6">
    <path d="M 132.860826 271.349032 
L 132.860826 271.349027 
" clip-path="url(#p0eeca5640c)" style="fill: none; stroke: #40e0d0; stroke-width: 1.5"/>
   </g>
   <g id="LineCollection_7">
    <path d="M 162.374876 184.426545 
L 162.374876 184.426539 
" clip-path="url(#p0eeca5640c)" style="fill: none; stroke: #a0522d; stroke-width: 1.5"/>
   </g>
   <g id="LineCollection_8">
    <path d="M 162.374876 258.5904 
L 162.374876 258.590395 
" clip-path="url(#p0eeca5640c)" style="fill: none; stroke: #40e0d0; stroke-width: 1.5"/>
   </g>
   <g id="LineCollection_9">
    <path d="M 191.888926 167.1695 
L 191.888926 167.169495 
" clip-path="url(#p0eeca5640c)" style="fill: none; stroke: #a0522d; stroke-width: 1.5"/>
   </g>
   <g id="LineCollection_10">
    <path d="M 191.888926 244.825845 
L 191.888926 244.825839 
" clip-path="url(#p0eeca5640c)" style="fill: none; stroke: #40e0d0; stroke-width: 1.5"/>
   </g>
   <g id="LineCollection_11">
    <path d="M 221.402975 149.388335 
L 221.402975 149.38833 
" clip-path="url(#p0eeca5640c)" style="fill: none; stroke: #a0522d; stroke-width: 1.5"/>
   </g>
   <g id="LineCollection_12">
    <path d="M 221.402975 231.285811 
L 221.402975 231.285806 
" clip-path="url(#p0eeca5640c)" style="fill: none; stroke: #40e0d0; stroke-width: 1.5"/>
   </g>
   <g id="LineCollection_13">
    <path d="M 250.917025 132.324295 
L 250.917025 132.32429 
" clip-path="url(#p0eeca5640c)" style="fill: none; stroke: #a0522d; stroke-width: 1.5"/>
   </g>
   <g id="LineCollection_14">
    <path d="M 250.917025 216.632906 
L 250.917025 216.632901 
" clip-path="url(#p0eeca5640c)" style="fill: none; stroke: #40e0d0; stroke-width: 1.5"/>
   </g>
   <g id="LineCollection_15">
    <path d="M 280.431074 115.293898 
L 280.431074 115.293893 
" clip-path="url(#p0eeca5640c)" style="fill: none; stroke: #a0522d; stroke-width: 1.5"/>
   </g>
   <g id="LineCollection_16">
    <path d="M 280.431074 202.179379 
L 280.431074 202.179374 
" clip-path="url(#p0eeca5640c)" style="fill: none; stroke: #40e0d0; stroke-width: 1.5"/>
   </g>
   <g id="LineCollection_17">
    <path d="M 309.945124 99.545473 
L 309.945124 99.545468 
" clip-path="url(#p0eeca5640c)" style="fill: none; stroke: #a0522d; stroke-width: 1.5"/>
   </g>
   <g id="LineCollection_18">
    <path d="M 309.945124 187.004654 
L 309.945124 187.004649 
" clip-path="url(#p0eeca5640c)" style="fill: none; stroke: #40e0d0; stroke-width: 1.5"/>
   </g>
   <g id="LineCollection_19">
    <path d="M 339.459174 83.419893 
L 339.459174 83.419888 
" clip-path="url(#p0eeca5640c)" style="fill: none; stroke: #a0522d; stroke-width: 1.5"/>
   </g>
   <g id="LineCollection_20">
    <path d="M 339.459174 172.146881 
L 339.459174 172.146876 
" clip-path="url(#p0eeca5640c)" style="fill: none; stroke: #40e0d0; stroke-width: 1.5"/>
   </g>
   <g id="LineCollection_21">
    <path d="M 368.973223 67.914051 
L 368.973223 67.914047 
" clip-path="url(#p0eeca5640c)" style="fill: none; stroke: #a0522d; stroke-width: 1.5"/>
   </g>
   <g id="LineCollection_22">
    <path d="M 368.973223 156.568441 
L 368.973223 156.568436 
" clip-path="url(#p0eeca5640c)" style="fill: none; stroke: #40e0d0; stroke-width: 1.5"/>
   </g>
   <g id="LineCollection_23">
    <path d="M 398.487273 53.568005 
L 398.487273 53.568 
" clip-path="url(#p0eeca5640c)" style="fill: none; stroke: #a0522d; stroke-width: 1.5"/>
   </g>
   <g id="LineCollection_24">
    <path d="M 398.487273 141.517664 
L 398.487273 141.517659 
" clip-path="url(#p0eeca5640c)" style="fill: none; stroke: #40e0d0; stroke-width: 1.5"/>
   </g>
   <g id="line2d_27">
    <path d="M 73.832727 254.255774 
L 103.346777 254.255774 
L 132.860826 254.255774 
L 162.374876 254.255774 
L 191.888926 254.255774 
L 221.402975 254.255774 
L 250.917025 254.255774 
L 280.431074 254.255774 
L 309.945124 254.255774 
L 339.459174 254.255774 
L 368.973223 254.255774 
L 398.487273 254.255774 
" clip-path="url(#p0eeca5640c)" style="fill: none; stroke-dasharray: 5.55,2.4; stroke-dashoffset: 0; stroke: #a0522d; stroke-width: 1.5"/>
   </g>
   <g id="line2d_28">
    <path d="M 73.832727 245.390335 
L 103.346777 245.390335 
L 132.860826 245.390335 
L 162.374876 245.390335 
L 191.888926 245.390335 
L 221.402975 245.390335 
L 250.917025 245.390335 
L 280.431074 245.390335 
L 309.945124 245.390335 
L 339.459174 245.390335 
L 368.973223 245.390335 
L 398.487273 245.390335 
" clip-path="url(#p0eeca5640c)" style="fill: none; stroke-dasharray: 5.55,2.4; stroke-dashoffset: 0; stroke: #40e0d0; stroke-width: 1.5"/>
   </g>
   <g id="line2d_29">
    <path d="M 73.832727 237.461762 
" clip-path="url(#p0eeca5640c)" style="fill: none; stroke: #a0522d; stroke-width: 1.5; stroke-linecap: square"/>
    <defs>
     <path id="mc534c5a209" d="M 0 3 
C 0.795609 3 1.55874 2.683901 2.12132 2.12132 
C 2.683901 1.55874 3 0.795609 3 0 
C 3 -0.795609 2.683901 -1.55874 2.12132 -2.12132 
C 1.55874 -2.683901 0.795609 -3 0 -3 
C -0.795609 -3 -1.55874 -2.683901 -2.12132 -2.12132 
C -2.683901 -1.55874 -3 -0.795609 -3 0 
C -3 0.795609 -2.683901 1.55874 -2.12132 2.12132 
C -1.55874 2.683901 -0.795609 3 0 3 
z
" style="stroke: #a0522d"/>
    </defs>
    <g clip-path="url(#p0eeca5640c)">
     <use xlink:href="#mc534c5a209" x="73.832727" y="237.461762" style="fill: #a0522d; stroke: #a0522d"/>
    </g>
   </g>
   <g id="line2d_30">
    <path d="M 73.832727 295.487997 
" clip-path="url(#p0eeca5640c)" style="fill: none; stroke: #40e0d0; stroke-width: 1.5; stroke-linecap: square"/>
    <defs>
     <path id="mcd2bb848ca" d="M 0 3 
C 0.795609 3 1.55874 2.683901 2.12132 2.12132 
C 2.683901 1.55874 3 0.795609 3 0 
C 3 -0.795609 2.683901 -1.55874 2.12132 -2.12132 
C 1.55874 -2.683901 0.795609 -3 0 -3 
C -0.795609 -3 -1.55874 -2.683901 -2.12132 -2.12132 
C -2.683901 -1.55874 -3 -0.795609 -3 0 
C -3 0.795609 -2.683901 1.55874 -2.12132 2.12132 
C -1.55874 2.683901 -0.795609 3 0 3 
z
" style="stroke: #40e0d0"/>
    </defs>
    <g clip-path="url(#p0eeca5640c)">
     <use xlink:href="#mcd2bb848ca" x="73.832727" y="295.487997" style="fill: #40e0d0; stroke: #40e0d0"/>
    </g>
   </g>
   <g id="line2d_31">
    <path d="M 103.346777 219.469532 
" clip-path="url(#p0eeca5640c)" style="fill: none; stroke: #a0522d; stroke-width: 1.5; stroke-linecap: square"/>
    <g clip-path="url(#p0eeca5640c)">
     <use xlink:href="#mc534c5a209" x="103.346777" y="219.469532" style="fill: #a0522d; stroke: #a0522d"/>
    </g>
   </g>
   <g id="line2d_32">
    <path d="M 103.346777 283.594519 
" clip-path="url(#p0eeca5640c)" style="fill: none; stroke: #40e0d0; stroke-width: 1.5; stroke-linecap: square"/>
    <g clip-path="url(#p0eeca5640c)">
     <use xlink:href="#mcd2bb848ca" x="103.346777" y="283.594519" style="fill: #40e0d0; stroke: #40e0d0"/>
    </g>
   </g>
   <g id="line2d_33">
    <path d="M 132.860826 202.349361 
" clip-path="url(#p0eeca5640c)" style="fill: none; stroke: #a0522d; stroke-width: 1.5; stroke-linecap: square"/>
    <g clip-path="url(#p0eeca5640c)">
     <use xlink:href="#mc534c5a209" x="132.860826" y="202.349361" style="fill: #a0522d; stroke: #a0522d"/>
    </g>
   </g>
   <g id="line2d_34">
    <path d="M 132.860826 271.34903 
" clip-path="url(#p0eeca5640c)" style="fill: none; stroke: #40e0d0; stroke-width: 1.5; stroke-linecap: square"/>
    <g clip-path="url(#p0eeca5640c)">
     <use xlink:href="#mcd2bb848ca" x="132.860826" y="271.34903" style="fill: #40e0d0; stroke: #40e0d0"/>
    </g>
   </g>
   <g id="line2d_35">
    <path d="M 162.374876 184.426542 
" clip-path="url(#p0eeca5640c)" style="fill: none; stroke: #a0522d; stroke-width: 1.5; stroke-linecap: square"/>
    <g clip-path="url(#p0eeca5640c)">
     <use xlink:href="#mc534c5a209" x="162.374876" y="184.426542" style="fill: #a0522d; stroke: #a0522d"/>
    </g>
   </g>
   <g id="line2d_36">
    <path d="M 162.374876 258.590397 
" clip-path="url(#p0eeca5640c)" style="fill: none; stroke: #40e0d0; stroke-width: 1.5; stroke-linecap: square"/>
    <g clip-path="url(#p0eeca5640c)">
     <use xlink:href="#mcd2bb848ca" x="162.374876" y="258.590397" style="fill: #40e0d0; stroke: #40e0d0"/>
    </g>
   </g>
   <g id="line2d_37">
    <path d="M 191.888926 167.169498 
" clip-path="url(#p0eeca5640c)" style="fill: none; stroke: #a0522d; stroke-width: 1.5; stroke-linecap: square"/>
    <g clip-path="url(#p0eeca5640c)">
     <use xlink:href="#mc534c5a209" x="191.888926" y="167.169498" style="fill: #a0522d; stroke: #a0522d"/>
    </g>
   </g>
   <g id="line2d_38">
    <path d="M 191.888926 244.825842 
" clip-path="url(#p0eeca5640c)" style="fill: none; stroke: #40e0d0; stroke-width: 1.5; stroke-linecap: square"/>
    <g clip-path="url(#p0eeca5640c)">
     <use xlink:href="#mcd2bb848ca" x="191.888926" y="244.825842" style="fill: #40e0d0; stroke: #40e0d0"/>
    </g>
   </g>
   <g id="line2d_39">
    <path d="M 221.402975 149.388333 
" clip-path="url(#p0eeca5640c)" style="fill: none; stroke: #a0522d; stroke-width: 1.5; stroke-linecap: square"/>
    <g clip-path="url(#p0eeca5640c)">
     <use xlink:href="#mc534c5a209" x="221.402975" y="149.388333" style="fill: #a0522d; stroke: #a0522d"/>
    </g>
   </g>
   <g id="line2d_40">
    <path d="M 221.402975 231.285809 
" clip-path="url(#p0eeca5640c)" style="fill: none; stroke: #40e0d0; stroke-width: 1.5; stroke-linecap: square"/>
    <g clip-path="url(#p0eeca5640c)">
     <use xlink:href="#mcd2bb848ca" x="221.402975" y="231.285809" style="fill: #40e0d0; stroke: #40e0d0"/>
    </g>
   </g>
   <g id="line2d_41">
    <path d="M 250.917025 132.324293 
" clip-path="url(#p0eeca5640c)" style="fill: none; stroke: #a0522d; stroke-width: 1.5; stroke-linecap: square"/>
    <g clip-path="url(#p0eeca5640c)">
     <use xlink:href="#mc534c5a209" x="250.917025" y="132.324293" style="fill: #a0522d; stroke: #a0522d"/>
    </g>
   </g>
   <g id="line2d_42">
    <path d="M 250.917025 216.632903 
" clip-path="url(#p0eeca5640c)" style="fill: none; stroke: #40e0d0; stroke-width: 1.5; stroke-linecap: square"/>
    <g clip-path="url(#p0eeca5640c)">
     <use xlink:href="#mcd2bb848ca" x="250.917025" y="216.632903" style="fill: #40e0d0; stroke: #40e0d0"/>
    </g>
   </g>
   <g id="line2d_43">
    <path d="M 280.431074 115.293896 
" clip-path="url(#p0eeca5640c)" style="fill: none; stroke: #a0522d; stroke-width: 1.5; stroke-linecap: square"/>
    <g clip-path="url(#p0eeca5640c)">
     <use xlink:href="#mc534c5a209" x="280.431074" y="115.293896" style="fill: #a0522d; stroke: #a0522d"/>
    </g>
   </g>
   <g id="line2d_44">
    <path d="M 280.431074 202.179376 
" clip-path="url(#p0eeca5640c)" style="fill: none; stroke: #40e0d0; stroke-width: 1.5; stroke-linecap: square"/>
    <g clip-path="url(#p0eeca5640c)">
     <use xlink:href="#mcd2bb848ca" x="280.431074" y="202.179376" style="fill: #40e0d0; stroke: #40e0d0"/>
    </g>
   </g>
   <g id="line2d_45">
    <path d="M 309.945124 99.545471 
" clip-path="url(#p0eeca5640c)" style="fill: none; stroke: #a0522d; stroke-width: 1.5; stroke-linecap: square"/>
    <g clip-path="url(#p0eeca5640c)">
     <use xlink:href="#mc534c5a209" x="309.945124" y="99.545471" style="fill: #a0522d; stroke: #a0522d"/>
    </g>
   </g>
   <g id="line2d_46">
    <path d="M 309.945124 187.004651 
" clip-path="url(#p0eeca5640c)" style="fill: none; stroke: #40e0d0; stroke-width: 1.5; stroke-linecap: square"/>
    <g clip-path="url(#p0eeca5640c)">
     <use xlink:href="#mcd2bb848ca" x="309.945124" y="187.004651" style="fill: #40e0d0; stroke: #40e0d0"/>
    </g>
   </g>
   <g id="line2d_47">
    <path d="M 339.459174 83.419891 
" clip-path="url(#p0eeca5640c)" style="fill: none; stroke: #a0522d; stroke-width: 1.5; stroke-linecap: square"/>
    <g clip-path="url(#p0eeca5640c)">
     <use xlink:href="#mc534c5a209" x="339.459174" y="83.419891" style="fill: #a0522d; stroke: #a0522d"/>
    </g>
   </g>
   <g id="line2d_48">
    <path d="M 339.459174 172.146878 
" clip-path="url(#p0eeca5640c)" style="fill: none; stroke: #40e0d0; stroke-width: 1.5; stroke-linecap: square"/>
    <g clip-path="url(#p0eeca5640c)">
     <use xlink:href="#mcd2bb848ca" x="339.459174" y="172.146878" style="fill: #40e0d0; stroke: #40e0d0"/>
    </g>
   </g>
   <g id="line2d_49">
    <path d="M 368.973223 67.914049 
" clip-path="url(#p0eeca5640c)" style="fill: none; stroke: #a0522d; stroke-width: 1.5; stroke-linecap: square"/>
    <g clip-path="url(#p0eeca5640c)">
     <use xlink:href="#mc534c5a209" x="368.973223" y="67.914049" style="fill: #a0522d; stroke: #a0522d"/>
    </g>
   </g>
   <g id="line2d_50">
    <path d="M 368.973223 156.568439 
" clip-path="url(#p0eeca5640c)" style="fill: none; stroke: #40e0d0; stroke-width: 1.5; stroke-linecap: square"/>
    <g clip-path="url(#p0eeca5640c)">
     <use xlink:href="#mcd2bb848ca" x="368.973223" y="156.568439" style="fill: #40e0d0; stroke: #40e0d0"/>
    </g>
   </g>
   <g id="line2d_51">
    <path d="M 398.487273 53.568002 
" clip-path="url(#p0eeca5640c)" style="fill: none; stroke: #a0522d; stroke-width: 1.5; stroke-linecap: square"/>
    <g clip-path="url(#p0eeca5640c)">
     <use xlink:href="#mc534c5a209" x="398.487273" y="53.568002" style="fill: #a0522d; stroke: #a0522d"/>
    </g>
   </g>
   <g id="line2d_52">
    <path d="M 398.487273 141.517661 
" clip-path="url(#p0eeca5640c)" style="fill: none; stroke: #40e0d0; stroke-width: 1.5; stroke-linecap: square"/>
    <g clip-path="url(#p0eeca5640c)">
     <use xlink:href="#mcd2bb848ca" x="398.487273" y="141.517661" style="fill: #40e0d0; stroke: #40e0d0"/>
    </g>
   </g>
   <g id="patch_3">
    <path d="M 57.6 307.584 
L 57.6 41.472 
" style="fill: none; stroke: #000000; stroke-width: 0.8; stroke-linejoin: miter; stroke-linecap: square"/>
   </g>
   <g id="patch_4">
    <path d="M 414.72 307.584 
L 414.72 41.472 
" style="fill: none; stroke: #000000; stroke-width: 0.8; stroke-linejoin: miter; stroke-linecap: square"/>
   </g>
   <g id="patch_5">
    <path d="M 57.6 307.584 
L 414.72 307.584 
" style="fill: none; stroke: #000000; stroke-width: 0.8; stroke-linejoin: miter; stroke-linecap: square"/>
   </g>
   <g id="patch_6">
    <path d="M 57.6 41.472 
L 414.72 41.472 
" style="fill: none; stroke: #000000; stroke-width: 0.8; stroke-linejoin: miter; stroke-linecap: square"/>
   </g>
   <g id="text_16">
    <!-- Mean adjacent hadron rapidity spacings for 200 GeV $q\bar{q}$ -->
    <g transform="translate(68.22 23.833875) scale(0.12 -0.12)">
     <defs>
      <path id="DejaVuSans-6e" d="M 3513 2113 
L 3513 0 
L 2938 0 
L 2938 2094 
Q 2938 2591 2744 2837 
Q 2550 3084 2163 3084 
Q 1697 3084 1428 2787 
Q 1159 2491 1159 1978 
L 1159 0 
L 581 0 
L 581 3500 
L 1159 3500 
L 1159 2956 
Q 1366 3272 1645 3428 
Q 1925 3584 2291 3584 
Q 2894 3584 3203 3211 
Q 3513 2838 3513 2113 
z
" transform="scale(0.015625)"/>
      <path id="DejaVuSans-64" d="M 2906 2969 
L 2906 4863 
L 3481 4863 
L 3481 0 
L 2906 0 
L 2906 525 
Q 2725 213 2448 61 
Q 2172 -91 1784 -91 
Q 1150 -91 751 415 
Q 353 922 353 1747 
Q 353 2572 751 3078 
Q 1150 3584 1784 3584 
Q 2172 3584 2448 3432 
Q 2725 3281 2906 2969 
z
M 947 1747 
Q 947 1113 1208 752 
Q 1469 391 1925 391 
Q 2381 391 2643 752 
Q 2906 1113 2906 1747 
Q 2906 2381 2643 2742 
Q 2381 3103 1925 3103 
Q 1469 3103 1208 2742 
Q 947 2381 947 1747 
z
" transform="scale(0.015625)"/>
      <path id="DejaVuSans-6a" d="M 603 3500 
L 1178 3500 
L 1178 -63 
Q 1178 -731 923 -1031 
Q 669 -1331 103 -1331 
L -116 -1331 
L -116 -844 
L 38 -844 
Q 366 -844 484 -692 
Q 603 -541 603 -63 
L 603 3500 
z
M 603 4863 
L 1178 4863 
L 1178 4134 
L 603 4134 
L 603 4863 
z
" transform="scale(0.015625)"/>
      <path id="DejaVuSans-63" d="M 3122 3366 
L 3122 2828 
Q 2878 2963 2633 3030 
Q 2388 3097 2138 3097 
Q 1578 3097 1268 2742 
Q 959 2388 959 1747 
Q 959 1106 1268 751 
Q 1578 397 2138 397 
Q 2388 397 2633 464 
Q 2878 531 3122 666 
L 3122 134 
Q 2881 22 2623 -34 
Q 2366 -91 2075 -91 
Q 1284 -91 818 406 
Q 353 903 353 1747 
Q 353 2603 823 3093 
Q 1294 3584 2113 3584 
Q 2378 3584 2631 3529 
Q 2884 3475 3122 3366 
z
" transform="scale(0.015625)"/>
      <path id="DejaVuSans-68" d="M 3513 2113 
L 3513 0 
L 2938 0 
L 2938 2094 
Q 2938 2591 2744 2837 
Q 2550 3084 2163 3084 
Q 1697 3084 1428 2787 
Q 1159 2491 1159 1978 
L 1159 0 
L 581 0 
L 581 4863 
L 1159 4863 
L 1159 2956 
Q 1366 3272 1645 3428 
Q 1925 3584 2291 3584 
Q 2894 3584 3203 3211 
Q 3513 2838 3513 2113 
z
" transform="scale(0.015625)"/>
      <path id="DejaVuSans-72" d="M 2631 2963 
Q 2534 3019 2420 3045 
Q 2306 3072 2169 3072 
Q 1681 3072 1420 2755 
Q 1159 2438 1159 1844 
L 1159 0 
L 581 0 
L 581 3500 
L 1159 3500 
L 1159 2956 
Q 1341 3275 1631 3429 
Q 1922 3584 2338 3584 
Q 2397 3584 2469 3576 
Q 2541 3569 2628 3553 
L 2631 2963 
z
" transform="scale(0.015625)"/>
      <path id="DejaVuSans-69" d="M 603 3500 
L 1178 3500 
L 1178 0 
L 603 0 
L 603 3500 
z
M 603 4863 
L 1178 4863 
L 1178 4134 
L 603 4134 
L 603 4863 
z
" transform="scale(0.015625)"/>
      <path id="DejaVuSans-79" d="M 2059 -325 
Q 1816 -950 1584 -1140 
Q 1353 -1331 966 -1331 
L 506 -1331 
L 506 -850 
L 844 -850 
Q 1081 -850 1212 -737 
Q 1344 -625 1503 -206 
L 1606 56 
L 191 3500 
L 800 3500 
L 1894 763 
L 2988 3500 
L 3597 3500 
L 2059 -325 
z
" transform="scale(0.015625)"/>
      <path id="DejaVuSans-67" d="M 2906 1791 
Q 2906 2416 2648 2759 
Q 2391 3103 1925 3103 
Q 1463 3103 1205 2759 
Q 947 2416 947 1791 
Q 947 1169 1205 825 
Q 1463 481 1925 481 
Q 2391 481 2648 825 
Q 2906 1169 2906 1791 
z
M 3481 434 
Q 3481 -459 3084 -895 
Q 2688 -1331 1869 -1331 
Q 1566 -1331 1297 -1286 
Q 1028 -1241 775 -1147 
L 775 -588 
Q 1028 -725 1275 -790 
Q 1522 -856 1778 -856 
Q 2344 -856 2625 -561 
Q 2906 -266 2906 331 
L 2906 616 
Q 2728 306 2450 153 
Q 2172 0 1784 0 
Q 1141 0 747 490 
Q 353 981 353 1791 
Q 353 2603 747 3093 
Q 1141 3584 1784 3584 
Q 2172 3584 2450 3431 
Q 2728 3278 2906 2969 
L 2906 3500 
L 3481 3500 
L 3481 434 
z
" transform="scale(0.015625)"/>
      <path id="DejaVuSans-66" d="M 2375 4863 
L 2375 4384 
L 1825 4384 
Q 1516 4384 1395 4259 
Q 1275 4134 1275 3809 
L 1275 3500 
L 2222 3500 
L 2222 3053 
L 1275 3053 
L 1275 0 
L 697 0 
L 697 3053 
L 147 3053 
L 147 3500 
L 697 3500 
L 697 3744 
Q 697 4328 969 4595 
Q 1241 4863 1831 4863 
L 2375 4863 
z
" transform="scale(0.015625)"/>
      <path id="DejaVuSans-Oblique-71" d="M 2669 525 
Q 2438 222 2123 65 
Q 1809 -91 1428 -91 
Q 897 -91 595 267 
Q 294 625 294 1253 
Q 294 1759 480 2231 
Q 666 2703 1013 3078 
Q 1238 3322 1530 3453 
Q 1822 3584 2144 3584 
Q 2531 3584 2781 3431 
Q 3031 3278 3144 2969 
L 3244 3494 
L 3822 3494 
L 2888 -1319 
L 2309 -1319 
L 2669 525 
z
M 891 1338 
Q 891 875 1084 633 
Q 1278 391 1644 391 
Q 2188 391 2572 911 
Q 2956 1431 2956 2175 
Q 2956 2625 2757 2864 
Q 2559 3103 2188 3103 
Q 1916 3103 1684 2976 
Q 1453 2850 1281 2606 
Q 1100 2350 995 2006 
Q 891 1663 891 1338 
z
" transform="scale(0.015625)"/>
      <path id="DejaVuSans-304" d="M -2522 4769 
L -653 4769 
L -653 4306 
L -2522 4306 
L -2522 4769 
z
" transform="scale(0.015625)"/>
     </defs>
     <use xlink:href="#DejaVuSans-4d" transform="translate(0 0.015625)"/>
     <use xlink:href="#DejaVuSans-65" transform="translate(86.279297 0.015625)"/>
     <use xlink:href="#DejaVuSans-61" transform="translate(147.802734 0.015625)"/>
     <use xlink:href="#DejaVuSans-6e" transform="translate(209.082031 0.015625)"/>
     <use xlink:href="#DejaVuSans-20" transform="translate(272.460938 0.015625)"/>
     <use xlink:href="#DejaVuSans-61" transform="translate(304.248047 0.015625)"/>
     <use xlink:href="#DejaVuSans-64" transform="translate(365.527344 0.015625)"/>
     <use xlink:href="#DejaVuSans-6a" transform="translate(429.003906 0.015625)"/>
     <use xlink:href="#DejaVuSans-61" transform="translate(456.787109 0.015625)"/>
     <use xlink:href="#DejaVuSans-63" transform="translate(518.066406 0.015625)"/>
     <use xlink:href="#DejaVuSans-65" transform="translate(573.046875 0.015625)"/>
     <use xlink:href="#DejaVuSans-6e" transform="translate(634.570312 0.015625)"/>
     <use xlink:href="#DejaVuSans-74" transform="translate(697.949219 0.015625)"/>
     <use xlink:href="#DejaVuSans-20" transform="translate(737.158203 0.015625)"/>
     <use xlink:href="#DejaVuSans-68" transform="translate(768.945312 0.015625)"/>
     <use xlink:href="#DejaVuSans-61" transform="translate(832.324219 0.015625)"/>
     <use xlink:href="#DejaVuSans-64" transform="translate(893.603516 0.015625)"/>
     <use xlink:href="#DejaVuSans-72" transform="translate(957.080078 0.015625)"/>
     <use xlink:href="#DejaVuSans-6f" transform="translate(998.193359 0.015625)"/>
     <use xlink:href="#DejaVuSans-6e" transform="translate(1059.375 0.015625)"/>
     <use xlink:href="#DejaVuSans-20" transform="translate(1122.753906 0.015625)"/>
     <use xlink:href="#DejaVuSans-72" transform="translate(1154.541016 0.015625)"/>
     <use xlink:href="#DejaVuSans-61" transform="translate(1195.654297 0.015625)"/>
     <use xlink:href="#DejaVuSans-70" transform="translate(1256.933594 0.015625)"/>
     <use xlink:href="#DejaVuSans-69" transform="translate(1320.410156 0.015625)"/>
     <use xlink:href="#DejaVuSans-64" transform="translate(1348.193359 0.015625)"/>
     <use xlink:href="#DejaVuSans-69" transform="translate(1411.669922 0.015625)"/>
     <use xlink:href="#DejaVuSans-74" transform="translate(1439.453125 0.015625)"/>
     <use xlink:href="#DejaVuSans-79" transform="translate(1478.662109 0.015625)"/>
     <use xlink:href="#DejaVuSans-20" transform="translate(1537.841797 0.015625)"/>
     <use xlink:href="#DejaVuSans-73" transform="translate(1569.628906 0.015625)"/>
     <use xlink:href="#DejaVuSans-70" transform="translate(1621.728516 0.015625)"/>
     <use xlink:href="#DejaVuSans-61" transform="translate(1685.205078 0.015625)"/>
     <use xlink:href="#DejaVuSans-63" transform="translate(1746.484375 0.015625)"/>
     <use xlink:href="#DejaVuSans-69" transform="translate(1801.464844 0.015625)"/>
     <use xlink:href="#DejaVuSans-6e" transform="translate(1829.248047 0.015625)"/>
     <use xlink:href="#DejaVuSans-67" transform="translate(1892.626953 0.015625)"/>
     <use xlink:href="#DejaVuSans-73" transform="translate(1956.103516 0.015625)"/>
     <use xlink:href="#DejaVuSans-20" transform="translate(2008.203125 0.015625)"/>
     <use xlink:href="#DejaVuSans-66" transform="translate(2039.990234 0.015625)"/>
     <use xlink:href="#DejaVuSans-6f" transform="translate(2075.195312 0.015625)"/>
     <use xlink:href="#DejaVuSans-72" transform="translate(2136.376953 0.015625)"/>
     <use xlink:href="#DejaVuSans-20" transform="translate(2177.490234 0.015625)"/>
     <use xlink:href="#DejaVuSans-32" transform="translate(2209.277344 0.015625)"/>
     <use xlink:href="#DejaVuSans-30" transform="translate(2272.900391 0.015625)"/>
     <use xlink:href="#DejaVuSans-30" transform="translate(2336.523438 0.015625)"/>
     <use xlink:href="#DejaVuSans-20" transform="translate(2400.146484 0.015625)"/>
     <use xlink:href="#DejaVuSans-47" transform="translate(2431.933594 0.015625)"/>
     <use xlink:href="#DejaVuSans-65" transform="translate(2509.423828 0.015625)"/>
     <use xlink:href="#DejaVuSans-56" transform="translate(2570.947266 0.015625)"/>
     <use xlink:href="#DejaVuSans-20" transform="translate(2639.355469 0.015625)"/>
     <use xlink:href="#DejaVuSans-Oblique-71" transform="translate(2671.142578 0.015625)"/>
     <use xlink:href="#DejaVuSans-304" transform="translate(2798.894531 1.234375)"/>
     <use xlink:href="#DejaVuSans-Oblique-71" transform="translate(2734.619141 0.015625)"/>
    </g>
    <!-- hadronisation -->
    <g transform="translate(195.104062 37.295625) scale(0.12 -0.12)">
     <use xlink:href="#DejaVuSans-68"/>
     <use xlink:href="#DejaVuSans-61" x="63.378906"/>
     <use xlink:href="#DejaVuSans-64" x="124.658203"/>
     <use xlink:href="#DejaVuSans-72" x="188.134766"/>
     <use xlink:href="#DejaVuSans-6f" x="226.998047"/>
     <use xlink:href="#DejaVuSans-6e" x="288.179688"/>
     <use xlink:href="#DejaVuSans-69" x="351.558594"/>
     <use xlink:href="#DejaVuSans-73" x="379.341797"/>
     <use xlink:href="#DejaVuSans-61" x="431.441406"/>
     <use xlink:href="#DejaVuSans-74" x="492.720703"/>
     <use xlink:href="#DejaVuSans-69" x="531.929688"/>
     <use xlink:href="#DejaVuSans-6f" x="559.712891"/>
     <use xlink:href="#DejaVuSans-6e" x="620.894531"/>
    </g>
   </g>
   <g id="legend_1">
    <g id="patch_7">
     <path d="M 64.6 108.1845 
L 293.35 108.1845 
Q 295.35 108.1845 295.35 106.1845 
L 295.35 48.472 
Q 295.35 46.472 293.35 46.472 
L 64.6 46.472 
Q 62.6 46.472 62.6 48.472 
L 62.6 106.1845 
Q 62.6 108.1845 64.6 108.1845 
z
" style="fill: #ffffff; opacity: 0.8; stroke: #cccccc; stroke-linejoin: miter"/>
    </g>
    <g id="line2d_53">
     <path d="M 66.6 54.570438 
L 76.6 54.570438 
L 86.6 54.570438 
" style="fill: none; stroke-dasharray: 5.55,2.4; stroke-dashoffset: 0; stroke: #a0522d; stroke-width: 1.5"/>
    </g>
    <g id="text_17">
     <!-- between regular hadrons, Monash tune -->
     <g transform="translate(94.6 58.070438) scale(0.1 -0.1)">
      <defs>
       <path id="DejaVuSans-62" d="M 3116 1747 
Q 3116 2381 2855 2742 
Q 2594 3103 2138 3103 
Q 1681 3103 1420 2742 
Q 1159 2381 1159 1747 
Q 1159 1113 1420 752 
Q 1681 391 2138 391 
Q 2594 391 2855 752 
Q 3116 1113 3116 1747 
z
M 1159 2969 
Q 1341 3281 1617 3432 
Q 1894 3584 2278 3584 
Q 2916 3584 3314 3078 
Q 3713 2572 3713 1747 
Q 3713 922 3314 415 
Q 2916 -91 2278 -91 
Q 1894 -91 1617 61 
Q 1341 213 1159 525 
L 1159 0 
L 581 0 
L 581 4863 
L 1159 4863 
L 1159 2969 
z
" transform="scale(0.015625)"/>
       <path id="DejaVuSans-77" d="M 269 3500 
L 844 3500 
L 1563 769 
L 2278 3500 
L 2956 3500 
L 3675 769 
L 4391 3500 
L 4966 3500 
L 4050 0 
L 3372 0 
L 2619 2869 
L 1863 0 
L 1184 0 
L 269 3500 
z
" transform="scale(0.015625)"/>
       <path id="DejaVuSans-75" d="M 544 1381 
L 544 3500 
L 1119 3500 
L 1119 1403 
Q 1119 906 1312 657 
Q 1506 409 1894 409 
Q 2359 409 2629 706 
Q 2900 1003 2900 1516 
L 2900 3500 
L 3475 3500 
L 3475 0 
L 2900 0 
L 2900 538 
Q 2691 219 2414 64 
Q 2138 -91 1772 -91 
Q 1169 -91 856 284 
Q 544 659 544 1381 
z
M 1991 3584 
L 1991 3584 
z
" transform="scale(0.015625)"/>
       <path id="DejaVuSans-6c" d="M 603 4863 
L 1178 4863 
L 1178 0 
L 603 0 
L 603 4863 
z
" transform="scale(0.015625)"/>
       <path id="DejaVuSans-2c" d="M 750 794 
L 1409 794 
L 1409 256 
L 897 -744 
L 494 -744 
L 750 256 
L 750 794 
z
" transform="scale(0.015625)"/>
      </defs>
      <use xlink:href="#DejaVuSans-62"/>
      <use xlink:href="#DejaVuSans-65" x="63.476562"/>
      <use xlink:href="#DejaVuSans-74" x="125"/>
      <use xlink:href="#DejaVuSans-77" x="164.208984"/>
      <use xlink:href="#DejaVuSans-65" x="245.996094"/>
      <use xlink:href="#DejaVuSans-65" x="307.519531"/>
      <use xlink:href="#DejaVuSans-6e" x="369.042969"/>
      <use xlink:href="#DejaVuSans-20" x="432.421875"/>
      <use xlink:href="#DejaVuSans-72" x="464.208984"/>
      <use xlink:href="#DejaVuSans-65" x="503.072266"/>
      <use xlink:href="#DejaVuSans-67" x="564.595703"/>
      <use xlink:href="#DejaVuSans-75" x="628.072266"/>
      <use xlink:href="#DejaVuSans-6c" x="691.451172"/>
      <use xlink:href="#DejaVuSans-61" x="719.234375"/>
      <use xlink:href="#DejaVuSans-72" x="780.513672"/>
      <use xlink:href="#DejaVuSans-20" x="821.626953"/>
      <use xlink:href="#DejaVuSans-68" x="853.414062"/>
      <use xlink:href="#DejaVuSans-61" x="916.792969"/>
      <use xlink:href="#DejaVuSans-64" x="978.072266"/>
      <use xlink:href="#DejaVuSans-72" x="1041.548828"/>
      <use xlink:href="#DejaVuSans-6f" x="1080.412109"/>
      <use xlink:href="#DejaVuSans-6e" x="1141.59375"/>
      <use xlink:href="#DejaVuSans-73" x="1204.972656"/>
      <use xlink:href="#DejaVuSans-2c" x="1257.072266"/>
      <use xlink:href="#DejaVuSans-20" x="1288.859375"/>
      <use xlink:href="#DejaVuSans-4d" x="1320.646484"/>
      <use xlink:href="#DejaVuSans-6f" x="1406.925781"/>
      <use xlink:href="#DejaVuSans-6e" x="1468.107422"/>
      <use xlink:href="#DejaVuSans-61" x="1531.486328"/>
      <use xlink:href="#DejaVuSans-73" x="1592.765625"/>
      <use xlink:href="#DejaVuSans-68" x="1644.865234"/>
      <use xlink:href="#DejaVuSans-20" x="1708.244141"/>
      <use xlink:href="#DejaVuSans-74" x="1740.03125"/>
      <use xlink:href="#DejaVuSans-75" x="1779.240234"/>
      <use xlink:href="#DejaVuSans-6e" x="1842.619141"/>
      <use xlink:href="#DejaVuSans-65" x="1905.998047"/>
     </g>
    </g>
    <g id="line2d_54">
     <path d="M 66.6 69.248563 
L 76.6 69.248563 
L 86.6 69.248563 
" style="fill: none; stroke-dasharray: 5.55,2.4; stroke-dashoffset: 0; stroke: #40e0d0; stroke-width: 1.5"/>
    </g>
    <g id="text_18">
     <!-- between regular hadrons, JETSET tune -->
     <g transform="translate(94.6 72.748563) scale(0.1 -0.1)">
      <defs>
       <path id="DejaVuSans-4a" d="M 628 4666 
L 1259 4666 
L 1259 325 
Q 1259 -519 939 -900 
Q 619 -1281 -91 -1281 
L -331 -1281 
L -331 -750 
L -134 -750 
Q 284 -750 456 -515 
Q 628 -281 628 325 
L 628 4666 
z
" transform="scale(0.015625)"/>
       <path id="DejaVuSans-45" d="M 628 4666 
L 3578 4666 
L 3578 4134 
L 1259 4134 
L 1259 2753 
L 3481 2753 
L 3481 2222 
L 1259 2222 
L 1259 531 
L 3634 531 
L 3634 0 
L 628 0 
L 628 4666 
z
" transform="scale(0.015625)"/>
       <path id="DejaVuSans-54" d="M -19 4666 
L 3928 4666 
L 3928 4134 
L 2272 4134 
L 2272 0 
L 1638 0 
L 1638 4134 
L -19 4134 
L -19 4666 
z
" transform="scale(0.015625)"/>
       <path id="DejaVuSans-53" d="M 3425 4513 
L 3425 3897 
Q 3066 4069 2747 4153 
Q 2428 4238 2131 4238 
Q 1616 4238 1336 4038 
Q 1056 3838 1056 3469 
Q 1056 3159 1242 3001 
Q 1428 2844 1947 2747 
L 2328 2669 
Q 3034 2534 3370 2195 
Q 3706 1856 3706 1288 
Q 3706 609 3251 259 
Q 2797 -91 1919 -91 
Q 1588 -91 1214 -16 
Q 841 59 441 206 
L 441 856 
Q 825 641 1194 531 
Q 1563 422 1919 422 
Q 2459 422 2753 634 
Q 3047 847 3047 1241 
Q 3047 1584 2836 1778 
Q 2625 1972 2144 2069 
L 1759 2144 
Q 1053 2284 737 2584 
Q 422 2884 422 3419 
Q 422 4038 858 4394 
Q 1294 4750 2059 4750 
Q 2388 4750 2728 4690 
Q 3069 4631 3425 4513 
z
" transform="scale(0.015625)"/>
      </defs>
      <use xlink:href="#DejaVuSans-62"/>
      <use xlink:href="#DejaVuSans-65" x="63.476562"/>
      <use xlink:href="#DejaVuSans-74" x="125"/>
      <use xlink:href="#DejaVuSans-77" x="164.208984"/>
      <use xlink:href="#DejaVuSans-65" x="245.996094"/>
      <use xlink:href="#DejaVuSans-65" x="307.519531"/>
      <use xlink:href="#DejaVuSans-6e" x="369.042969"/>
      <use xlink:href="#DejaVuSans-20" x="432.421875"/>
      <use xlink:href="#DejaVuSans-72" x="464.208984"/>
      <use xlink:href="#DejaVuSans-65" x="503.072266"/>
      <use xlink:href="#DejaVuSans-67" x="564.595703"/>
      <use xlink:href="#DejaVuSans-75" x="628.072266"/>
      <use xlink:href="#DejaVuSans-6c" x="691.451172"/>
      <use xlink:href="#DejaVuSans-61" x="719.234375"/>
      <use xlink:href="#DejaVuSans-72" x="780.513672"/>
      <use xlink:href="#DejaVuSans-20" x="821.626953"/>
      <use xlink:href="#DejaVuSans-68" x="853.414062"/>
      <use xlink:href="#DejaVuSans-61" x="916.792969"/>
      <use xlink:href="#DejaVuSans-64" x="978.072266"/>
      <use xlink:href="#DejaVuSans-72" x="1041.548828"/>
      <use xlink:href="#DejaVuSans-6f" x="1080.412109"/>
      <use xlink:href="#DejaVuSans-6e" x="1141.59375"/>
      <use xlink:href="#DejaVuSans-73" x="1204.972656"/>
      <use xlink:href="#DejaVuSans-2c" x="1257.072266"/>
      <use xlink:href="#DejaVuSans-20" x="1288.859375"/>
      <use xlink:href="#DejaVuSans-4a" x="1320.646484"/>
      <use xlink:href="#DejaVuSans-45" x="1350.138672"/>
      <use xlink:href="#DejaVuSans-54" x="1413.322266"/>
      <use xlink:href="#DejaVuSans-53" x="1474.40625"/>
      <use xlink:href="#DejaVuSans-45" x="1537.882812"/>
      <use xlink:href="#DejaVuSans-54" x="1601.066406"/>
      <use xlink:href="#DejaVuSans-20" x="1662.150391"/>
      <use xlink:href="#DejaVuSans-74" x="1693.9375"/>
      <use xlink:href="#DejaVuSans-75" x="1733.146484"/>
      <use xlink:href="#DejaVuSans-6e" x="1796.525391"/>
      <use xlink:href="#DejaVuSans-65" x="1859.904297"/>
     </g>
    </g>
    <g id="LineCollection_25">
     <path d="M 76.6 88.926688 
L 76.6 78.926688 
" style="fill: none; stroke: #a0522d; stroke-width: 1.5"/>
    </g>
    <g id="line2d_55">
     <path d="M 66.6 83.926688 
L 86.6 83.926688 
" style="fill: none; stroke: #a0522d; stroke-width: 1.5; stroke-linecap: square"/>
    </g>
    <g id="line2d_56">
     <g>
      <use xlink:href="#mc534c5a209" x="76.6" y="83.926688" style="fill: #a0522d; stroke: #a0522d"/>
     </g>
    </g>
    <g id="text_19">
     <!-- between final hadrons, Monash tune -->
     <g transform="translate(94.6 87.426688) scale(0.1 -0.1)">
      <use xlink:href="#DejaVuSans-62"/>
      <use xlink:href="#DejaVuSans-65" x="63.476562"/>
      <use xlink:href="#DejaVuSans-74" x="125"/>
      <use xlink:href="#DejaVuSans-77" x="164.208984"/>
      <use xlink:href="#DejaVuSans-65" x="245.996094"/>
      <use xlink:href="#DejaVuSans-65" x="307.519531"/>
      <use xlink:href="#DejaVuSans-6e" x="369.042969"/>
      <use xlink:href="#DejaVuSans-20" x="432.421875"/>
      <use xlink:href="#DejaVuSans-66" x="464.208984"/>
      <use xlink:href="#DejaVuSans-69" x="499.414062"/>
      <use xlink:href="#DejaVuSans-6e" x="527.197266"/>
      <use xlink:href="#DejaVuSans-61" x="590.576172"/>
      <use xlink:href="#DejaVuSans-6c" x="651.855469"/>
      <use xlink:href="#DejaVuSans-20" x="679.638672"/>
      <use xlink:href="#DejaVuSans-68" x="711.425781"/>
      <use xlink:href="#DejaVuSans-61" x="774.804688"/>
      <use xlink:href="#DejaVuSans-64" x="836.083984"/>
      <use xlink:href="#DejaVuSans-72" x="899.560547"/>
      <use xlink:href="#DejaVuSans-6f" x="938.423828"/>
      <use xlink:href="#DejaVuSans-6e" x="999.605469"/>
      <use xlink:href="#DejaVuSans-73" x="1062.984375"/>
      <use xlink:href="#DejaVuSans-2c" x="1115.083984"/>
      <use xlink:href="#DejaVuSans-20" x="1146.871094"/>
      <use xlink:href="#DejaVuSans-4d" x="1178.658203"/>
      <use xlink:href="#DejaVuSans-6f" x="1264.9375"/>
      <use xlink:href="#DejaVuSans-6e" x="1326.119141"/>
      <use xlink:href="#DejaVuSans-61" x="1389.498047"/>
      <use xlink:href="#DejaVuSans-73" x="1450.777344"/>
      <use xlink:href="#DejaVuSans-68" x="1502.876953"/>
      <use xlink:href="#DejaVuSans-20" x="1566.255859"/>
      <use xlink:href="#DejaVuSans-74" x="1598.042969"/>
      <use xlink:href="#DejaVuSans-75" x="1637.251953"/>
      <use xlink:href="#DejaVuSans-6e" x="1700.630859"/>
      <use xlink:href="#DejaVuSans-65" x="1764.009766"/>
     </g>
    </g>
    <g id="LineCollection_26">
     <path d="M 76.6 103.604813 
L 76.6 93.604813 
" style="fill: none; stroke: #40e0d0; stroke-width: 1.5"/>
    </g>
    <g id="line2d_57">
     <path d="M 66.6 98.604813 
L 86.6 98.604813 
" style="fill: none; stroke: #40e0d0; stroke-width: 1.5; stroke-linecap: square"/>
    </g>
    <g id="line2d_58">
     <g>
      <use xlink:href="#mcd2bb848ca" x="76.6" y="98.604813" style="fill: #40e0d0; stroke: #40e0d0"/>
     </g>
    </g>
    <g id="text_20">
     <!-- between final hadrons, JETSET tune -->
     <g transform="translate(94.6 102.104813) scale(0.1 -0.1)">
      <use xlink:href="#DejaVuSans-62"/>
      <use xlink:href="#DejaVuSans-65" x="63.476562"/>
      <use xlink:href="#DejaVuSans-74" x="125"/>
      <use xlink:href="#DejaVuSans-77" x="164.208984"/>
      <use xlink:href="#DejaVuSans-65" x="245.996094"/>
      <use xlink:href="#DejaVuSans-65" x="307.519531"/>
      <use xlink:href="#DejaVuSans-6e" x="369.042969"/>
      <use xlink:href="#DejaVuSans-20" x="432.421875"/>
      <use xlink:href="#DejaVuSans-66" x="464.208984"/>
      <use xlink:href="#DejaVuSans-69" x="499.414062"/>
      <use xlink:href="#DejaVuSans-6e" x="527.197266"/>
      <use xlink:href="#DejaVuSans-61" x="590.576172"/>
      <use xlink:href="#DejaVuSans-6c" x="651.855469"/>
      <use xlink:href="#DejaVuSans-20" x="679.638672"/>
      <use xlink:href="#DejaVuSans-68" x="711.425781"/>
      <use xlink:href="#DejaVuSans-61" x="774.804688"/>
      <use xlink:href="#DejaVuSans-64" x="836.083984"/>
      <use xlink:href="#DejaVuSans-72" x="899.560547"/>
      <use xlink:href="#DejaVuSans-6f" x="938.423828"/>
      <use xlink:href="#DejaVuSans-6e" x="999.605469"/>
      <use xlink:href="#DejaVuSans-73" x="1062.984375"/>
      <use xlink:href="#DejaVuSans-2c" x="1115.083984"/>
      <use xlink:href="#DejaVuSans-20" x="1146.871094"/>
      <use xlink:href="#DejaVuSans-4a" x="1178.658203"/>
      <use xlink:href="#DejaVuSans-45" x="1208.150391"/>
      <use xlink:href="#DejaVuSans-54" x="1271.333984"/>
      <use xlink:href="#DejaVuSans-53" x="1332.417969"/>
      <use xlink:href="#DejaVuSans-45" x="1395.894531"/>
      <use xlink:href="#DejaVuSans-54" x="1459.078125"/>
      <use xlink:href="#DejaVuSans-20" x="1520.162109"/>
      <use xlink:href="#DejaVuSans-74" x="1551.949219"/>
      <use xlink:href="#DejaVuSans-75" x="1591.158203"/>
      <use xlink:href="#DejaVuSans-6e" x="1654.537109"/>
      <use xlink:href="#DejaVuSans-65" x="1717.916016"/>
     </g>
    </g>
   </g>
  </g>
 </g>
 <defs>
  <clipPath id="p0eeca5640c">
   <rect x="57.6" y="41.472" width="357.12" height="266.112"/>
  </clipPath>
 </defs>
</svg>
