<?xml version="1.0" encoding="utf-8" standalone="no"?>
<!DOCTYPE svg PUBLIC "-//W3C//DTD SVG 1.1//EN"
  "http://www.w3.org/Graphics/SVG/1.1/DTD/svg11.dtd">
<svg xmlns:xlink="http://www.w3.org/1999/xlink" width="460.8pt" height="345.6pt" viewBox="0 0 460.8 345.6" xmlns="http://www.w3.org/2000/svg" version="1.1">
 <metadata>
  <rdf:RDF xmlns:dc="http://purl.org/dc/elements/1.1/" xmlns:cc="http://creativecommons.org/ns#" xmlns:rdf="http://www.w3.org/1999/02/22-rdf-syntax-ns#">
   <cc:Work>
    <dc:type rdf:resource="http://purl.org/dc/dcmitype/StillImage"/>
    <dc:date>2025-11-03T17:09:42.871428</dc:date>
    <dc:format>image/svg+xml</dc:format>
    <dc:creator>
     <cc:Agent>
      <dc:title>Matplotlib v3.6.3, https://matplotlib.org/</dc:title>
     </cc:Agent>
    </dc:creator>
   </cc:Work>
  </rdf:RDF>
 </metadata>
 <defs>
  <style type="text/css">*{stroke-linejoin: round; stroke-linecap: butt}</style>
 </defs>
 <g id="figure_1">
  <g id="patch_1">
   <path d="M 0 345.6 
L 460.8 345.6 
L 460.8 0 
L 0 0 
z
" style="fill: #ffffff"/>
  </g>
  <g id="axes_1">
   <g id="patch_2">
    <path d="M 81.1895 295 
L 450 295 
L 450 16.040333 
L 81.1895 16.040333 
z
" style="fill: #ffffff"/>
   </g>
   <g id="PolyCollection_1">
    <defs>
     <path id="mf5d9627ce0" d="M 141.980579 -63.415618 
L 141.980579 -63.424531 
L 145.367268 -65.601622 
L 148.753958 -70.163184 
L 152.140648 -77.027338 
L 155.527337 -87.240417 
L 158.914027 -101.207002 
L 162.300716 -119.210543 
L 165.687406 -140.728429 
L 169.074096 -164.832801 
L 172.460785 -186.578776 
L 175.847475 -206.748057 
L 179.234165 -223.367562 
L 182.620854 -237.573308 
L 186.007544 -248.326715 
L 189.394233 -256.681864 
L 192.780923 -261.33444 
L 196.167613 -264.532117 
L 199.554302 -265.462189 
L 202.940992 -264.815567 
L 206.327682 -264.149015 
L 209.714371 -262.616611 
L 213.101061 -261.529312 
L 216.48775 -259.126625 
L 219.87444 -257.864384 
L 223.26113 -257.594221 
L 226.647819 -255.997597 
L 230.034509 -255.479413 
L 233.421199 -254.708782 
L 236.807888 -252.671481 
L 240.194578 -252.279522 
L 243.581267 -251.258657 
L 246.967957 -249.728467 
L 250.354647 -248.720889 
L 253.741336 -248.180561 
L 257.128026 -247.394428 
L 260.514716 -247.998975 
L 263.901405 -248.153987 
L 267.288095 -247.768672 
L 270.674784 -246.761093 
L 274.061474 -247.088833 
L 277.448164 -248.481727 
L 280.834853 -248.891402 
L 284.221543 -249.684178 
L 287.608233 -250.833481 
L 290.994922 -252.033717 
L 294.381612 -252.972647 
L 297.768301 -253.233953 
L 301.154991 -255.244681 
L 304.541681 -255.802724 
L 307.92837 -257.215548 
L 311.31506 -258.30949 
L 314.70175 -259.664739 
L 318.088439 -260.991199 
L 321.475129 -262.218008 
L 324.861818 -264.673842 
L 328.248508 -264.740276 
L 331.635198 -265.092374 
L 335.021887 -263.630832 
L 338.408577 -261.456235 
L 341.795267 -255.698645 
L 345.181956 -247.963544 
L 348.568646 -237.562236 
L 351.955335 -223.834813 
L 355.342025 -206.599688 
L 358.728715 -187.431342 
L 362.115404 -164.248184 
L 365.502094 -140.655352 
L 368.888784 -119.350054 
L 372.275473 -101.058634 
L 375.662163 -87.202772 
L 379.048852 -77.004087 
L 382.435542 -70.195736 
L 385.822232 -65.667392 
L 389.208921 -63.434423 
L 389.208921 -63.42521 
L 389.208921 -63.42521 
L 385.822232 -65.631168 
L 382.435542 -70.134086 
L 379.048852 -76.917238 
L 375.662163 -87.088107 
L 372.275473 -100.914541 
L 368.888784 -119.17451 
L 365.502094 -140.449133 
L 362.115404 -164.01261 
L 358.728715 -187.170125 
L 355.342025 -206.319028 
L 351.955335 -223.537765 
L 348.568646 -237.252743 
L 345.181956 -247.64495 
L 341.795267 -255.373452 
L 338.408577 -261.126214 
L 335.021887 -263.298996 
L 331.635198 -264.759342 
L 328.248508 -264.407531 
L 324.861818 -264.341142 
L 321.475129 -261.887345 
L 318.088439 -260.661555 
L 314.70175 -259.336202 
L 311.31506 -257.982083 
L 307.92837 -256.889071 
L 304.541681 -255.477443 
L 301.154991 -254.919864 
L 297.768301 -252.910842 
L 294.381612 -252.649757 
L 290.994922 -251.711624 
L 287.608233 -250.512429 
L 284.221543 -249.3641 
L 280.834853 -248.572011 
L 277.448164 -248.16269 
L 274.061474 -246.770992 
L 270.674784 -246.44354 
L 267.288095 -247.450255 
L 263.901405 -247.835238 
L 260.514716 -247.680359 
L 257.128026 -247.076322 
L 253.741336 -247.86179 
L 250.354647 -248.401652 
L 246.967957 -249.408345 
L 243.581267 -250.937229 
L 240.194578 -251.95723 
L 236.807888 -252.348857 
L 233.421199 -254.384431 
L 230.034509 -255.154398 
L 226.647819 -255.672138 
L 223.26113 -257.267433 
L 219.87444 -257.537353 
L 216.48775 -258.798553 
L 213.101061 -261.199225 
L 209.714371 -262.285616 
L 206.327682 -263.816758 
L 202.940992 -264.482756 
L 199.554302 -265.128847 
L 196.167613 -264.199527 
L 192.780923 -261.004508 
L 189.394233 -256.355829 
L 186.007544 -248.007811 
L 182.620854 -237.263816 
L 179.234165 -223.070936 
L 175.847475 -206.467264 
L 172.460785 -186.318467 
L 169.074096 -164.596541 
L 165.687406 -140.522115 
L 162.300716 -119.035216 
L 158.914027 -101.062624 
L 155.527337 -87.125664 
L 152.140648 -76.940416 
L 148.753958 -70.101677 
L 145.367268 -65.565903 
L 141.980579 -63.415618 
z
" style="stroke: #d3d3d3"/>
    </defs>
    <g clip-path="url(#p0363aa0874)">
     <use xlink:href="#mf5d9627ce0" x="0" y="345.6" style="fill: #d3d3d3; stroke: #d3d3d3"/>
    </g>
   </g>
   <g id="PolyCollection_2">
    <defs>
     <path id="mcb054ce83d" d="M 179.234165 -65.483344 
L 179.234165 -65.682893 
L 182.620854 -106.333472 
L 186.007544 -177.541574 
L 189.394233 -246.827527 
L 192.780923 -294.115057 
L 196.167613 -313.801586 
L 199.554302 -316.791104 
L 202.940992 -309.195514 
L 206.327682 -300.957732 
L 209.714371 -291.147684 
L 213.101061 -290.815515 
L 216.48775 -288.977515 
L 219.87444 -290.682648 
L 223.26113 -288.313178 
L 226.647819 -288.977515 
L 230.034509 -293.052118 
L 233.421199 -296.35166 
L 236.807888 -296.440238 
L 240.194578 -299.186165 
L 243.581267 -298.101081 
L 246.967957 -299.828358 
L 250.354647 -302.286406 
L 253.741336 -305.453081 
L 257.128026 -304.456575 
L 260.514716 -305.563804 
L 263.901405 -307.711828 
L 267.288095 -308.686189 
L 270.674784 -301.932093 
L 274.061474 -302.264262 
L 277.448164 -302.552141 
L 280.834853 -302.485707 
L 284.221543 -301.2899 
L 287.608233 -299.651202 
L 290.994922 -299.872647 
L 294.381612 -299.474045 
L 297.768301 -294.535804 
L 301.154991 -296.085925 
L 304.541681 -291.324841 
L 307.92837 -287.338817 
L 311.31506 -289.641853 
L 314.70175 -286.940214 
L 318.088439 -285.85513 
L 321.475129 -298.610406 
L 324.861818 -300.824864 
L 328.248508 -310.125587 
L 331.635198 -315.551008 
L 335.021887 -316.879683 
L 338.408577 -297.171009 
L 341.795267 -245.769016 
L 345.181956 -175.736791 
L 348.568646 -107.310048 
L 351.955335 -66.279468 
L 351.955335 -66.056516 
L 351.955335 -66.056516 
L 348.568646 -106.455843 
L 345.181956 -174.371667 
L 341.795267 -244.030003 
L 338.408577 -295.202245 
L 335.021887 -314.829671 
L 331.635198 -313.506355 
L 328.248508 -308.103012 
L 324.861818 -298.840821 
L 321.475129 -296.635597 
L 318.088439 -283.934597 
L 314.70175 -285.015031 
L 311.31506 -287.705022 
L 307.92837 -285.411928 
L 304.541681 -289.380857 
L 301.154991 -294.121701 
L 297.768301 -292.578157 
L 294.381612 -297.495604 
L 290.994922 -297.892546 
L 287.608233 -297.672008 
L 284.221543 -299.303908 
L 280.834853 -300.494689 
L 277.448164 -300.560834 
L 274.061474 -300.274195 
L 270.674784 -299.943421 
L 267.288095 -306.669527 
L 263.901405 -305.699196 
L 260.514716 -303.560052 
L 257.128026 -302.457362 
L 253.741336 -303.449749 
L 250.354647 -300.296207 
L 246.967957 -297.848478 
L 243.581267 -296.12842 
L 240.194578 -297.208987 
L 236.807888 -294.474552 
L 233.421199 -294.386328 
L 230.034509 -291.100804 
L 226.647819 -287.043585 
L 223.26113 -286.382016 
L 219.87444 -288.74141 
L 216.48775 -287.043519 
L 213.101061 -288.873724 
L 209.714371 -289.204409 
L 206.327682 -298.973135 
L 202.940992 -307.176748 
L 199.554302 -314.741424 
L 196.167613 -311.763997 
L 192.780923 -292.159248 
L 189.394233 -245.083465 
L 186.007544 -176.165532 
L 182.620854 -105.488811 
L 179.234165 -65.483344 
z
" style="stroke: #d3d3d3"/>
    </defs>
    <g clip-path="url(#p0363aa0874)">
     <use xlink:href="#mcb054ce83d" x="0" y="345.6" style="fill: #d3d3d3; stroke: #d3d3d3"/>
    </g>
   </g>
   <g id="PolyCollection_3">
    <defs>
     <path id="me890994a20" d="M 165.687406 -79.817371 
L 165.687406 -79.982532 
L 169.074096 -129.55649 
L 172.460785 -176.979102 
L 175.847475 -214.733392 
L 179.234165 -239.515388 
L 182.620854 -256.418344 
L 186.007544 -267.789584 
L 189.394233 -272.140993 
L 192.780923 -273.429808 
L 196.167613 -273.671184 
L 199.554302 -269.472572 
L 202.940992 -265.262888 
L 206.327682 -262.195864 
L 209.714371 -261.407517 
L 213.101061 -260.765324 
L 216.48775 -259.914972 
L 219.87444 -260.517305 
L 223.26113 -259.744459 
L 226.647819 -260.90262 
L 230.034509 -261.981061 
L 233.421199 -262.379664 
L 236.807888 -262.167076 
L 240.194578 -262.125001 
L 243.581267 -261.706469 
L 246.967957 -263.462534 
L 250.354647 -262.782695 
L 253.741336 -262.636541 
L 257.128026 -263.070575 
L 260.514716 -262.977567 
L 263.901405 -263.854493 
L 267.288095 -262.609967 
L 270.674784 -262.979782 
L 274.061474 -262.665329 
L 277.448164 -261.872553 
L 280.834853 -262.665329 
L 284.221543 -263.400529 
L 287.608233 -262.503673 
L 290.994922 -262.49703 
L 294.381612 -262.051924 
L 297.768301 -261.850408 
L 301.154991 -261.888054 
L 304.541681 -260.561594 
L 307.92837 -261.502738 
L 311.31506 -259.562874 
L 314.70175 -260.756466 
L 318.088439 -260.501804 
L 321.475129 -261.549242 
L 324.861818 -263.274305 
L 328.248508 -267.388767 
L 331.635198 -270.745885 
L 335.021887 -272.882837 
L 338.408577 -273.759762 
L 341.795267 -271.892974 
L 345.181956 -267.127461 
L 348.568646 -257.284197 
L 351.955335 -239.280655 
L 355.342025 -214.483158 
L 358.728715 -176.542854 
L 362.115404 -129.485627 
L 365.502094 -79.961273 
L 365.502094 -79.796217 
L 365.502094 -79.796217 
L 362.115404 -129.156802 
L 358.728715 -176.112762 
L 355.342025 -213.986233 
L 351.955335 -238.744513 
L 348.568646 -256.721304 
L 345.181956 -266.550462 
L 341.795267 -271.309287 
L 338.408577 -273.173462 
L 335.021887 -272.297755 
L 331.635198 -270.163793 
L 328.248508 -266.811414 
L 324.861818 -262.702797 
L 321.475129 -260.980193 
L 318.088439 -259.93426 
L 314.70175 -260.188569 
L 311.31506 -258.996681 
L 307.92837 -260.933756 
L 304.541681 -259.993962 
L 301.154991 -261.318518 
L 297.768301 -261.280938 
L 294.381612 -261.482166 
L 290.994922 -261.92663 
L 287.608233 -261.933273 
L 284.221543 -262.828844 
L 280.834853 -262.094685 
L 277.448164 -261.303039 
L 274.061474 -262.094685 
L 270.674784 -262.408695 
L 267.288095 -262.039412 
L 263.901405 -263.282144 
L 260.514716 -262.406481 
L 257.128026 -262.499355 
L 253.741336 -262.065942 
L 250.354647 -262.211874 
L 246.967957 -262.890761 
L 243.581267 -261.137198 
L 240.194578 -261.555133 
L 236.807888 -261.597141 
L 233.421199 -261.809441 
L 230.034509 -261.411392 
L 226.647819 -260.334501 
L 223.26113 -259.178023 
L 219.87444 -259.949739 
L 216.48775 -259.34827 
L 213.101061 -260.197404 
L 209.714371 -260.838689 
L 206.327682 -261.625884 
L 202.940992 -264.688546 
L 199.554302 -268.892273 
L 196.167613 -273.084995 
L 192.780923 -272.843973 
L 189.394233 -271.556952 
L 186.007544 -267.211655 
L 182.620854 -255.856713 
L 179.234165 -238.978891 
L 175.847475 -214.236046 
L 172.460785 -176.548191 
L 169.074096 -129.227488 
L 165.687406 -79.817371 
z
" style="stroke: #d3d3d3"/>
    </defs>
    <g clip-path="url(#p0363aa0874)">
     <use xlink:href="#me890994a20" x="0" y="345.6" style="fill: #d3d3d3; stroke: #d3d3d3"/>
    </g>
   </g>
   <g id="PolyCollection_4">
    <defs>
     <path id="m9e5d68b9de" d="M 175.847475 -64.757577 
L 175.847475 -64.820251 
L 179.234165 -83.242435 
L 182.620854 -123.967199 
L 186.007544 -176.290406 
L 189.394233 -223.693087 
L 192.780923 -258.809958 
L 196.167613 -280.888101 
L 199.554302 -290.970527 
L 202.940992 -293.339997 
L 206.327682 -294.75725 
L 209.714371 -295.643033 
L 213.101061 -294.026479 
L 216.48775 -294.425081 
L 219.87444 -296.041635 
L 223.26113 -296.130214 
L 226.647819 -298.123226 
L 230.034509 -301.024165 
L 233.421199 -301.865659 
L 236.807888 -304.523009 
L 240.194578 -306.449587 
L 243.581267 -306.427442 
L 246.967957 -308.39831 
L 250.354647 -308.686189 
L 253.741336 -309.239803 
L 257.128026 -309.594117 
L 260.514716 -310.214165 
L 263.901405 -311.055659 
L 267.288095 -312.738647 
L 270.674784 -310.922791 
L 274.061474 -308.376165 
L 277.448164 -309.284093 
L 280.834853 -307.86684 
L 284.221543 -308.154719 
L 287.608233 -304.655876 
L 290.994922 -306.981057 
L 294.381612 -305.20949 
L 297.768301 -303.349346 
L 301.154991 -302.131394 
L 304.541681 -301.04631 
L 307.92837 -298.455394 
L 311.31506 -296.617394 
L 314.70175 -293.849322 
L 318.088439 -295.82019 
L 321.475129 -294.314358 
L 324.861818 -294.048624 
L 328.248508 -293.096407 
L 331.635198 -291.191973 
L 335.021887 -280.017819 
L 338.408577 -259.383502 
L 341.795267 -222.585859 
L 345.181956 -174.994948 
L 348.568646 -123.83876 
L 351.955335 -83.00261 
L 355.342025 -64.858517 
L 355.342025 -64.79507 
L 355.342025 -64.79507 
L 351.955335 -82.778352 
L 348.568646 -123.445782 
L 345.181956 -174.461197 
L 341.795267 -221.948471 
L 338.408577 -258.676338 
L 335.021887 -279.274382 
L 331.635198 -290.429602 
L 328.248508 -292.330847 
L 324.861818 -293.281513 
L 321.475129 -293.546805 
L 318.088439 -295.050112 
L 314.70175 -293.082522 
L 311.31506 -295.84601 
L 307.92837 -297.680999 
L 304.541681 -300.267618 
L 301.154991 -301.350953 
L 297.768301 -302.566912 
L 294.381612 -304.424 
L 290.994922 -306.192732 
L 287.608233 -303.871316 
L 284.221543 -307.36449 
L 280.834853 -307.077075 
L 277.448164 -308.492025 
L 274.061474 -307.585581 
L 270.674784 -310.128133 
L 267.288095 -311.941065 
L 263.901405 -310.260757 
L 260.514716 -309.420636 
L 257.128026 -308.801584 
L 253.741336 -308.447825 
L 250.354647 -307.895096 
L 246.967957 -307.607682 
L 243.581267 -305.640003 
L 240.194578 -305.662126 
L 236.807888 -303.738648 
L 233.421199 -301.085639 
L 230.034509 -300.245518 
L 226.647819 -297.349361 
L 223.26113 -295.359649 
L 219.87444 -295.271203 
L 216.48775 -293.657329 
L 213.101061 -293.259391 
L 209.714371 -294.873265 
L 206.327682 -293.988944 
L 202.940992 -292.574038 
L 199.554302 -290.20851 
L 196.167613 -280.143158 
L 192.780923 -258.103812 
L 189.394233 -223.053508 
L 186.007544 -175.753577 
L 182.620854 -123.5738 
L 179.234165 -83.016804 
L 175.847475 -64.757577 
z
" style="stroke: #d3d3d3"/>
    </defs>
    <g clip-path="url(#p0363aa0874)">
     <use xlink:href="#m9e5d68b9de" x="0" y="345.6" style="fill: #d3d3d3; stroke: #d3d3d3"/>
    </g>
   </g>
   <g id="matplotlib.axis_1">
    <g id="xtick_1">
     <g id="line2d_1">
      <path d="M 96.260269 295 
L 96.260269 16.040333 
" clip-path="url(#p0363aa0874)" style="fill: none; stroke: #b0b0b0; stroke-opacity: 0.3; stroke-width: 0.8; stroke-linecap: square"/>
     </g>
     <g id="line2d_2">
      <defs>
       <path id="m6e4e4490da" d="M 0 0 
L 0 3.5 
" style="stroke: #000000; stroke-width: 0.8"/>
      </defs>
      <g>
       <use xlink:href="#m6e4e4490da" x="96.260269" y="295" style="stroke: #000000; stroke-width: 0.8"/>
      </g>
     </g>
     <g id="text_1">
      <!-- −10 -->
      <g transform="translate(80.431753 313.397656) scale(0.15 -0.15)">
       <defs>
        <path id="DejaVuSans-2212" d="M 678 2272 
L 4684 2272 
L 4684 1741 
L 678 1741 
L 678 2272 
z
" transform="scale(0.015625)"/>
        <path id="DejaVuSans-31" d="M 794 531 
L 1825 531 
L 1825 4091 
L 703 3866 
L 703 4441 
L 1819 4666 
L 2450 4666 
L 2450 531 
L 3481 531 
L 3481 0 
L 794 0 
L 794 531 
z
" transform="scale(0.015625)"/>
        <path id="DejaVuSans-30" d="M 2034 4250 
Q 1547 4250 1301 3770 
Q 1056 3291 1056 2328 
Q 1056 1369 1301 889 
Q 1547 409 2034 409 
Q 2525 409 2770 889 
Q 3016 1369 3016 2328 
Q 3016 3291 2770 3770 
Q 2525 4250 2034 4250 
z
M 2034 4750 
Q 2819 4750 3233 4129 
Q 3647 3509 3647 2328 
Q 3647 1150 3233 529 
Q 2819 -91 2034 -91 
Q 1250 -91 836 529 
Q 422 1150 422 2328 
Q 422 3509 836 4129 
Q 1250 4750 2034 4750 
z
" transform="scale(0.015625)"/>
       </defs>
       <use xlink:href="#DejaVuSans-2212"/>
       <use xlink:href="#DejaVuSans-31" x="83.789062"/>
       <use xlink:href="#DejaVuSans-30" x="147.412109"/>
      </g>
     </g>
    </g>
    <g id="xtick_2">
     <g id="line2d_3">
      <path d="M 180.927509 295 
L 180.927509 16.040333 
" clip-path="url(#p0363aa0874)" style="fill: none; stroke: #b0b0b0; stroke-opacity: 0.3; stroke-width: 0.8; stroke-linecap: square"/>
     </g>
     <g id="line2d_4">
      <g>
       <use xlink:href="#m6e4e4490da" x="180.927509" y="295" style="stroke: #000000; stroke-width: 0.8"/>
      </g>
     </g>
     <g id="text_2">
      <!-- −5 -->
      <g transform="translate(169.870869 313.397656) scale(0.15 -0.15)">
       <defs>
        <path id="DejaVuSans-35" d="M 691 4666 
L 3169 4666 
L 3169 4134 
L 1269 4134 
L 1269 2991 
Q 1406 3038 1543 3061 
Q 1681 3084 1819 3084 
Q 2600 3084 3056 2656 
Q 3513 2228 3513 1497 
Q 3513 744 3044 326 
Q 2575 -91 1722 -91 
Q 1428 -91 1123 -41 
Q 819 9 494 109 
L 494 744 
Q 775 591 1075 516 
Q 1375 441 1709 441 
Q 2250 441 2565 725 
Q 2881 1009 2881 1497 
Q 2881 1984 2565 2268 
Q 2250 2553 1709 2553 
Q 1456 2553 1204 2497 
Q 953 2441 691 2322 
L 691 4666 
z
" transform="scale(0.015625)"/>
       </defs>
       <use xlink:href="#DejaVuSans-2212"/>
       <use xlink:href="#DejaVuSans-35" x="83.789062"/>
      </g>
     </g>
    </g>
    <g id="xtick_3">
     <g id="line2d_5">
      <path d="M 265.59475 295 
L 265.59475 16.040333 
" clip-path="url(#p0363aa0874)" style="fill: none; stroke: #b0b0b0; stroke-opacity: 0.3; stroke-width: 0.8; stroke-linecap: square"/>
     </g>
     <g id="line2d_6">
      <g>
       <use xlink:href="#m6e4e4490da" x="265.59475" y="295" style="stroke: #000000; stroke-width: 0.8"/>
      </g>
     </g>
     <g id="text_3">
      <!-- 0 -->
      <g transform="translate(260.822875 313.397656) scale(0.15 -0.15)">
       <use xlink:href="#DejaVuSans-30"/>
      </g>
     </g>
    </g>
    <g id="xtick_4">
     <g id="line2d_7">
      <path d="M 350.261991 295 
L 350.261991 16.040333 
" clip-path="url(#p0363aa0874)" style="fill: none; stroke: #b0b0b0; stroke-opacity: 0.3; stroke-width: 0.8; stroke-linecap: square"/>
     </g>
     <g id="line2d_8">
      <g>
       <use xlink:href="#m6e4e4490da" x="350.261991" y="295" style="stroke: #000000; stroke-width: 0.8"/>
      </g>
     </g>
     <g id="text_4">
      <!-- 5 -->
      <g transform="translate(345.490116 313.397656) scale(0.15 -0.15)">
       <use xlink:href="#DejaVuSans-35"/>
      </g>
     </g>
    </g>
    <g id="xtick_5">
     <g id="line2d_9">
      <path d="M 434.929231 295 
L 434.929231 16.040333 
" clip-path="url(#p0363aa0874)" style="fill: none; stroke: #b0b0b0; stroke-opacity: 0.3; stroke-width: 0.8; stroke-linecap: square"/>
     </g>
     <g id="line2d_10">
      <g>
       <use xlink:href="#m6e4e4490da" x="434.929231" y="295" style="stroke: #000000; stroke-width: 0.8"/>
      </g>
     </g>
     <g id="text_5">
      <!-- 10 -->
      <g transform="translate(425.385481 313.397656) scale(0.15 -0.15)">
       <use xlink:href="#DejaVuSans-31"/>
       <use xlink:href="#DejaVuSans-30" x="63.623047"/>
      </g>
     </g>
    </g>
    <g id="text_6">
     <!-- y -->
     <g transform="translate(261.155687 331.914844) scale(0.15 -0.15)">
      <defs>
       <path id="DejaVuSans-79" d="M 2059 -325 
Q 1816 -950 1584 -1140 
Q 1353 -1331 966 -1331 
L 506 -1331 
L 506 -850 
L 844 -850 
Q 1081 -850 1212 -737 
Q 1344 -625 1503 -206 
L 1606 56 
L 191 3500 
L 800 3500 
L 1894 763 
L 2988 3500 
L 3597 3500 
L 2059 -325 
z
" transform="scale(0.015625)"/>
      </defs>
      <use xlink:href="#DejaVuSans-79"/>
     </g>
    </g>
   </g>
   <g id="matplotlib.axis_2">
    <g id="ytick_1">
     <g id="line2d_11">
      <path d="M 81.1895 282.320015 
L 450 282.320015 
" clip-path="url(#p0363aa0874)" style="fill: none; stroke: #b0b0b0; stroke-opacity: 0.3; stroke-width: 0.8; stroke-linecap: square"/>
     </g>
     <g id="line2d_12">
      <defs>
       <path id="m2042897e91" d="M 0 0 
L -3.5 0 
" style="stroke: #000000; stroke-width: 0.8"/>
      </defs>
      <g>
       <use xlink:href="#m2042897e91" x="81.1895" y="282.320015" style="stroke: #000000; stroke-width: 0.8"/>
      </g>
     </g>
     <g id="text_7">
      <!-- 0.00 -->
      <g transform="translate(40.791063 288.018843) scale(0.15 -0.15)">
       <defs>
        <path id="DejaVuSans-2e" d="M 684 794 
L 1344 794 
L 1344 0 
L 684 0 
L 684 794 
z
" transform="scale(0.015625)"/>
       </defs>
       <use xlink:href="#DejaVuSans-30"/>
       <use xlink:href="#DejaVuSans-2e" x="63.623047"/>
       <use xlink:href="#DejaVuSans-30" x="95.410156"/>
       <use xlink:href="#DejaVuSans-30" x="159.033203"/>
      </g>
     </g>
    </g>
    <g id="ytick_2">
     <g id="line2d_13">
      <path d="M 81.1895 238.030861 
L 450 238.030861 
" clip-path="url(#p0363aa0874)" style="fill: none; stroke: #b0b0b0; stroke-opacity: 0.3; stroke-width: 0.8; stroke-linecap: square"/>
     </g>
     <g id="line2d_14">
      <g>
       <use xlink:href="#m2042897e91" x="81.1895" y="238.030861" style="stroke: #000000; stroke-width: 0.8"/>
      </g>
     </g>
     <g id="text_8">
      <!-- 0.02 -->
      <g transform="translate(40.791063 243.729689) scale(0.15 -0.15)">
       <defs>
        <path id="DejaVuSans-32" d="M 1228 531 
L 3431 531 
L 3431 0 
L 469 0 
L 469 531 
Q 828 903 1448 1529 
Q 2069 2156 2228 2338 
Q 2531 2678 2651 2914 
Q 2772 3150 2772 3378 
Q 2772 3750 2511 3984 
Q 2250 4219 1831 4219 
Q 1534 4219 1204 4116 
Q 875 4013 500 3803 
L 500 4441 
Q 881 4594 1212 4672 
Q 1544 4750 1819 4750 
Q 2544 4750 2975 4387 
Q 3406 4025 3406 3419 
Q 3406 3131 3298 2873 
Q 3191 2616 2906 2266 
Q 2828 2175 2409 1742 
Q 1991 1309 1228 531 
z
" transform="scale(0.015625)"/>
       </defs>
       <use xlink:href="#DejaVuSans-30"/>
       <use xlink:href="#DejaVuSans-2e" x="63.623047"/>
       <use xlink:href="#DejaVuSans-30" x="95.410156"/>
       <use xlink:href="#DejaVuSans-32" x="159.033203"/>
      </g>
     </g>
    </g>
    <g id="ytick_3">
     <g id="line2d_15">
      <path d="M 81.1895 193.741706 
L 450 193.741706 
" clip-path="url(#p0363aa0874)" style="fill: none; stroke: #b0b0b0; stroke-opacity: 0.3; stroke-width: 0.8; stroke-linecap: square"/>
     </g>
     <g id="line2d_16">
      <g>
       <use xlink:href="#m2042897e91" x="81.1895" y="193.741706" style="stroke: #000000; stroke-width: 0.8"/>
      </g>
     </g>
     <g id="text_9">
      <!-- 0.04 -->
      <g transform="translate(40.791063 199.440535) scale(0.15 -0.15)">
       <defs>
        <path id="DejaVuSans-34" d="M 2419 4116 
L 825 1625 
L 2419 1625 
L 2419 4116 
z
M 2253 4666 
L 3047 4666 
L 3047 1625 
L 3713 1625 
L 3713 1100 
L 3047 1100 
L 3047 0 
L 2419 0 
L 2419 1100 
L 313 1100 
L 313 1709 
L 2253 4666 
z
" transform="scale(0.015625)"/>
       </defs>
       <use xlink:href="#DejaVuSans-30"/>
       <use xlink:href="#DejaVuSans-2e" x="63.623047"/>
       <use xlink:href="#DejaVuSans-30" x="95.410156"/>
       <use xlink:href="#DejaVuSans-34" x="159.033203"/>
      </g>
     </g>
    </g>
    <g id="ytick_4">
     <g id="line2d_17">
      <path d="M 81.1895 149.452552 
L 450 149.452552 
" clip-path="url(#p0363aa0874)" style="fill: none; stroke: #b0b0b0; stroke-opacity: 0.3; stroke-width: 0.8; stroke-linecap: square"/>
     </g>
     <g id="line2d_18">
      <g>
       <use xlink:href="#m2042897e91" x="81.1895" y="149.452552" style="stroke: #000000; stroke-width: 0.8"/>
      </g>
     </g>
     <g id="text_10">
      <!-- 0.06 -->
      <g transform="translate(40.791063 155.15138) scale(0.15 -0.15)">
       <defs>
        <path id="DejaVuSans-36" d="M 2113 2584 
Q 1688 2584 1439 2293 
Q 1191 2003 1191 1497 
Q 1191 994 1439 701 
Q 1688 409 2113 409 
Q 2538 409 2786 701 
Q 3034 994 3034 1497 
Q 3034 2003 2786 2293 
Q 2538 2584 2113 2584 
z
M 3366 4563 
L 3366 3988 
Q 3128 4100 2886 4159 
Q 2644 4219 2406 4219 
Q 1781 4219 1451 3797 
Q 1122 3375 1075 2522 
Q 1259 2794 1537 2939 
Q 1816 3084 2150 3084 
Q 2853 3084 3261 2657 
Q 3669 2231 3669 1497 
Q 3669 778 3244 343 
Q 2819 -91 2113 -91 
Q 1303 -91 875 529 
Q 447 1150 447 2328 
Q 447 3434 972 4092 
Q 1497 4750 2381 4750 
Q 2619 4750 2861 4703 
Q 3103 4656 3366 4563 
z
" transform="scale(0.015625)"/>
       </defs>
       <use xlink:href="#DejaVuSans-30"/>
       <use xlink:href="#DejaVuSans-2e" x="63.623047"/>
       <use xlink:href="#DejaVuSans-30" x="95.410156"/>
       <use xlink:href="#DejaVuSans-36" x="159.033203"/>
      </g>
     </g>
    </g>
    <g id="ytick_5">
     <g id="line2d_19">
      <path d="M 81.1895 105.163398 
L 450 105.163398 
" clip-path="url(#p0363aa0874)" style="fill: none; stroke: #b0b0b0; stroke-opacity: 0.3; stroke-width: 0.8; stroke-linecap: square"/>
     </g>
     <g id="line2d_20">
      <g>
       <use xlink:href="#m2042897e91" x="81.1895" y="105.163398" style="stroke: #000000; stroke-width: 0.8"/>
      </g>
     </g>
     <g id="text_11">
      <!-- 0.08 -->
      <g transform="translate(40.791063 110.862226) scale(0.15 -0.15)">
       <defs>
        <path id="DejaVuSans-38" d="M 2034 2216 
Q 1584 2216 1326 1975 
Q 1069 1734 1069 1313 
Q 1069 891 1326 650 
Q 1584 409 2034 409 
Q 2484 409 2743 651 
Q 3003 894 3003 1313 
Q 3003 1734 2745 1975 
Q 2488 2216 2034 2216 
z
M 1403 2484 
Q 997 2584 770 2862 
Q 544 3141 544 3541 
Q 544 4100 942 4425 
Q 1341 4750 2034 4750 
Q 2731 4750 3128 4425 
Q 3525 4100 3525 3541 
Q 3525 3141 3298 2862 
Q 3072 2584 2669 2484 
Q 3125 2378 3379 2068 
Q 3634 1759 3634 1313 
Q 3634 634 3220 271 
Q 2806 -91 2034 -91 
Q 1263 -91 848 271 
Q 434 634 434 1313 
Q 434 1759 690 2068 
Q 947 2378 1403 2484 
z
M 1172 3481 
Q 1172 3119 1398 2916 
Q 1625 2713 2034 2713 
Q 2441 2713 2670 2916 
Q 2900 3119 2900 3481 
Q 2900 3844 2670 4047 
Q 2441 4250 2034 4250 
Q 1625 4250 1398 4047 
Q 1172 3844 1172 3481 
z
" transform="scale(0.015625)"/>
       </defs>
       <use xlink:href="#DejaVuSans-30"/>
       <use xlink:href="#DejaVuSans-2e" x="63.623047"/>
       <use xlink:href="#DejaVuSans-30" x="95.410156"/>
       <use xlink:href="#DejaVuSans-38" x="159.033203"/>
      </g>
     </g>
    </g>
    <g id="ytick_6">
     <g id="line2d_21">
      <path d="M 81.1895 60.874243 
L 450 60.874243 
" clip-path="url(#p0363aa0874)" style="fill: none; stroke: #b0b0b0; stroke-opacity: 0.3; stroke-width: 0.8; stroke-linecap: square"/>
     </g>
     <g id="line2d_22">
      <g>
       <use xlink:href="#m2042897e91" x="81.1895" y="60.874243" style="stroke: #000000; stroke-width: 0.8"/>
      </g>
     </g>
     <g id="text_12">
      <!-- 0.10 -->
      <g transform="translate(40.791063 66.573072) scale(0.15 -0.15)">
       <use xlink:href="#DejaVuSans-30"/>
       <use xlink:href="#DejaVuSans-2e" x="63.623047"/>
       <use xlink:href="#DejaVuSans-31" x="95.410156"/>
       <use xlink:href="#DejaVuSans-30" x="159.033203"/>
      </g>
     </g>
    </g>
    <g id="ytick_7">
     <g id="line2d_23">
      <path d="M 81.1895 16.585089 
L 450 16.585089 
" clip-path="url(#p0363aa0874)" style="fill: none; stroke: #b0b0b0; stroke-opacity: 0.3; stroke-width: 0.8; stroke-linecap: square"/>
     </g>
     <g id="line2d_24">
      <g>
       <use xlink:href="#m2042897e91" x="81.1895" y="16.585089" style="stroke: #000000; stroke-width: 0.8"/>
      </g>
     </g>
     <g id="text_13">
      <!-- 0.12 -->
      <g transform="translate(40.791063 22.283917) scale(0.15 -0.15)">
       <use xlink:href="#DejaVuSans-30"/>
       <use xlink:href="#DejaVuSans-2e" x="63.623047"/>
       <use xlink:href="#DejaVuSans-31" x="95.410156"/>
       <use xlink:href="#DejaVuSans-32" x="159.033203"/>
      </g>
     </g>
    </g>
    <g id="text_14">
     <!-- $\frac{dN}{dy}$ -->
     <g transform="translate(28.391063 163.770166) rotate(-90) scale(0.15 -0.15)">
      <defs>
       <path id="DejaVuSans-Oblique-64" d="M 2675 525 
Q 2444 222 2128 65 
Q 1813 -91 1428 -91 
Q 903 -91 598 267 
Q 294 625 294 1247 
Q 294 1766 478 2236 
Q 663 2706 1013 3078 
Q 1244 3325 1534 3454 
Q 1825 3584 2144 3584 
Q 2481 3584 2739 3421 
Q 2997 3259 3138 2956 
L 3513 4863 
L 4091 4863 
L 3144 0 
L 2566 0 
L 2675 525 
z
M 891 1350 
Q 891 897 1095 644 
Q 1300 391 1663 391 
Q 1931 391 2161 520 
Q 2391 650 2566 903 
Q 2750 1166 2856 1509 
Q 2963 1853 2963 2188 
Q 2963 2622 2758 2865 
Q 2553 3109 2194 3109 
Q 1922 3109 1687 2981 
Q 1453 2853 1288 2613 
Q 1106 2353 998 2009 
Q 891 1666 891 1350 
z
" transform="scale(0.015625)"/>
       <path id="DejaVuSans-Oblique-4e" d="M 1081 4666 
L 1931 4666 
L 3219 666 
L 4000 4666 
L 4616 4666 
L 3706 0 
L 2853 0 
L 1569 4025 
L 788 0 
L 172 0 
L 1081 4666 
z
" transform="scale(0.015625)"/>
       <path id="DejaVuSans-Oblique-79" d="M 1588 -325 
Q 1188 -997 936 -1164 
Q 684 -1331 294 -1331 
L -159 -1331 
L -63 -850 
L 269 -850 
Q 509 -850 678 -719 
Q 847 -588 1056 -206 
L 1234 128 
L 459 3500 
L 1069 3500 
L 1650 819 
L 3256 3500 
L 3859 3500 
L 1588 -325 
z
" transform="scale(0.015625)"/>
      </defs>
      <use xlink:href="#DejaVuSans-Oblique-64" transform="translate(0 44.810938) scale(0.7)"/>
      <use xlink:href="#DejaVuSans-Oblique-4e" transform="translate(44.433594 44.810938) scale(0.7)"/>
      <use xlink:href="#DejaVuSans-Oblique-64" transform="translate(5 -40.623437) scale(0.7)"/>
      <use xlink:href="#DejaVuSans-Oblique-79" transform="translate(49.433594 -40.623437) scale(0.7)"/>
      <path d="M 0 18.815625 
L 0 25.065625 
L 96.796875 25.065625 
L 96.796875 18.815625 
L 0 18.815625 
z
"/>
     </g>
    </g>
   </g>
   <g id="line2d_25">
    <path d="M 97.953614 282.320015 
L 101.340303 282.320015 
L 104.726993 282.320015 
L 108.113683 282.320015 
L 111.500372 282.320015 
L 114.887062 282.320015 
L 118.273751 282.320015 
L 121.660441 282.320015 
L 125.047131 282.320015 
L 128.43382 282.320015 
L 131.82051 282.320015 
L 135.207199 282.320015 
L 138.593889 282.320015 
L 141.980579 282.175469 
L 145.367268 279.998378 
L 148.753958 275.436816 
L 152.140648 268.572662 
L 155.527337 258.359583 
L 158.914027 244.392998 
L 162.300716 226.389457 
L 165.687406 204.871571 
L 169.074096 180.767199 
L 172.460785 159.021224 
L 175.847475 138.851943 
L 179.234165 122.232438 
L 182.620854 108.026692 
L 186.007544 97.273285 
L 189.394233 88.918136 
L 192.780923 84.26556 
L 196.167613 81.067883 
L 199.554302 80.137811 
L 202.940992 80.784433 
L 206.327682 81.450985 
L 209.714371 82.983389 
L 213.101061 84.070688 
L 216.48775 86.473375 
L 219.87444 87.735616 
L 223.26113 88.005779 
L 226.647819 89.602403 
L 230.034509 90.120587 
L 233.421199 90.891218 
L 236.807888 92.928519 
L 240.194578 93.320478 
L 243.581267 94.341343 
L 246.967957 95.871533 
L 250.354647 96.879111 
L 253.741336 97.419439 
L 257.128026 98.205572 
L 260.514716 97.601025 
L 263.901405 97.446013 
L 267.288095 97.831328 
L 270.674784 98.838907 
L 274.061474 98.511167 
L 277.448164 97.118273 
L 280.834853 96.708598 
L 284.221543 95.915822 
L 287.608233 94.766519 
L 290.994922 93.566283 
L 294.381612 92.627353 
L 297.768301 92.366047 
L 301.154991 90.355319 
L 304.541681 89.797276 
L 307.92837 88.384452 
L 311.31506 87.29051 
L 314.70175 85.935261 
L 318.088439 84.608801 
L 321.475129 83.381992 
L 324.861818 80.926158 
L 328.248508 80.859724 
L 331.635198 80.507626 
L 335.021887 81.969168 
L 338.408577 84.143765 
L 341.795267 89.901355 
L 345.181956 97.636456 
L 348.568646 108.037764 
L 351.955335 121.765187 
L 355.342025 139.000312 
L 358.728715 158.168658 
L 362.115404 181.351816 
L 365.502094 204.944648 
L 368.888784 226.249946 
L 372.275473 244.541366 
L 375.662163 258.397228 
L 379.048852 268.595913 
L 382.435542 275.404264 
L 385.822232 279.932608 
L 389.208921 282.165577 
L 392.595611 282.320015 
L 395.982301 282.320015 
L 399.36899 282.320015 
L 402.75568 282.320015 
L 406.142369 282.320015 
L 409.529059 282.320015 
L 412.915749 282.320015 
L 416.302438 282.320015 
L 419.689128 282.320015 
L 423.075817 282.320015 
L 426.462507 282.320015 
L 429.849197 282.320015 
L 433.235886 282.320015 
" clip-path="url(#p0363aa0874)" style="fill: none; stroke: #cd853f; stroke-width: 1.5; stroke-linecap: square"/>
   </g>
   <g id="line2d_26">
    <path d="M 97.953614 282.320015 
L 101.340303 282.320015 
L 104.726993 282.320015 
L 108.113683 282.320015 
L 111.500372 282.320015 
L 114.887062 282.320015 
L 118.273751 282.320015 
L 121.660441 282.320015 
L 125.047131 282.320015 
L 128.43382 282.320015 
L 131.82051 282.320015 
L 135.207199 282.320015 
L 138.593889 282.320015 
L 141.980579 282.320015 
L 145.367268 282.320015 
L 148.753958 282.320015 
L 152.140648 282.320015 
L 155.527337 282.320015 
L 158.914027 282.320015 
L 162.300716 282.320015 
L 165.687406 282.320015 
L 169.074096 282.320015 
L 172.460785 282.320015 
L 175.847475 282.320015 
L 179.234165 279.917107 
L 182.620854 239.266528 
L 186.007544 168.058426 
L 189.394233 98.772473 
L 192.780923 51.484943 
L 196.167613 31.798414 
L 199.554302 28.808896 
L 202.940992 36.404486 
L 206.327682 44.642268 
L 209.714371 54.452316 
L 213.101061 54.784485 
L 216.48775 56.622485 
L 219.87444 54.917352 
L 223.26113 57.286822 
L 226.647819 56.622485 
L 230.034509 52.547882 
L 233.421199 49.24834 
L 236.807888 49.159762 
L 240.194578 46.413835 
L 243.581267 47.498919 
L 246.967957 45.771642 
L 250.354647 43.313594 
L 253.741336 40.146919 
L 257.128026 41.143425 
L 260.514716 40.036196 
L 263.901405 37.888172 
L 267.288095 36.913811 
L 270.674784 43.667907 
L 274.061474 43.335738 
L 277.448164 43.047859 
L 280.834853 43.114293 
L 284.221543 44.3101 
L 287.608233 45.948798 
L 290.994922 45.727353 
L 294.381612 46.125955 
L 297.768301 51.064196 
L 301.154991 49.514075 
L 304.541681 54.275159 
L 307.92837 58.261183 
L 311.31506 55.958147 
L 314.70175 58.659786 
L 318.088439 59.74487 
L 321.475129 46.989594 
L 324.861818 44.775136 
L 328.248508 35.474413 
L 331.635198 30.048992 
L 335.021887 28.720317 
L 338.408577 48.428991 
L 341.795267 99.830984 
L 345.181956 169.863209 
L 348.568646 238.289952 
L 351.955335 279.320532 
L 355.342025 282.320015 
L 358.728715 282.320015 
L 362.115404 282.320015 
L 365.502094 282.320015 
L 368.888784 282.320015 
L 372.275473 282.320015 
L 375.662163 282.320015 
L 379.048852 282.320015 
L 382.435542 282.320015 
L 385.822232 282.320015 
L 389.208921 282.320015 
L 392.595611 282.320015 
L 395.982301 282.320015 
L 399.36899 282.320015 
L 402.75568 282.320015 
L 406.142369 282.320015 
L 409.529059 282.320015 
L 412.915749 282.320015 
L 416.302438 282.320015 
L 419.689128 282.320015 
L 423.075817 282.320015 
L 426.462507 282.320015 
L 429.849197 282.320015 
L 433.235886 282.320015 
" clip-path="url(#p0363aa0874)" style="fill: none; stroke: #b22222; stroke-width: 1.5; stroke-linecap: square"/>
   </g>
   <g id="line2d_27">
    <path d="M 97.953614 282.320015 
L 101.340303 282.320015 
L 104.726993 282.320015 
L 108.113683 282.320015 
L 111.500372 282.320015 
L 114.887062 282.320015 
L 118.273751 282.320015 
L 121.660441 282.320015 
L 125.047131 282.320015 
L 128.43382 282.320015 
L 131.82051 282.320015 
L 135.207199 282.320015 
L 138.593889 282.320015 
L 141.980579 282.320015 
L 145.367268 282.320015 
L 148.753958 282.320015 
L 152.140648 282.320015 
L 155.527337 282.320015 
L 158.914027 282.320015 
L 162.300716 282.320015 
L 165.687406 265.617468 
L 169.074096 216.04351 
L 172.460785 168.620898 
L 175.847475 130.866608 
L 179.234165 106.084612 
L 182.620854 89.181656 
L 186.007544 77.810416 
L 189.394233 73.459007 
L 192.780923 72.170192 
L 196.167613 71.928816 
L 199.554302 76.127428 
L 202.940992 80.337112 
L 206.327682 83.404136 
L 209.714371 84.192483 
L 213.101061 84.834676 
L 216.48775 85.685028 
L 219.87444 85.082695 
L 223.26113 85.855541 
L 226.647819 84.69738 
L 230.034509 83.618939 
L 233.421199 83.220336 
L 236.807888 83.432924 
L 240.194578 83.474999 
L 243.581267 83.893531 
L 246.967957 82.137466 
L 250.354647 82.817305 
L 253.741336 82.963459 
L 257.128026 82.529425 
L 260.514716 82.622433 
L 263.901405 81.745507 
L 267.288095 82.990033 
L 270.674784 82.620218 
L 274.061474 82.934671 
L 277.448164 83.727447 
L 280.834853 82.934671 
L 284.221543 82.199471 
L 287.608233 83.096327 
L 290.994922 83.10297 
L 294.381612 83.548076 
L 297.768301 83.749592 
L 301.154991 83.711946 
L 304.541681 85.038406 
L 307.92837 84.097262 
L 311.31506 86.037126 
L 314.70175 84.843534 
L 318.088439 85.098196 
L 321.475129 84.050758 
L 324.861818 82.325695 
L 328.248508 78.211233 
L 331.635198 74.854115 
L 335.021887 72.717163 
L 338.408577 71.840238 
L 341.795267 73.707026 
L 345.181956 78.472539 
L 348.568646 88.315803 
L 351.955335 106.319345 
L 355.342025 131.116842 
L 358.728715 169.057146 
L 362.115404 216.114373 
L 365.502094 265.638727 
L 368.888784 282.320015 
L 372.275473 282.320015 
L 375.662163 282.320015 
L 379.048852 282.320015 
L 382.435542 282.320015 
L 385.822232 282.320015 
L 389.208921 282.320015 
L 392.595611 282.320015 
L 395.982301 282.320015 
L 399.36899 282.320015 
L 402.75568 282.320015 
L 406.142369 282.320015 
L 409.529059 282.320015 
L 412.915749 282.320015 
L 416.302438 282.320015 
L 419.689128 282.320015 
L 423.075817 282.320015 
L 426.462507 282.320015 
L 429.849197 282.320015 
L 433.235886 282.320015 
" clip-path="url(#p0363aa0874)" style="fill: none; stroke: #483d8b; stroke-width: 1.5; stroke-linecap: square"/>
   </g>
   <g id="line2d_28">
    <path d="M 97.953614 282.320015 
L 101.340303 282.320015 
L 104.726993 282.320015 
L 108.113683 282.320015 
L 111.500372 282.320015 
L 114.887062 282.320015 
L 118.273751 282.320015 
L 121.660441 282.320015 
L 125.047131 282.320015 
L 128.43382 282.320015 
L 131.82051 282.320015 
L 135.207199 282.320015 
L 138.593889 282.320015 
L 141.980579 282.320015 
L 145.367268 282.320015 
L 148.753958 282.320015 
L 152.140648 282.320015 
L 155.527337 282.320015 
L 158.914027 282.320015 
L 162.300716 282.320015 
L 165.687406 282.320015 
L 169.074096 282.320015 
L 172.460785 282.320015 
L 175.847475 280.779749 
L 179.234165 262.357565 
L 182.620854 221.632801 
L 186.007544 169.309594 
L 189.394233 121.906913 
L 192.780923 86.790042 
L 196.167613 64.711899 
L 199.554302 54.629473 
L 202.940992 52.260003 
L 206.327682 50.84275 
L 209.714371 49.956967 
L 213.101061 51.573521 
L 216.48775 51.174919 
L 219.87444 49.558365 
L 223.26113 49.469786 
L 226.647819 47.476774 
L 230.034509 44.575835 
L 233.421199 43.734341 
L 236.807888 41.076991 
L 240.194578 39.150413 
L 243.581267 39.172558 
L 246.967957 37.20169 
L 250.354647 36.913811 
L 253.741336 36.360197 
L 257.128026 36.005883 
L 260.514716 35.385835 
L 263.901405 34.544341 
L 267.288095 32.861353 
L 270.674784 34.677209 
L 274.061474 37.223835 
L 277.448164 36.315907 
L 280.834853 37.73316 
L 284.221543 37.445281 
L 287.608233 40.944124 
L 290.994922 38.618943 
L 294.381612 40.39051 
L 297.768301 42.250654 
L 301.154991 43.468606 
L 304.541681 44.55369 
L 307.92837 47.144606 
L 311.31506 48.982606 
L 314.70175 51.750678 
L 318.088439 49.77981 
L 321.475129 51.285642 
L 324.861818 51.551376 
L 328.248508 52.503593 
L 331.635198 54.408027 
L 335.021887 65.582181 
L 338.408577 86.216498 
L 341.795267 123.014141 
L 345.181956 170.605052 
L 348.568646 221.76124 
L 351.955335 262.59739 
L 355.342025 280.741483 
L 358.728715 282.320015 
L 362.115404 282.320015 
L 365.502094 282.320015 
L 368.888784 282.320015 
L 372.275473 282.320015 
L 375.662163 282.320015 
L 379.048852 282.320015 
L 382.435542 282.320015 
L 385.822232 282.320015 
L 389.208921 282.320015 
L 392.595611 282.320015 
L 395.982301 282.320015 
L 399.36899 282.320015 
L 402.75568 282.320015 
L 406.142369 282.320015 
L 409.529059 282.320015 
L 412.915749 282.320015 
L 416.302438 282.320015 
L 419.689128 282.320015 
L 423.075817 282.320015 
L 426.462507 282.320015 
L 429.849197 282.320015 
L 433.235886 282.320015 
" clip-path="url(#p0363aa0874)" style="fill: none; stroke: #9932cc; stroke-width: 1.5; stroke-linecap: square"/>
   </g>
   <g id="patch_3">
    <path d="M 81.1895 295 
L 81.1895 16.040333 
" style="fill: none; stroke: #000000; stroke-width: 0.8; stroke-linejoin: miter; stroke-linecap: square"/>
   </g>
   <g id="patch_4">
    <path d="M 450 295 
L 450 16.040333 
" style="fill: none; stroke: #000000; stroke-width: 0.8; stroke-linejoin: miter; stroke-linecap: square"/>
   </g>
   <g id="patch_5">
    <path d="M 81.1895 295 
L 450 295 
" style="fill: none; stroke: #000000; stroke-width: 0.8; stroke-linejoin: miter; stroke-linecap: square"/>
   </g>
   <g id="patch_6">
    <path d="M 81.1895 16.040333 
L 450 16.040333 
" style="fill: none; stroke: #000000; stroke-width: 0.8; stroke-linejoin: miter; stroke-linecap: square"/>
   </g>
   <g id="legend_1">
    <g id="patch_7">
     <path d="M 373.5 116.109083 
L 439.5 116.109083 
Q 442.5 116.109083 442.5 113.109083 
L 442.5 26.540333 
Q 442.5 23.540333 439.5 23.540333 
L 373.5 23.540333 
Q 370.5 23.540333 370.5 26.540333 
L 370.5 113.109083 
Q 370.5 116.109083 373.5 116.109083 
z
" style="fill: #ffffff; opacity: 0.8; stroke: #cccccc; stroke-linejoin: miter"/>
    </g>
    <g id="line2d_29">
     <path d="M 376.5 35.687989 
L 391.5 35.687989 
L 406.5 35.687989 
" style="fill: none; stroke: #cd853f; stroke-width: 1.5; stroke-linecap: square"/>
    </g>
    <g id="text_15">
     <!-- $\pi^0$ -->
     <g transform="translate(418.5 40.937989) scale(0.15 -0.15)">
      <defs>
       <path id="DejaVuSans-Oblique-3c0" d="M 584 3500 
L 3938 3500 
L 3825 2925 
L 3384 2925 
L 2966 775 
Q 2922 550 2981 450 
Q 3038 353 3209 353 
Q 3256 353 3325 363 
Q 3397 369 3419 372 
L 3338 -44 
Q 3222 -84 3103 -103 
Q 2981 -122 2866 -122 
Q 2491 -122 2388 81 
Q 2284 288 2391 838 
L 2797 2925 
L 1506 2925 
L 938 0 
L 350 0 
L 919 2925 
L 472 2925 
L 584 3500 
z
" transform="scale(0.015625)"/>
      </defs>
      <use xlink:href="#DejaVuSans-Oblique-3c0" transform="translate(0 0.765625)"/>
      <use xlink:href="#DejaVuSans-30" transform="translate(64.671224 39.046875) scale(0.7)"/>
     </g>
    </g>
    <g id="line2d_30">
     <path d="M 376.5 57.705176 
L 391.5 57.705176 
L 406.5 57.705176 
" style="fill: none; stroke: #b22222; stroke-width: 1.5; stroke-linecap: square"/>
    </g>
    <g id="text_16">
     <!-- $\Delta^0$ -->
     <g transform="translate(418.5 62.955176) scale(0.15 -0.15)">
      <defs>
       <path id="DejaVuSans-394" d="M 2188 4044 
L 906 525 
L 3472 525 
L 2188 4044 
z
M 50 0 
L 1831 4666 
L 2547 4666 
L 4325 0 
L 50 0 
z
" transform="scale(0.015625)"/>
      </defs>
      <use xlink:href="#DejaVuSans-394" transform="translate(0 0.765625)"/>
      <use xlink:href="#DejaVuSans-30" transform="translate(69.365234 39.046875) scale(0.7)"/>
     </g>
    </g>
    <g id="line2d_31">
     <path d="M 376.5 79.722364 
L 391.5 79.722364 
L 406.5 79.722364 
" style="fill: none; stroke: #483d8b; stroke-width: 1.5; stroke-linecap: square"/>
    </g>
    <g id="text_17">
     <!-- $K^0$ -->
     <g transform="translate(418.5 84.972364) scale(0.15 -0.15)">
      <defs>
       <path id="DejaVuSans-Oblique-4b" d="M 1081 4666 
L 1716 4666 
L 1331 2700 
L 3781 4666 
L 4622 4666 
L 1850 2438 
L 3878 0 
L 3109 0 
L 1247 2272 
L 806 0 
L 172 0 
L 1081 4666 
z
" transform="scale(0.015625)"/>
      </defs>
      <use xlink:href="#DejaVuSans-Oblique-4b" transform="translate(0 0.765625)"/>
      <use xlink:href="#DejaVuSans-30" transform="translate(72.592943 39.046875) scale(0.7)"/>
     </g>
    </g>
    <g id="line2d_32">
     <path d="M 376.5 101.739551 
L 391.5 101.739551 
L 406.5 101.739551 
" style="fill: none; stroke: #9932cc; stroke-width: 1.5; stroke-linecap: square"/>
    </g>
    <g id="text_18">
     <!-- p -->
     <g transform="translate(418.5 106.989551) scale(0.15 -0.15)">
      <defs>
       <path id="DejaVuSans-70" d="M 1159 525 
L 1159 -1331 
L 581 -1331 
L 581 3500 
L 1159 3500 
L 1159 2969 
Q 1341 3281 1617 3432 
Q 1894 3584 2278 3584 
Q 2916 3584 3314 3078 
Q 3713 2572 3713 1747 
Q 3713 922 3314 415 
Q 2916 -91 2278 -91 
Q 1894 -91 1617 61 
Q 1341 213 1159 525 
z
M 3116 1747 
Q 3116 2381 2855 2742 
Q 2594 3103 2138 3103 
Q 1681 3103 1420 2742 
Q 1159 2381 1159 1747 
Q 1159 1113 1420 752 
Q 1681 391 2138 391 
Q 2594 391 2855 752 
Q 3116 1113 3116 1747 
z
" transform="scale(0.015625)"/>
      </defs>
      <use xlink:href="#DejaVuSans-70"/>
     </g>
    </g>
   </g>
  </g>
 </g>
 <defs>
  <clipPath id="p0363aa0874">
   <rect x="81.1895" y="16.040333" width="368.8105" height="278.959667"/>
  </clipPath>
 </defs>
</svg>
