<?xml version="1.0" encoding="utf-8" standalone="no"?>
<!DOCTYPE svg PUBLIC "-//W3C//DTD SVG 1.1//EN"
  "http://www.w3.org/Graphics/SVG/1.1/DTD/svg11.dtd">
<svg xmlns:xlink="http://www.w3.org/1999/xlink" width="460.8pt" height="345.6pt" viewBox="0 0 460.8 345.6" xmlns="http://www.w3.org/2000/svg" version="1.1">
 <metadata>
  <rdf:RDF xmlns:dc="http://purl.org/dc/elements/1.1/" xmlns:cc="http://creativecommons.org/ns#" xmlns:rdf="http://www.w3.org/1999/02/22-rdf-syntax-ns#">
   <cc:Work>
    <dc:type rdf:resource="http://purl.org/dc/dcmitype/StillImage"/>
    <dc:date>2025-10-27T20:27:28.518930</dc:date>
    <dc:format>image/svg+xml</dc:format>
    <dc:creator>
     <cc:Agent>
      <dc:title>Matplotlib v3.6.3, https://matplotlib.org/</dc:title>
     </cc:Agent>
    </dc:creator>
   </cc:Work>
  </rdf:RDF>
 </metadata>
 <defs>
  <style type="text/css">*{stroke-linejoin: round; stroke-linecap: butt}</style>
 </defs>
 <g id="figure_1">
  <g id="patch_1">
   <path d="M 0 345.6 
L 460.8 345.6 
L 460.8 0 
L 0 0 
z
" style="fill: #ffffff"/>
  </g>
  <g id="axes_1">
   <g id="patch_2">
    <path d="M 57.6 307.584 
L 414.72 307.584 
L 414.72 41.472 
L 57.6 41.472 
z
" style="fill: #ffffff"/>
   </g>
   <g id="PolyCollection_1">
    <defs>
     <path id="m334f016832" d="M 73.832727 -50.112 
L 73.832727 -50.112 
L 77.112066 -50.112 
L 80.391405 -50.112 
L 83.670744 -50.112 
L 86.950083 -50.112 
L 90.229421 -50.112 
L 93.50876 -50.112 
L 96.788099 -50.112 
L 100.067438 -50.112 
L 103.346777 -50.112 
L 106.626116 -50.112 
L 109.905455 -50.112 
L 113.184793 -50.112 
L 116.464132 -50.125413 
L 119.743471 -50.529218 
L 123.02281 -51.757647 
L 126.302149 -54.056036 
L 129.581488 -57.826636 
L 132.860826 -63.566277 
L 136.140165 -71.216471 
L 139.419504 -81.678074 
L 142.698843 -97.32379 
L 145.978182 -120.298887 
L 149.257521 -160.786194 
L 152.53686 -203.394329 
L 155.816198 -239.563013 
L 159.095537 -267.429084 
L 162.374876 -284.474717 
L 165.654215 -292.032 
L 168.933554 -291.515975 
L 172.212893 -286.72193 
L 175.492231 -280.263264 
L 178.77157 -274.470418 
L 182.050909 -269.493213 
L 185.330248 -265.631292 
L 188.609587 -262.235451 
L 191.888926 -259.655276 
L 195.168264 -257.507897 
L 198.447603 -254.861129 
L 201.726942 -253.046671 
L 205.006281 -250.882638 
L 208.28562 -248.785183 
L 211.564959 -246.987368 
L 214.844298 -244.706796 
L 218.123636 -243.175316 
L 221.402975 -241.826943 
L 224.682314 -240.545158 
L 227.961653 -239.280018 
L 231.240992 -238.447688 
L 234.520331 -238.381099 
L 237.799669 -238.414391 
L 241.079008 -238.897145 
L 244.358347 -239.363249 
L 247.637686 -240.328752 
L 250.917025 -241.593891 
L 254.196364 -243.258548 
L 257.475702 -245.106311 
L 260.755041 -246.837545 
L 264.03438 -249.051525 
L 267.313719 -250.849342 
L 270.593058 -252.81362 
L 273.872397 -254.994298 
L 277.151736 -257.208268 
L 280.431074 -259.621982 
L 283.710413 -262.152219 
L 286.989752 -265.398242 
L 290.269091 -269.210228 
L 293.54843 -274.337253 
L 296.827769 -280.279912 
L 300.107107 -286.47224 
L 303.386446 -291.449391 
L 306.665785 -291.982063 
L 309.945124 -284.674469 
L 313.224463 -267.545606 
L 316.503802 -239.64624 
L 319.78314 -203.376017 
L 323.062479 -160.851122 
L 326.341818 -120.228956 
L 329.621157 -97.312133 
L 332.900496 -81.598132 
L 336.179835 -71.201479 
L 339.459174 -63.520624 
L 342.738512 -57.847137 
L 346.017851 -54.068212 
L 349.29719 -51.743285 
L 352.576529 -50.531397 
L 355.855868 -50.125067 
L 359.135207 -50.112 
L 362.414545 -50.112 
L 365.693884 -50.112 
L 368.973223 -50.112 
L 372.252562 -50.112 
L 375.531901 -50.112 
L 378.81124 -50.112 
L 382.090579 -50.112 
L 385.369917 -50.112 
L 388.649256 -50.112 
L 391.928595 -50.112 
L 395.207934 -50.112 
L 398.487273 -50.112 
L 398.487273 -50.112 
L 398.487273 -50.112 
L 395.207934 -50.112 
L 391.928595 -50.112 
L 388.649256 -50.112 
L 385.369917 -50.112 
L 382.090579 -50.112 
L 378.81124 -50.112 
L 375.531901 -50.112 
L 372.252562 -50.112 
L 368.973223 -50.112 
L 365.693884 -50.112 
L 362.414545 -50.112 
L 359.135207 -50.112 
L 355.855868 -50.123063 
L 352.576529 -50.519665 
L 349.29719 -51.720067 
L 346.017851 -54.032008 
L 342.738512 -57.796482 
L 339.459174 -63.453903 
L 336.179835 -71.117781 
L 332.900496 -81.495846 
L 329.621157 -97.186879 
L 326.341818 -120.076277 
L 323.062479 -160.659224 
L 319.78314 -203.150248 
L 316.503802 -239.39517 
L 313.224463 -267.276683 
L 309.945124 -284.395152 
L 306.665785 -291.69842 
L 303.386446 -291.166063 
L 300.107107 -286.191852 
L 296.827769 -280.003221 
L 293.54843 -274.064153 
L 290.269091 -268.940277 
L 286.989752 -265.13065 
L 283.710413 -261.886654 
L 280.431074 -259.358005 
L 277.151736 -256.945808 
L 273.872397 -254.733252 
L 270.593058 -252.553969 
L 267.313719 -250.590953 
L 264.03438 -248.794298 
L 260.755041 -246.581752 
L 257.475702 -244.851643 
L 254.196364 -243.005088 
L 250.917025 -241.341529 
L 247.637686 -240.077226 
L 244.358347 -239.112364 
L 241.079008 -238.646567 
L 237.799669 -238.164139 
L 234.520331 -238.130867 
L 231.240992 -238.197407 
L 227.961653 -239.029184 
L 224.682314 -240.293488 
L 221.402975 -241.574428 
L 218.123636 -242.921909 
L 214.844298 -244.452387 
L 211.564959 -246.731469 
L 208.28562 -248.528125 
L 205.006281 -250.624222 
L 201.726942 -252.786867 
L 198.447603 -254.600164 
L 195.168264 -257.245258 
L 191.888926 -259.391275 
L 188.609587 -261.969833 
L 185.330248 -265.363551 
L 182.050909 -269.223088 
L 178.77157 -274.197245 
L 175.492231 -279.986587 
L 172.212893 -286.441395 
L 168.933554 -291.232608 
L 165.654215 -291.74833 
L 162.374876 -284.195517 
L 159.095537 -267.160231 
L 155.816198 -239.311986 
L 152.53686 -203.168546 
L 149.257521 -160.594352 
L 145.978182 -120.146132 
L 142.698843 -97.19852 
L 139.419504 -81.575658 
L 136.140165 -71.132743 
L 132.860826 -63.499443 
L 129.581488 -57.776047 
L 126.302149 -54.019888 
L 123.02281 -51.734327 
L 119.743471 -50.517517 
L 116.464132 -50.123382 
L 113.184793 -50.112 
L 109.905455 -50.112 
L 106.626116 -50.112 
L 103.346777 -50.112 
L 100.067438 -50.112 
L 96.788099 -50.112 
L 93.50876 -50.112 
L 90.229421 -50.112 
L 86.950083 -50.112 
L 83.670744 -50.112 
L 80.391405 -50.112 
L 77.112066 -50.112 
L 73.832727 -50.112 
z
" style="stroke: #d3d3d3"/>
    </defs>
    <g clip-path="url(#p7929aa8efd)">
     <use xlink:href="#m334f016832" x="0" y="345.6" style="fill: #d3d3d3; stroke: #d3d3d3"/>
    </g>
   </g>
   <g id="matplotlib.axis_1">
    <g id="xtick_1">
     <g id="line2d_1">
      <path d="M 72.193058 307.584 
L 72.193058 41.472 
" clip-path="url(#p7929aa8efd)" style="fill: none; stroke: #b0b0b0; stroke-width: 0.8; stroke-linecap: square"/>
     </g>
     <g id="line2d_2">
      <defs>
       <path id="m08f22b53e6" d="M 0 0 
L 0 3.5 
" style="stroke: #000000; stroke-width: 0.8"/>
      </defs>
      <g>
       <use xlink:href="#m08f22b53e6" x="72.193058" y="307.584" style="stroke: #000000; stroke-width: 0.8"/>
      </g>
     </g>
     <g id="text_1">
      <!-- −10.0 -->
      <g transform="translate(56.870402 322.182437) scale(0.1 -0.1)">
       <defs>
        <path id="DejaVuSans-2212" d="M 678 2272 
L 4684 2272 
L 4684 1741 
L 678 1741 
L 678 2272 
z
" transform="scale(0.015625)"/>
        <path id="DejaVuSans-31" d="M 794 531 
L 1825 531 
L 1825 4091 
L 703 3866 
L 703 4441 
L 1819 4666 
L 2450 4666 
L 2450 531 
L 3481 531 
L 3481 0 
L 794 0 
L 794 531 
z
" transform="scale(0.015625)"/>
        <path id="DejaVuSans-30" d="M 2034 4250 
Q 1547 4250 1301 3770 
Q 1056 3291 1056 2328 
Q 1056 1369 1301 889 
Q 1547 409 2034 409 
Q 2525 409 2770 889 
Q 3016 1369 3016 2328 
Q 3016 3291 2770 3770 
Q 2525 4250 2034 4250 
z
M 2034 4750 
Q 2819 4750 3233 4129 
Q 3647 3509 3647 2328 
Q 3647 1150 3233 529 
Q 2819 -91 2034 -91 
Q 1250 -91 836 529 
Q 422 1150 422 2328 
Q 422 3509 836 4129 
Q 1250 4750 2034 4750 
z
" transform="scale(0.015625)"/>
        <path id="DejaVuSans-2e" d="M 684 794 
L 1344 794 
L 1344 0 
L 684 0 
L 684 794 
z
" transform="scale(0.015625)"/>
       </defs>
       <use xlink:href="#DejaVuSans-2212"/>
       <use xlink:href="#DejaVuSans-31" x="83.789062"/>
       <use xlink:href="#DejaVuSans-30" x="147.412109"/>
       <use xlink:href="#DejaVuSans-2e" x="211.035156"/>
       <use xlink:href="#DejaVuSans-30" x="242.822266"/>
      </g>
     </g>
    </g>
    <g id="xtick_2">
     <g id="line2d_3">
      <path d="M 113.184793 307.584 
L 113.184793 41.472 
" clip-path="url(#p7929aa8efd)" style="fill: none; stroke: #b0b0b0; stroke-width: 0.8; stroke-linecap: square"/>
     </g>
     <g id="line2d_4">
      <g>
       <use xlink:href="#m08f22b53e6" x="113.184793" y="307.584" style="stroke: #000000; stroke-width: 0.8"/>
      </g>
     </g>
     <g id="text_2">
      <!-- −7.5 -->
      <g transform="translate(101.043387 322.182437) scale(0.1 -0.1)">
       <defs>
        <path id="DejaVuSans-37" d="M 525 4666 
L 3525 4666 
L 3525 4397 
L 1831 0 
L 1172 0 
L 2766 4134 
L 525 4134 
L 525 4666 
z
" transform="scale(0.015625)"/>
        <path id="DejaVuSans-35" d="M 691 4666 
L 3169 4666 
L 3169 4134 
L 1269 4134 
L 1269 2991 
Q 1406 3038 1543 3061 
Q 1681 3084 1819 3084 
Q 2600 3084 3056 2656 
Q 3513 2228 3513 1497 
Q 3513 744 3044 326 
Q 2575 -91 1722 -91 
Q 1428 -91 1123 -41 
Q 819 9 494 109 
L 494 744 
Q 775 591 1075 516 
Q 1375 441 1709 441 
Q 2250 441 2565 725 
Q 2881 1009 2881 1497 
Q 2881 1984 2565 2268 
Q 2250 2553 1709 2553 
Q 1456 2553 1204 2497 
Q 953 2441 691 2322 
L 691 4666 
z
" transform="scale(0.015625)"/>
       </defs>
       <use xlink:href="#DejaVuSans-2212"/>
       <use xlink:href="#DejaVuSans-37" x="83.789062"/>
       <use xlink:href="#DejaVuSans-2e" x="147.412109"/>
       <use xlink:href="#DejaVuSans-35" x="179.199219"/>
      </g>
     </g>
    </g>
    <g id="xtick_3">
     <g id="line2d_5">
      <path d="M 154.176529 307.584 
L 154.176529 41.472 
" clip-path="url(#p7929aa8efd)" style="fill: none; stroke: #b0b0b0; stroke-width: 0.8; stroke-linecap: square"/>
     </g>
     <g id="line2d_6">
      <g>
       <use xlink:href="#m08f22b53e6" x="154.176529" y="307.584" style="stroke: #000000; stroke-width: 0.8"/>
      </g>
     </g>
     <g id="text_3">
      <!-- −5.0 -->
      <g transform="translate(142.035123 322.182437) scale(0.1 -0.1)">
       <use xlink:href="#DejaVuSans-2212"/>
       <use xlink:href="#DejaVuSans-35" x="83.789062"/>
       <use xlink:href="#DejaVuSans-2e" x="147.412109"/>
       <use xlink:href="#DejaVuSans-30" x="179.199219"/>
      </g>
     </g>
    </g>
    <g id="xtick_4">
     <g id="line2d_7">
      <path d="M 195.168264 307.584 
L 195.168264 41.472 
" clip-path="url(#p7929aa8efd)" style="fill: none; stroke: #b0b0b0; stroke-width: 0.8; stroke-linecap: square"/>
     </g>
     <g id="line2d_8">
      <g>
       <use xlink:href="#m08f22b53e6" x="195.168264" y="307.584" style="stroke: #000000; stroke-width: 0.8"/>
      </g>
     </g>
     <g id="text_4">
      <!-- −2.5 -->
      <g transform="translate(183.026858 322.182437) scale(0.1 -0.1)">
       <defs>
        <path id="DejaVuSans-32" d="M 1228 531 
L 3431 531 
L 3431 0 
L 469 0 
L 469 531 
Q 828 903 1448 1529 
Q 2069 2156 2228 2338 
Q 2531 2678 2651 2914 
Q 2772 3150 2772 3378 
Q 2772 3750 2511 3984 
Q 2250 4219 1831 4219 
Q 1534 4219 1204 4116 
Q 875 4013 500 3803 
L 500 4441 
Q 881 4594 1212 4672 
Q 1544 4750 1819 4750 
Q 2544 4750 2975 4387 
Q 3406 4025 3406 3419 
Q 3406 3131 3298 2873 
Q 3191 2616 2906 2266 
Q 2828 2175 2409 1742 
Q 1991 1309 1228 531 
z
" transform="scale(0.015625)"/>
       </defs>
       <use xlink:href="#DejaVuSans-2212"/>
       <use xlink:href="#DejaVuSans-32" x="83.789062"/>
       <use xlink:href="#DejaVuSans-2e" x="147.412109"/>
       <use xlink:href="#DejaVuSans-35" x="179.199219"/>
      </g>
     </g>
    </g>
    <g id="xtick_5">
     <g id="line2d_9">
      <path d="M 236.16 307.584 
L 236.16 41.472 
" clip-path="url(#p7929aa8efd)" style="fill: none; stroke: #b0b0b0; stroke-width: 0.8; stroke-linecap: square"/>
     </g>
     <g id="line2d_10">
      <g>
       <use xlink:href="#m08f22b53e6" x="236.16" y="307.584" style="stroke: #000000; stroke-width: 0.8"/>
      </g>
     </g>
     <g id="text_5">
      <!-- 0.0 -->
      <g transform="translate(228.208438 322.182437) scale(0.1 -0.1)">
       <use xlink:href="#DejaVuSans-30"/>
       <use xlink:href="#DejaVuSans-2e" x="63.623047"/>
       <use xlink:href="#DejaVuSans-30" x="95.410156"/>
      </g>
     </g>
    </g>
    <g id="xtick_6">
     <g id="line2d_11">
      <path d="M 277.151736 307.584 
L 277.151736 41.472 
" clip-path="url(#p7929aa8efd)" style="fill: none; stroke: #b0b0b0; stroke-width: 0.8; stroke-linecap: square"/>
     </g>
     <g id="line2d_12">
      <g>
       <use xlink:href="#m08f22b53e6" x="277.151736" y="307.584" style="stroke: #000000; stroke-width: 0.8"/>
      </g>
     </g>
     <g id="text_6">
      <!-- 2.5 -->
      <g transform="translate(269.200173 322.182437) scale(0.1 -0.1)">
       <use xlink:href="#DejaVuSans-32"/>
       <use xlink:href="#DejaVuSans-2e" x="63.623047"/>
       <use xlink:href="#DejaVuSans-35" x="95.410156"/>
      </g>
     </g>
    </g>
    <g id="xtick_7">
     <g id="line2d_13">
      <path d="M 318.143471 307.584 
L 318.143471 41.472 
" clip-path="url(#p7929aa8efd)" style="fill: none; stroke: #b0b0b0; stroke-width: 0.8; stroke-linecap: square"/>
     </g>
     <g id="line2d_14">
      <g>
       <use xlink:href="#m08f22b53e6" x="318.143471" y="307.584" style="stroke: #000000; stroke-width: 0.8"/>
      </g>
     </g>
     <g id="text_7">
      <!-- 5.0 -->
      <g transform="translate(310.191909 322.182437) scale(0.1 -0.1)">
       <use xlink:href="#DejaVuSans-35"/>
       <use xlink:href="#DejaVuSans-2e" x="63.623047"/>
       <use xlink:href="#DejaVuSans-30" x="95.410156"/>
      </g>
     </g>
    </g>
    <g id="xtick_8">
     <g id="line2d_15">
      <path d="M 359.135207 307.584 
L 359.135207 41.472 
" clip-path="url(#p7929aa8efd)" style="fill: none; stroke: #b0b0b0; stroke-width: 0.8; stroke-linecap: square"/>
     </g>
     <g id="line2d_16">
      <g>
       <use xlink:href="#m08f22b53e6" x="359.135207" y="307.584" style="stroke: #000000; stroke-width: 0.8"/>
      </g>
     </g>
     <g id="text_8">
      <!-- 7.5 -->
      <g transform="translate(351.183644 322.182437) scale(0.1 -0.1)">
       <use xlink:href="#DejaVuSans-37"/>
       <use xlink:href="#DejaVuSans-2e" x="63.623047"/>
       <use xlink:href="#DejaVuSans-35" x="95.410156"/>
      </g>
     </g>
    </g>
    <g id="xtick_9">
     <g id="line2d_17">
      <path d="M 400.126942 307.584 
L 400.126942 41.472 
" clip-path="url(#p7929aa8efd)" style="fill: none; stroke: #b0b0b0; stroke-width: 0.8; stroke-linecap: square"/>
     </g>
     <g id="line2d_18">
      <g>
       <use xlink:href="#m08f22b53e6" x="400.126942" y="307.584" style="stroke: #000000; stroke-width: 0.8"/>
      </g>
     </g>
     <g id="text_9">
      <!-- 10.0 -->
      <g transform="translate(388.99413 322.182437) scale(0.1 -0.1)">
       <use xlink:href="#DejaVuSans-31"/>
       <use xlink:href="#DejaVuSans-30" x="63.623047"/>
       <use xlink:href="#DejaVuSans-2e" x="127.246094"/>
       <use xlink:href="#DejaVuSans-30" x="159.033203"/>
      </g>
     </g>
    </g>
    <g id="text_10">
     <!-- y -->
     <g transform="translate(233.200625 335.860562) scale(0.1 -0.1)">
      <defs>
       <path id="DejaVuSans-79" d="M 2059 -325 
Q 1816 -950 1584 -1140 
Q 1353 -1331 966 -1331 
L 506 -1331 
L 506 -850 
L 844 -850 
Q 1081 -850 1212 -737 
Q 1344 -625 1503 -206 
L 1606 56 
L 191 3500 
L 800 3500 
L 1894 763 
L 2988 3500 
L 3597 3500 
L 2059 -325 
z
" transform="scale(0.015625)"/>
      </defs>
      <use xlink:href="#DejaVuSans-79"/>
     </g>
    </g>
   </g>
   <g id="matplotlib.axis_2">
    <g id="ytick_1">
     <g id="line2d_19">
      <path d="M 57.6 295.488 
L 414.72 295.488 
" clip-path="url(#p7929aa8efd)" style="fill: none; stroke: #b0b0b0; stroke-width: 0.8; stroke-linecap: square"/>
     </g>
     <g id="line2d_20">
      <defs>
       <path id="m66c2ed986d" d="M 0 0 
L -3.5 0 
" style="stroke: #000000; stroke-width: 0.8"/>
      </defs>
      <g>
       <use xlink:href="#m66c2ed986d" x="57.6" y="295.488" style="stroke: #000000; stroke-width: 0.8"/>
      </g>
     </g>
     <g id="text_11">
      <!-- 0.0 -->
      <g transform="translate(34.696875 299.287219) scale(0.1 -0.1)">
       <use xlink:href="#DejaVuSans-30"/>
       <use xlink:href="#DejaVuSans-2e" x="63.623047"/>
       <use xlink:href="#DejaVuSans-30" x="95.410156"/>
      </g>
     </g>
    </g>
    <g id="ytick_2">
     <g id="line2d_21">
      <path d="M 57.6 262.205852 
L 414.72 262.205852 
" clip-path="url(#p7929aa8efd)" style="fill: none; stroke: #b0b0b0; stroke-width: 0.8; stroke-linecap: square"/>
     </g>
     <g id="line2d_22">
      <g>
       <use xlink:href="#m66c2ed986d" x="57.6" y="262.205852" style="stroke: #000000; stroke-width: 0.8"/>
      </g>
     </g>
     <g id="text_12">
      <!-- 0.2 -->
      <g transform="translate(34.696875 266.005071) scale(0.1 -0.1)">
       <use xlink:href="#DejaVuSans-30"/>
       <use xlink:href="#DejaVuSans-2e" x="63.623047"/>
       <use xlink:href="#DejaVuSans-32" x="95.410156"/>
      </g>
     </g>
    </g>
    <g id="ytick_3">
     <g id="line2d_23">
      <path d="M 57.6 228.923704 
L 414.72 228.923704 
" clip-path="url(#p7929aa8efd)" style="fill: none; stroke: #b0b0b0; stroke-width: 0.8; stroke-linecap: square"/>
     </g>
     <g id="line2d_24">
      <g>
       <use xlink:href="#m66c2ed986d" x="57.6" y="228.923704" style="stroke: #000000; stroke-width: 0.8"/>
      </g>
     </g>
     <g id="text_13">
      <!-- 0.4 -->
      <g transform="translate(34.696875 232.722923) scale(0.1 -0.1)">
       <defs>
        <path id="DejaVuSans-34" d="M 2419 4116 
L 825 1625 
L 2419 1625 
L 2419 4116 
z
M 2253 4666 
L 3047 4666 
L 3047 1625 
L 3713 1625 
L 3713 1100 
L 3047 1100 
L 3047 0 
L 2419 0 
L 2419 1100 
L 313 1100 
L 313 1709 
L 2253 4666 
z
" transform="scale(0.015625)"/>
       </defs>
       <use xlink:href="#DejaVuSans-30"/>
       <use xlink:href="#DejaVuSans-2e" x="63.623047"/>
       <use xlink:href="#DejaVuSans-34" x="95.410156"/>
      </g>
     </g>
    </g>
    <g id="ytick_4">
     <g id="line2d_25">
      <path d="M 57.6 195.641556 
L 414.72 195.641556 
" clip-path="url(#p7929aa8efd)" style="fill: none; stroke: #b0b0b0; stroke-width: 0.8; stroke-linecap: square"/>
     </g>
     <g id="line2d_26">
      <g>
       <use xlink:href="#m66c2ed986d" x="57.6" y="195.641556" style="stroke: #000000; stroke-width: 0.8"/>
      </g>
     </g>
     <g id="text_14">
      <!-- 0.6 -->
      <g transform="translate(34.696875 199.440774) scale(0.1 -0.1)">
       <defs>
        <path id="DejaVuSans-36" d="M 2113 2584 
Q 1688 2584 1439 2293 
Q 1191 2003 1191 1497 
Q 1191 994 1439 701 
Q 1688 409 2113 409 
Q 2538 409 2786 701 
Q 3034 994 3034 1497 
Q 3034 2003 2786 2293 
Q 2538 2584 2113 2584 
z
M 3366 4563 
L 3366 3988 
Q 3128 4100 2886 4159 
Q 2644 4219 2406 4219 
Q 1781 4219 1451 3797 
Q 1122 3375 1075 2522 
Q 1259 2794 1537 2939 
Q 1816 3084 2150 3084 
Q 2853 3084 3261 2657 
Q 3669 2231 3669 1497 
Q 3669 778 3244 343 
Q 2819 -91 2113 -91 
Q 1303 -91 875 529 
Q 447 1150 447 2328 
Q 447 3434 972 4092 
Q 1497 4750 2381 4750 
Q 2619 4750 2861 4703 
Q 3103 4656 3366 4563 
z
" transform="scale(0.015625)"/>
       </defs>
       <use xlink:href="#DejaVuSans-30"/>
       <use xlink:href="#DejaVuSans-2e" x="63.623047"/>
       <use xlink:href="#DejaVuSans-36" x="95.410156"/>
      </g>
     </g>
    </g>
    <g id="ytick_5">
     <g id="line2d_27">
      <path d="M 57.6 162.359408 
L 414.72 162.359408 
" clip-path="url(#p7929aa8efd)" style="fill: none; stroke: #b0b0b0; stroke-width: 0.8; stroke-linecap: square"/>
     </g>
     <g id="line2d_28">
      <g>
       <use xlink:href="#m66c2ed986d" x="57.6" y="162.359408" style="stroke: #000000; stroke-width: 0.8"/>
      </g>
     </g>
     <g id="text_15">
      <!-- 0.8 -->
      <g transform="translate(34.696875 166.158626) scale(0.1 -0.1)">
       <defs>
        <path id="DejaVuSans-38" d="M 2034 2216 
Q 1584 2216 1326 1975 
Q 1069 1734 1069 1313 
Q 1069 891 1326 650 
Q 1584 409 2034 409 
Q 2484 409 2743 651 
Q 3003 894 3003 1313 
Q 3003 1734 2745 1975 
Q 2488 2216 2034 2216 
z
M 1403 2484 
Q 997 2584 770 2862 
Q 544 3141 544 3541 
Q 544 4100 942 4425 
Q 1341 4750 2034 4750 
Q 2731 4750 3128 4425 
Q 3525 4100 3525 3541 
Q 3525 3141 3298 2862 
Q 3072 2584 2669 2484 
Q 3125 2378 3379 2068 
Q 3634 1759 3634 1313 
Q 3634 634 3220 271 
Q 2806 -91 2034 -91 
Q 1263 -91 848 271 
Q 434 634 434 1313 
Q 434 1759 690 2068 
Q 947 2378 1403 2484 
z
M 1172 3481 
Q 1172 3119 1398 2916 
Q 1625 2713 2034 2713 
Q 2441 2713 2670 2916 
Q 2900 3119 2900 3481 
Q 2900 3844 2670 4047 
Q 2441 4250 2034 4250 
Q 1625 4250 1398 4047 
Q 1172 3844 1172 3481 
z
" transform="scale(0.015625)"/>
       </defs>
       <use xlink:href="#DejaVuSans-30"/>
       <use xlink:href="#DejaVuSans-2e" x="63.623047"/>
       <use xlink:href="#DejaVuSans-38" x="95.410156"/>
      </g>
     </g>
    </g>
    <g id="ytick_6">
     <g id="line2d_29">
      <path d="M 57.6 129.07726 
L 414.72 129.07726 
" clip-path="url(#p7929aa8efd)" style="fill: none; stroke: #b0b0b0; stroke-width: 0.8; stroke-linecap: square"/>
     </g>
     <g id="line2d_30">
      <g>
       <use xlink:href="#m66c2ed986d" x="57.6" y="129.07726" style="stroke: #000000; stroke-width: 0.8"/>
      </g>
     </g>
     <g id="text_16">
      <!-- 1.0 -->
      <g transform="translate(34.696875 132.876478) scale(0.1 -0.1)">
       <use xlink:href="#DejaVuSans-31"/>
       <use xlink:href="#DejaVuSans-2e" x="63.623047"/>
       <use xlink:href="#DejaVuSans-30" x="95.410156"/>
      </g>
     </g>
    </g>
    <g id="ytick_7">
     <g id="line2d_31">
      <path d="M 57.6 95.795111 
L 414.72 95.795111 
" clip-path="url(#p7929aa8efd)" style="fill: none; stroke: #b0b0b0; stroke-width: 0.8; stroke-linecap: square"/>
     </g>
     <g id="line2d_32">
      <g>
       <use xlink:href="#m66c2ed986d" x="57.6" y="95.795111" style="stroke: #000000; stroke-width: 0.8"/>
      </g>
     </g>
     <g id="text_17">
      <!-- 1.2 -->
      <g transform="translate(34.696875 99.59433) scale(0.1 -0.1)">
       <use xlink:href="#DejaVuSans-31"/>
       <use xlink:href="#DejaVuSans-2e" x="63.623047"/>
       <use xlink:href="#DejaVuSans-32" x="95.410156"/>
      </g>
     </g>
    </g>
    <g id="ytick_8">
     <g id="line2d_33">
      <path d="M 57.6 62.512963 
L 414.72 62.512963 
" clip-path="url(#p7929aa8efd)" style="fill: none; stroke: #b0b0b0; stroke-width: 0.8; stroke-linecap: square"/>
     </g>
     <g id="line2d_34">
      <g>
       <use xlink:href="#m66c2ed986d" x="57.6" y="62.512963" style="stroke: #000000; stroke-width: 0.8"/>
      </g>
     </g>
     <g id="text_18">
      <!-- 1.4 -->
      <g transform="translate(34.696875 66.312182) scale(0.1 -0.1)">
       <use xlink:href="#DejaVuSans-31"/>
       <use xlink:href="#DejaVuSans-2e" x="63.623047"/>
       <use xlink:href="#DejaVuSans-34" x="95.410156"/>
      </g>
     </g>
    </g>
    <g id="text_19">
     <!-- $\frac{dN}{dy}$ -->
     <g transform="translate(25.096875 180.028) rotate(-90) scale(0.1 -0.1)">
      <defs>
       <path id="DejaVuSans-Oblique-64" d="M 2675 525 
Q 2444 222 2128 65 
Q 1813 -91 1428 -91 
Q 903 -91 598 267 
Q 294 625 294 1247 
Q 294 1766 478 2236 
Q 663 2706 1013 3078 
Q 1244 3325 1534 3454 
Q 1825 3584 2144 3584 
Q 2481 3584 2739 3421 
Q 2997 3259 3138 2956 
L 3513 4863 
L 4091 4863 
L 3144 0 
L 2566 0 
L 2675 525 
z
M 891 1350 
Q 891 897 1095 644 
Q 1300 391 1663 391 
Q 1931 391 2161 520 
Q 2391 650 2566 903 
Q 2750 1166 2856 1509 
Q 2963 1853 2963 2188 
Q 2963 2622 2758 2865 
Q 2553 3109 2194 3109 
Q 1922 3109 1687 2981 
Q 1453 2853 1288 2613 
Q 1106 2353 998 2009 
Q 891 1666 891 1350 
z
" transform="scale(0.015625)"/>
       <path id="DejaVuSans-Oblique-4e" d="M 1081 4666 
L 1931 4666 
L 3219 666 
L 4000 4666 
L 4616 4666 
L 3706 0 
L 2853 0 
L 1569 4025 
L 788 0 
L 172 0 
L 1081 4666 
z
" transform="scale(0.015625)"/>
       <path id="DejaVuSans-Oblique-79" d="M 1588 -325 
Q 1188 -997 936 -1164 
Q 684 -1331 294 -1331 
L -159 -1331 
L -63 -850 
L 269 -850 
Q 509 -850 678 -719 
Q 847 -588 1056 -206 
L 1234 128 
L 459 3500 
L 1069 3500 
L 1650 819 
L 3256 3500 
L 3859 3500 
L 1588 -325 
z
" transform="scale(0.015625)"/>
      </defs>
      <use xlink:href="#DejaVuSans-Oblique-64" transform="translate(0 44.810938) scale(0.7)"/>
      <use xlink:href="#DejaVuSans-Oblique-4e" transform="translate(44.433594 44.810938) scale(0.7)"/>
      <use xlink:href="#DejaVuSans-Oblique-64" transform="translate(5 -40.623437) scale(0.7)"/>
      <use xlink:href="#DejaVuSans-Oblique-79" transform="translate(49.433594 -40.623437) scale(0.7)"/>
      <path d="M 0 18.815625 
L 0 25.065625 
L 96.796875 25.065625 
L 96.796875 18.815625 
L 0 18.815625 
z
"/>
     </g>
    </g>
   </g>
   <g id="line2d_35">
    <path d="M 73.832727 295.488 
L 77.112066 295.488 
L 80.391405 295.488 
L 83.670744 295.488 
L 86.950083 295.488 
L 90.229421 295.488 
L 93.50876 295.488 
L 96.788099 295.488 
L 100.067438 295.488 
L 103.346777 295.488 
L 106.626116 295.488 
L 109.905455 295.488 
L 113.184793 295.488 
L 116.464132 295.475602 
L 119.743471 295.076633 
L 123.02281 293.854013 
L 126.302149 291.562038 
L 129.581488 287.798659 
L 132.860826 282.06714 
L 136.140165 274.425393 
L 139.419504 263.973134 
L 142.698843 248.338845 
L 145.978182 225.377491 
L 149.257521 184.909727 
L 152.53686 142.318562 
L 155.816198 106.162501 
L 159.095537 78.305343 
L 162.374876 61.264883 
L 165.654215 53.709835 
L 168.933554 54.225708 
L 172.212893 59.018338 
L 175.492231 65.475075 
L 178.77157 71.266168 
L 182.050909 76.241849 
L 185.330248 80.102579 
L 188.609587 83.497358 
L 191.888926 86.076724 
L 195.168264 88.223423 
L 198.447603 90.869354 
L 201.726942 92.683231 
L 205.006281 94.84657 
L 208.28562 96.943346 
L 211.564959 98.740582 
L 214.844298 101.020409 
L 218.123636 102.551388 
L 221.402975 103.899315 
L 224.682314 105.180677 
L 227.961653 106.445399 
L 231.240992 107.277453 
L 234.520331 107.344017 
L 237.799669 107.310735 
L 241.079008 106.828144 
L 244.358347 106.362193 
L 247.637686 105.397011 
L 250.917025 104.13229 
L 254.196364 102.468182 
L 257.475702 100.621023 
L 260.755041 98.890351 
L 264.03438 96.677088 
L 267.313719 94.879852 
L 270.593058 92.916206 
L 273.872397 90.736225 
L 277.151736 88.522962 
L 280.431074 86.110006 
L 283.710413 83.580563 
L 286.989752 80.335554 
L 290.269091 76.524748 
L 293.54843 71.399297 
L 296.827769 65.458433 
L 300.107107 59.267954 
L 303.386446 54.292273 
L 306.665785 53.759758 
L 309.945124 61.06519 
L 313.224463 78.188855 
L 316.503802 106.079295 
L 319.78314 142.336867 
L 323.062479 184.844827 
L 326.341818 225.447383 
L 329.621157 248.350494 
L 332.900496 264.053011 
L 336.179835 274.44037 
L 339.459174 282.112737 
L 342.738512 287.77819 
L 346.017851 291.54989 
L 349.29719 293.868324 
L 352.576529 295.074469 
L 355.855868 295.475935 
L 359.135207 295.488 
L 362.414545 295.488 
L 365.693884 295.488 
L 368.973223 295.488 
L 372.252562 295.488 
L 375.531901 295.488 
L 378.81124 295.488 
L 382.090579 295.488 
L 385.369917 295.488 
L 388.649256 295.488 
L 391.928595 295.488 
L 395.207934 295.488 
L 398.487273 295.488 
" clip-path="url(#p7929aa8efd)" style="fill: none; stroke: #ff0000; stroke-width: 1.5; stroke-linecap: square"/>
   </g>
   <g id="line2d_36">
    <path d="M 73.832727 295.488 
L 77.112066 295.488 
L 80.391405 295.488 
L 83.670744 295.488 
L 86.950083 295.488 
L 90.229421 295.488 
L 93.50876 295.488 
L 96.788099 295.488 
L 100.067438 295.488 
L 103.346777 295.488 
L 106.626116 295.488 
L 109.905455 295.488 
L 113.184793 295.488 
L 116.464132 295.439325 
L 119.743471 294.515828 
L 123.02281 292.39093 
L 126.302149 289.030431 
L 129.581488 284.110498 
L 132.860826 277.480694 
L 136.140165 269.74093 
L 139.419504 259.651447 
L 142.698843 244.741045 
L 145.978182 219.603038 
L 149.257521 173.161129 
L 152.53686 134.528875 
L 155.816198 105.280524 
L 159.095537 89.704478 
L 162.374876 82.964843 
L 165.654215 81.849891 
L 168.933554 84.296129 
L 172.212893 88.190141 
L 175.492231 92.916206 
L 178.77157 97.392655 
L 182.050909 101.136896 
L 185.330248 104.232136 
L 188.609587 107.061119 
L 191.888926 109.124612 
L 195.168264 111.154823 
L 198.447603 112.902136 
L 201.726942 114.449755 
L 205.006281 116.197068 
L 208.28562 117.578277 
L 211.564959 119.092615 
L 214.844298 120.307414 
L 218.123636 121.206032 
L 221.402975 122.387548 
L 224.682314 123.219601 
L 227.961653 123.735475 
L 231.240992 124.118219 
L 234.520331 124.401118 
L 237.799669 124.617452 
L 241.079008 123.901886 
L 244.358347 123.835321 
L 247.637686 123.219601 
L 250.917025 122.254419 
L 254.196364 121.289237 
L 257.475702 120.473824 
L 260.755041 119.092615 
L 264.03438 117.46179 
L 267.313719 115.964093 
L 270.593058 114.716013 
L 273.872397 113.151752 
L 277.151736 111.337875 
L 280.431074 108.94156 
L 283.710413 106.894708 
L 286.989752 104.248777 
L 290.269091 101.103614 
L 293.54843 97.658912 
L 296.827769 93.082616 
L 300.107107 88.1735 
L 303.386446 84.096436 
L 306.665785 81.816609 
L 309.945124 83.014767 
L 313.224463 89.388298 
L 316.503802 105.580063 
L 319.78314 134.495593 
L 323.062479 173.309234 
L 326.341818 219.514841 
L 329.621157 244.714419 
L 332.900496 259.704698 
L 336.179835 269.661053 
L 339.459174 277.51564 
L 342.738512 284.123811 
L 346.017851 289.001975 
L 349.29719 292.427041 
L 352.576529 294.513915 
L 355.855868 295.434249 
L 359.135207 295.488 
L 362.414545 295.488 
L 365.693884 295.488 
L 368.973223 295.488 
L 372.252562 295.488 
L 375.531901 295.488 
L 378.81124 295.488 
L 382.090579 295.488 
L 385.369917 295.488 
L 388.649256 295.488 
L 391.928595 295.488 
L 395.207934 295.488 
L 398.487273 295.488 
" clip-path="url(#p7929aa8efd)" style="fill: none; stroke: #0000ff; stroke-width: 1.5; stroke-linecap: square"/>
   </g>
   <g id="line2d_37">
    <path d="M 73.832727 295.488 
L 77.112066 295.488 
L 80.391405 295.488 
L 83.670744 295.488 
L 86.950083 295.488 
L 90.229421 295.488 
L 93.50876 295.488 
L 96.788099 295.488 
L 100.067438 295.488 
L 103.346777 295.488 
L 106.626116 295.488 
L 109.905455 295.488 
L 113.184793 295.488 
L 116.464132 295.463288 
L 119.743471 295.038857 
L 123.02281 294.016513 
L 126.302149 292.352322 
L 129.581488 289.718207 
L 132.860826 286.101769 
L 136.140165 281.333435 
L 139.419504 274.490293 
L 142.698843 262.858182 
L 145.978182 240.702256 
L 149.257521 196.957865 
L 152.53686 157.606717 
L 155.816198 127.862461 
L 159.095537 104.681445 
L 162.374876 88.007089 
L 165.654215 77.772828 
L 168.933554 73.978663 
L 172.212893 74.594383 
L 175.492231 78.172214 
L 178.77157 83.131254 
L 182.050909 87.607703 
L 185.330248 91.668125 
L 188.609587 94.447184 
L 191.888926 96.460754 
L 195.168264 98.025015 
L 198.447603 98.574171 
L 201.726942 99.189891 
L 205.006281 99.456148 
L 208.28562 99.372942 
L 211.564959 99.755687 
L 214.844298 99.772328 
L 218.123636 99.422866 
L 221.402975 99.472789 
L 224.682314 99.506071 
L 227.961653 99.48943 
L 231.240992 99.472789 
L 234.520331 99.406225 
L 237.799669 99.406225 
L 241.079008 99.406225 
L 244.358347 99.506071 
L 247.637686 99.672482 
L 250.917025 99.33966 
L 254.196364 99.605917 
L 257.475702 99.6392 
L 260.755041 99.755687 
L 264.03438 99.456148 
L 267.313719 99.239814 
L 270.593058 99.056762 
L 273.872397 98.474324 
L 277.151736 97.742117 
L 280.431074 96.494037 
L 283.710413 94.513749 
L 286.989752 91.501714 
L 290.269091 87.707549 
L 293.54843 82.981484 
L 296.827769 78.188855 
L 300.107107 74.261562 
L 303.386446 73.92874 
L 306.665785 77.722905 
L 309.945124 87.824037 
L 313.224463 104.847856 
L 316.503802 128.062154 
L 319.78314 157.639999 
L 323.062479 196.839713 
L 326.341818 240.627371 
L 329.621157 262.933067 
L 332.900496 274.548537 
L 336.179835 281.372875 
L 339.459174 286.08546 
L 342.738512 289.721202 
L 346.017851 292.352822 
L 349.29719 294.039811 
L 352.576529 295.039606 
L 355.855868 295.465368 
L 359.135207 295.488 
L 362.414545 295.488 
L 365.693884 295.488 
L 368.973223 295.488 
L 372.252562 295.488 
L 375.531901 295.488 
L 378.81124 295.488 
L 382.090579 295.488 
L 385.369917 295.488 
L 388.649256 295.488 
L 391.928595 295.488 
L 395.207934 295.488 
L 398.487273 295.488 
" clip-path="url(#p7929aa8efd)" style="fill: none; stroke: #008000; stroke-width: 1.5; stroke-linecap: square"/>
   </g>
   <g id="patch_3">
    <path d="M 57.6 307.584 
L 57.6 41.472 
" style="fill: none; stroke: #000000; stroke-width: 0.8; stroke-linejoin: miter; stroke-linecap: square"/>
   </g>
   <g id="patch_4">
    <path d="M 414.72 307.584 
L 414.72 41.472 
" style="fill: none; stroke: #000000; stroke-width: 0.8; stroke-linejoin: miter; stroke-linecap: square"/>
   </g>
   <g id="patch_5">
    <path d="M 57.6 307.584 
L 414.72 307.584 
" style="fill: none; stroke: #000000; stroke-width: 0.8; stroke-linejoin: miter; stroke-linecap: square"/>
   </g>
   <g id="patch_6">
    <path d="M 57.6 41.472 
L 414.72 41.472 
" style="fill: none; stroke: #000000; stroke-width: 0.8; stroke-linejoin: miter; stroke-linecap: square"/>
   </g>
   <g id="text_20">
    <!-- $\frac{dN}{dy}$ as a function of rapidity for 200 GeV $d\bar{d}$ -->
    <g transform="translate(108.9 18.913875) scale(0.12 -0.12)">
     <defs>
      <path id="DejaVuSans-20" transform="scale(0.015625)"/>
      <path id="DejaVuSans-61" d="M 2194 1759 
Q 1497 1759 1228 1600 
Q 959 1441 959 1056 
Q 959 750 1161 570 
Q 1363 391 1709 391 
Q 2188 391 2477 730 
Q 2766 1069 2766 1631 
L 2766 1759 
L 2194 1759 
z
M 3341 1997 
L 3341 0 
L 2766 0 
L 2766 531 
Q 2569 213 2275 61 
Q 1981 -91 1556 -91 
Q 1019 -91 701 211 
Q 384 513 384 1019 
Q 384 1609 779 1909 
Q 1175 2209 1959 2209 
L 2766 2209 
L 2766 2266 
Q 2766 2663 2505 2880 
Q 2244 3097 1772 3097 
Q 1472 3097 1187 3025 
Q 903 2953 641 2809 
L 641 3341 
Q 956 3463 1253 3523 
Q 1550 3584 1831 3584 
Q 2591 3584 2966 3190 
Q 3341 2797 3341 1997 
z
" transform="scale(0.015625)"/>
      <path id="DejaVuSans-73" d="M 2834 3397 
L 2834 2853 
Q 2591 2978 2328 3040 
Q 2066 3103 1784 3103 
Q 1356 3103 1142 2972 
Q 928 2841 928 2578 
Q 928 2378 1081 2264 
Q 1234 2150 1697 2047 
L 1894 2003 
Q 2506 1872 2764 1633 
Q 3022 1394 3022 966 
Q 3022 478 2636 193 
Q 2250 -91 1575 -91 
Q 1294 -91 989 -36 
Q 684 19 347 128 
L 347 722 
Q 666 556 975 473 
Q 1284 391 1588 391 
Q 1994 391 2212 530 
Q 2431 669 2431 922 
Q 2431 1156 2273 1281 
Q 2116 1406 1581 1522 
L 1381 1569 
Q 847 1681 609 1914 
Q 372 2147 372 2553 
Q 372 3047 722 3315 
Q 1072 3584 1716 3584 
Q 2034 3584 2315 3537 
Q 2597 3491 2834 3397 
z
" transform="scale(0.015625)"/>
      <path id="DejaVuSans-66" d="M 2375 4863 
L 2375 4384 
L 1825 4384 
Q 1516 4384 1395 4259 
Q 1275 4134 1275 3809 
L 1275 3500 
L 2222 3500 
L 2222 3053 
L 1275 3053 
L 1275 0 
L 697 0 
L 697 3053 
L 147 3053 
L 147 3500 
L 697 3500 
L 697 3744 
Q 697 4328 969 4595 
Q 1241 4863 1831 4863 
L 2375 4863 
z
" transform="scale(0.015625)"/>
      <path id="DejaVuSans-75" d="M 544 1381 
L 544 3500 
L 1119 3500 
L 1119 1403 
Q 1119 906 1312 657 
Q 1506 409 1894 409 
Q 2359 409 2629 706 
Q 2900 1003 2900 1516 
L 2900 3500 
L 3475 3500 
L 3475 0 
L 2900 0 
L 2900 538 
Q 2691 219 2414 64 
Q 2138 -91 1772 -91 
Q 1169 -91 856 284 
Q 544 659 544 1381 
z
M 1991 3584 
L 1991 3584 
z
" transform="scale(0.015625)"/>
      <path id="DejaVuSans-6e" d="M 3513 2113 
L 3513 0 
L 2938 0 
L 2938 2094 
Q 2938 2591 2744 2837 
Q 2550 3084 2163 3084 
Q 1697 3084 1428 2787 
Q 1159 2491 1159 1978 
L 1159 0 
L 581 0 
L 581 3500 
L 1159 3500 
L 1159 2956 
Q 1366 3272 1645 3428 
Q 1925 3584 2291 3584 
Q 2894 3584 3203 3211 
Q 3513 2838 3513 2113 
z
" transform="scale(0.015625)"/>
      <path id="DejaVuSans-63" d="M 3122 3366 
L 3122 2828 
Q 2878 2963 2633 3030 
Q 2388 3097 2138 3097 
Q 1578 3097 1268 2742 
Q 959 2388 959 1747 
Q 959 1106 1268 751 
Q 1578 397 2138 397 
Q 2388 397 2633 464 
Q 2878 531 3122 666 
L 3122 134 
Q 2881 22 2623 -34 
Q 2366 -91 2075 -91 
Q 1284 -91 818 406 
Q 353 903 353 1747 
Q 353 2603 823 3093 
Q 1294 3584 2113 3584 
Q 2378 3584 2631 3529 
Q 2884 3475 3122 3366 
z
" transform="scale(0.015625)"/>
      <path id="DejaVuSans-74" d="M 1172 4494 
L 1172 3500 
L 2356 3500 
L 2356 3053 
L 1172 3053 
L 1172 1153 
Q 1172 725 1289 603 
Q 1406 481 1766 481 
L 2356 481 
L 2356 0 
L 1766 0 
Q 1100 0 847 248 
Q 594 497 594 1153 
L 594 3053 
L 172 3053 
L 172 3500 
L 594 3500 
L 594 4494 
L 1172 4494 
z
" transform="scale(0.015625)"/>
      <path id="DejaVuSans-69" d="M 603 3500 
L 1178 3500 
L 1178 0 
L 603 0 
L 603 3500 
z
M 603 4863 
L 1178 4863 
L 1178 4134 
L 603 4134 
L 603 4863 
z
" transform="scale(0.015625)"/>
      <path id="DejaVuSans-6f" d="M 1959 3097 
Q 1497 3097 1228 2736 
Q 959 2375 959 1747 
Q 959 1119 1226 758 
Q 1494 397 1959 397 
Q 2419 397 2687 759 
Q 2956 1122 2956 1747 
Q 2956 2369 2687 2733 
Q 2419 3097 1959 3097 
z
M 1959 3584 
Q 2709 3584 3137 3096 
Q 3566 2609 3566 1747 
Q 3566 888 3137 398 
Q 2709 -91 1959 -91 
Q 1206 -91 779 398 
Q 353 888 353 1747 
Q 353 2609 779 3096 
Q 1206 3584 1959 3584 
z
" transform="scale(0.015625)"/>
      <path id="DejaVuSans-72" d="M 2631 2963 
Q 2534 3019 2420 3045 
Q 2306 3072 2169 3072 
Q 1681 3072 1420 2755 
Q 1159 2438 1159 1844 
L 1159 0 
L 581 0 
L 581 3500 
L 1159 3500 
L 1159 2956 
Q 1341 3275 1631 3429 
Q 1922 3584 2338 3584 
Q 2397 3584 2469 3576 
Q 2541 3569 2628 3553 
L 2631 2963 
z
" transform="scale(0.015625)"/>
      <path id="DejaVuSans-70" d="M 1159 525 
L 1159 -1331 
L 581 -1331 
L 581 3500 
L 1159 3500 
L 1159 2969 
Q 1341 3281 1617 3432 
Q 1894 3584 2278 3584 
Q 2916 3584 3314 3078 
Q 3713 2572 3713 1747 
Q 3713 922 3314 415 
Q 2916 -91 2278 -91 
Q 1894 -91 1617 61 
Q 1341 213 1159 525 
z
M 3116 1747 
Q 3116 2381 2855 2742 
Q 2594 3103 2138 3103 
Q 1681 3103 1420 2742 
Q 1159 2381 1159 1747 
Q 1159 1113 1420 752 
Q 1681 391 2138 391 
Q 2594 391 2855 752 
Q 3116 1113 3116 1747 
z
" transform="scale(0.015625)"/>
      <path id="DejaVuSans-64" d="M 2906 2969 
L 2906 4863 
L 3481 4863 
L 3481 0 
L 2906 0 
L 2906 525 
Q 2725 213 2448 61 
Q 2172 -91 1784 -91 
Q 1150 -91 751 415 
Q 353 922 353 1747 
Q 353 2572 751 3078 
Q 1150 3584 1784 3584 
Q 2172 3584 2448 3432 
Q 2725 3281 2906 2969 
z
M 947 1747 
Q 947 1113 1208 752 
Q 1469 391 1925 391 
Q 2381 391 2643 752 
Q 2906 1113 2906 1747 
Q 2906 2381 2643 2742 
Q 2381 3103 1925 3103 
Q 1469 3103 1208 2742 
Q 947 2381 947 1747 
z
" transform="scale(0.015625)"/>
      <path id="DejaVuSans-47" d="M 3809 666 
L 3809 1919 
L 2778 1919 
L 2778 2438 
L 4434 2438 
L 4434 434 
Q 4069 175 3628 42 
Q 3188 -91 2688 -91 
Q 1594 -91 976 548 
Q 359 1188 359 2328 
Q 359 3472 976 4111 
Q 1594 4750 2688 4750 
Q 3144 4750 3555 4637 
Q 3966 4525 4313 4306 
L 4313 3634 
Q 3963 3931 3569 4081 
Q 3175 4231 2741 4231 
Q 1884 4231 1454 3753 
Q 1025 3275 1025 2328 
Q 1025 1384 1454 906 
Q 1884 428 2741 428 
Q 3075 428 3337 486 
Q 3600 544 3809 666 
z
" transform="scale(0.015625)"/>
      <path id="DejaVuSans-65" d="M 3597 1894 
L 3597 1613 
L 953 1613 
Q 991 1019 1311 708 
Q 1631 397 2203 397 
Q 2534 397 2845 478 
Q 3156 559 3463 722 
L 3463 178 
Q 3153 47 2828 -22 
Q 2503 -91 2169 -91 
Q 1331 -91 842 396 
Q 353 884 353 1716 
Q 353 2575 817 3079 
Q 1281 3584 2069 3584 
Q 2775 3584 3186 3129 
Q 3597 2675 3597 1894 
z
M 3022 2063 
Q 3016 2534 2758 2815 
Q 2500 3097 2075 3097 
Q 1594 3097 1305 2825 
Q 1016 2553 972 2059 
L 3022 2063 
z
" transform="scale(0.015625)"/>
      <path id="DejaVuSans-56" d="M 1831 0 
L 50 4666 
L 709 4666 
L 2188 738 
L 3669 4666 
L 4325 4666 
L 2547 0 
L 1831 0 
z
" transform="scale(0.015625)"/>
      <path id="DejaVuSans-304" d="M -2522 4769 
L -653 4769 
L -653 4306 
L -2522 4306 
L -2522 4769 
z
" transform="scale(0.015625)"/>
     </defs>
     <use xlink:href="#DejaVuSans-Oblique-64" transform="translate(0 44.810938) scale(0.7)"/>
     <use xlink:href="#DejaVuSans-Oblique-4e" transform="translate(44.433594 44.810938) scale(0.7)"/>
     <use xlink:href="#DejaVuSans-Oblique-64" transform="translate(5 -40.623437) scale(0.7)"/>
     <use xlink:href="#DejaVuSans-Oblique-79" transform="translate(49.433594 -40.623437) scale(0.7)"/>
     <use xlink:href="#DejaVuSans-20" transform="translate(109.296875 0.01875)"/>
     <use xlink:href="#DejaVuSans-61" transform="translate(141.083984 0.01875)"/>
     <use xlink:href="#DejaVuSans-73" transform="translate(202.363281 0.01875)"/>
     <use xlink:href="#DejaVuSans-20" transform="translate(254.462891 0.01875)"/>
     <use xlink:href="#DejaVuSans-61" transform="translate(286.25 0.01875)"/>
     <use xlink:href="#DejaVuSans-20" transform="translate(347.529297 0.01875)"/>
     <use xlink:href="#DejaVuSans-66" transform="translate(379.316406 0.01875)"/>
     <use xlink:href="#DejaVuSans-75" transform="translate(414.521484 0.01875)"/>
     <use xlink:href="#DejaVuSans-6e" transform="translate(477.900391 0.01875)"/>
     <use xlink:href="#DejaVuSans-63" transform="translate(541.279297 0.01875)"/>
     <use xlink:href="#DejaVuSans-74" transform="translate(596.259766 0.01875)"/>
     <use xlink:href="#DejaVuSans-69" transform="translate(635.46875 0.01875)"/>
     <use xlink:href="#DejaVuSans-6f" transform="translate(663.251953 0.01875)"/>
     <use xlink:href="#DejaVuSans-6e" transform="translate(724.433594 0.01875)"/>
     <use xlink:href="#DejaVuSans-20" transform="translate(787.8125 0.01875)"/>
     <use xlink:href="#DejaVuSans-6f" transform="translate(819.599609 0.01875)"/>
     <use xlink:href="#DejaVuSans-66" transform="translate(880.78125 0.01875)"/>
     <use xlink:href="#DejaVuSans-20" transform="translate(915.986328 0.01875)"/>
     <use xlink:href="#DejaVuSans-72" transform="translate(947.773438 0.01875)"/>
     <use xlink:href="#DejaVuSans-61" transform="translate(988.886719 0.01875)"/>
     <use xlink:href="#DejaVuSans-70" transform="translate(1050.166016 0.01875)"/>
     <use xlink:href="#DejaVuSans-69" transform="translate(1113.642578 0.01875)"/>
     <use xlink:href="#DejaVuSans-64" transform="translate(1141.425781 0.01875)"/>
     <use xlink:href="#DejaVuSans-69" transform="translate(1204.902344 0.01875)"/>
     <use xlink:href="#DejaVuSans-74" transform="translate(1232.685547 0.01875)"/>
     <use xlink:href="#DejaVuSans-79" transform="translate(1271.894531 0.01875)"/>
     <use xlink:href="#DejaVuSans-20" transform="translate(1331.074219 0.01875)"/>
     <use xlink:href="#DejaVuSans-66" transform="translate(1362.861328 0.01875)"/>
     <use xlink:href="#DejaVuSans-6f" transform="translate(1398.066406 0.01875)"/>
     <use xlink:href="#DejaVuSans-72" transform="translate(1459.248047 0.01875)"/>
     <use xlink:href="#DejaVuSans-20" transform="translate(1500.361328 0.01875)"/>
     <use xlink:href="#DejaVuSans-32" transform="translate(1532.148438 0.01875)"/>
     <use xlink:href="#DejaVuSans-30" transform="translate(1595.771484 0.01875)"/>
     <use xlink:href="#DejaVuSans-30" transform="translate(1659.394531 0.01875)"/>
     <use xlink:href="#DejaVuSans-20" transform="translate(1723.017578 0.01875)"/>
     <use xlink:href="#DejaVuSans-47" transform="translate(1754.804688 0.01875)"/>
     <use xlink:href="#DejaVuSans-65" transform="translate(1832.294922 0.01875)"/>
     <use xlink:href="#DejaVuSans-56" transform="translate(1893.818359 0.01875)"/>
     <use xlink:href="#DejaVuSans-20" transform="translate(1962.226562 0.01875)"/>
     <use xlink:href="#DejaVuSans-Oblique-64" transform="translate(1994.013672 0.01875)"/>
     <use xlink:href="#DejaVuSans-304" transform="translate(2121.765625 21.221875)"/>
     <use xlink:href="#DejaVuSans-Oblique-64" transform="translate(2057.490234 0.01875)"/>
     <path d="M 0 18.815625 
L 0 25.065625 
L 96.796875 25.065625 
L 96.796875 18.815625 
L 0 18.815625 
z
"/>
    </g>
    <!-- hadronisation across PYTHIA versions -->
    <g transform="translate(123.853125 36.575625) scale(0.12 -0.12)">
     <defs>
      <path id="DejaVuSans-68" d="M 3513 2113 
L 3513 0 
L 2938 0 
L 2938 2094 
Q 2938 2591 2744 2837 
Q 2550 3084 2163 3084 
Q 1697 3084 1428 2787 
Q 1159 2491 1159 1978 
L 1159 0 
L 581 0 
L 581 4863 
L 1159 4863 
L 1159 2956 
Q 1366 3272 1645 3428 
Q 1925 3584 2291 3584 
Q 2894 3584 3203 3211 
Q 3513 2838 3513 2113 
z
" transform="scale(0.015625)"/>
      <path id="DejaVuSans-50" d="M 1259 4147 
L 1259 2394 
L 2053 2394 
Q 2494 2394 2734 2622 
Q 2975 2850 2975 3272 
Q 2975 3691 2734 3919 
Q 2494 4147 2053 4147 
L 1259 4147 
z
M 628 4666 
L 2053 4666 
Q 2838 4666 3239 4311 
Q 3641 3956 3641 3272 
Q 3641 2581 3239 2228 
Q 2838 1875 2053 1875 
L 1259 1875 
L 1259 0 
L 628 0 
L 628 4666 
z
" transform="scale(0.015625)"/>
      <path id="DejaVuSans-59" d="M -13 4666 
L 666 4666 
L 1959 2747 
L 3244 4666 
L 3922 4666 
L 2272 2222 
L 2272 0 
L 1638 0 
L 1638 2222 
L -13 4666 
z
" transform="scale(0.015625)"/>
      <path id="DejaVuSans-54" d="M -19 4666 
L 3928 4666 
L 3928 4134 
L 2272 4134 
L 2272 0 
L 1638 0 
L 1638 4134 
L -19 4134 
L -19 4666 
z
" transform="scale(0.015625)"/>
      <path id="DejaVuSans-48" d="M 628 4666 
L 1259 4666 
L 1259 2753 
L 3553 2753 
L 3553 4666 
L 4184 4666 
L 4184 0 
L 3553 0 
L 3553 2222 
L 1259 2222 
L 1259 0 
L 628 0 
L 628 4666 
z
" transform="scale(0.015625)"/>
      <path id="DejaVuSans-49" d="M 628 4666 
L 1259 4666 
L 1259 0 
L 628 0 
L 628 4666 
z
" transform="scale(0.015625)"/>
      <path id="DejaVuSans-41" d="M 2188 4044 
L 1331 1722 
L 3047 1722 
L 2188 4044 
z
M 1831 4666 
L 2547 4666 
L 4325 0 
L 3669 0 
L 3244 1197 
L 1141 1197 
L 716 0 
L 50 0 
L 1831 4666 
z
" transform="scale(0.015625)"/>
      <path id="DejaVuSans-76" d="M 191 3500 
L 800 3500 
L 1894 563 
L 2988 3500 
L 3597 3500 
L 2284 0 
L 1503 0 
L 191 3500 
z
" transform="scale(0.015625)"/>
     </defs>
     <use xlink:href="#DejaVuSans-68"/>
     <use xlink:href="#DejaVuSans-61" x="63.378906"/>
     <use xlink:href="#DejaVuSans-64" x="124.658203"/>
     <use xlink:href="#DejaVuSans-72" x="188.134766"/>
     <use xlink:href="#DejaVuSans-6f" x="226.998047"/>
     <use xlink:href="#DejaVuSans-6e" x="288.179688"/>
     <use xlink:href="#DejaVuSans-69" x="351.558594"/>
     <use xlink:href="#DejaVuSans-73" x="379.341797"/>
     <use xlink:href="#DejaVuSans-61" x="431.441406"/>
     <use xlink:href="#DejaVuSans-74" x="492.720703"/>
     <use xlink:href="#DejaVuSans-69" x="531.929688"/>
     <use xlink:href="#DejaVuSans-6f" x="559.712891"/>
     <use xlink:href="#DejaVuSans-6e" x="620.894531"/>
     <use xlink:href="#DejaVuSans-20" x="684.273438"/>
     <use xlink:href="#DejaVuSans-61" x="716.060547"/>
     <use xlink:href="#DejaVuSans-63" x="777.339844"/>
     <use xlink:href="#DejaVuSans-72" x="832.320312"/>
     <use xlink:href="#DejaVuSans-6f" x="871.183594"/>
     <use xlink:href="#DejaVuSans-73" x="932.365234"/>
     <use xlink:href="#DejaVuSans-73" x="984.464844"/>
     <use xlink:href="#DejaVuSans-20" x="1036.564453"/>
     <use xlink:href="#DejaVuSans-50" x="1068.351562"/>
     <use xlink:href="#DejaVuSans-59" x="1126.404297"/>
     <use xlink:href="#DejaVuSans-54" x="1187.488281"/>
     <use xlink:href="#DejaVuSans-48" x="1248.572266"/>
     <use xlink:href="#DejaVuSans-49" x="1323.767578"/>
     <use xlink:href="#DejaVuSans-41" x="1353.259766"/>
     <use xlink:href="#DejaVuSans-20" x="1421.667969"/>
     <use xlink:href="#DejaVuSans-76" x="1453.455078"/>
     <use xlink:href="#DejaVuSans-65" x="1512.634766"/>
     <use xlink:href="#DejaVuSans-72" x="1574.158203"/>
     <use xlink:href="#DejaVuSans-73" x="1615.271484"/>
     <use xlink:href="#DejaVuSans-69" x="1667.371094"/>
     <use xlink:href="#DejaVuSans-6f" x="1695.154297"/>
     <use xlink:href="#DejaVuSans-6e" x="1756.335938"/>
     <use xlink:href="#DejaVuSans-73" x="1819.714844"/>
    </g>
   </g>
   <g id="legend_1">
    <g id="patch_7">
     <path d="M 201.109062 198.045187 
L 407.72 198.045187 
Q 409.72 198.045187 409.72 196.045187 
L 409.72 153.010812 
Q 409.72 151.010812 407.72 151.010812 
L 201.109062 151.010812 
Q 199.109062 151.010812 199.109062 153.010812 
L 199.109062 196.045187 
Q 199.109062 198.045187 201.109062 198.045187 
z
" style="fill: #ffffff; opacity: 0.8; stroke: #cccccc; stroke-linejoin: miter"/>
    </g>
    <g id="line2d_38">
     <path d="M 203.109062 159.10925 
L 213.109062 159.10925 
L 223.109062 159.10925 
" style="fill: none; stroke: #ff0000; stroke-width: 1.5; stroke-linecap: square"/>
    </g>
    <g id="text_21">
     <!-- PYTHIA 8.316 (2025, Monash tune) -->
     <g transform="translate(231.109062 162.60925) scale(0.1 -0.1)">
      <defs>
       <path id="DejaVuSans-33" d="M 2597 2516 
Q 3050 2419 3304 2112 
Q 3559 1806 3559 1356 
Q 3559 666 3084 287 
Q 2609 -91 1734 -91 
Q 1441 -91 1130 -33 
Q 819 25 488 141 
L 488 750 
Q 750 597 1062 519 
Q 1375 441 1716 441 
Q 2309 441 2620 675 
Q 2931 909 2931 1356 
Q 2931 1769 2642 2001 
Q 2353 2234 1838 2234 
L 1294 2234 
L 1294 2753 
L 1863 2753 
Q 2328 2753 2575 2939 
Q 2822 3125 2822 3475 
Q 2822 3834 2567 4026 
Q 2313 4219 1838 4219 
Q 1578 4219 1281 4162 
Q 984 4106 628 3988 
L 628 4550 
Q 988 4650 1302 4700 
Q 1616 4750 1894 4750 
Q 2613 4750 3031 4423 
Q 3450 4097 3450 3541 
Q 3450 3153 3228 2886 
Q 3006 2619 2597 2516 
z
" transform="scale(0.015625)"/>
       <path id="DejaVuSans-28" d="M 1984 4856 
Q 1566 4138 1362 3434 
Q 1159 2731 1159 2009 
Q 1159 1288 1364 580 
Q 1569 -128 1984 -844 
L 1484 -844 
Q 1016 -109 783 600 
Q 550 1309 550 2009 
Q 550 2706 781 3412 
Q 1013 4119 1484 4856 
L 1984 4856 
z
" transform="scale(0.015625)"/>
       <path id="DejaVuSans-2c" d="M 750 794 
L 1409 794 
L 1409 256 
L 897 -744 
L 494 -744 
L 750 256 
L 750 794 
z
" transform="scale(0.015625)"/>
       <path id="DejaVuSans-4d" d="M 628 4666 
L 1569 4666 
L 2759 1491 
L 3956 4666 
L 4897 4666 
L 4897 0 
L 4281 0 
L 4281 4097 
L 3078 897 
L 2444 897 
L 1241 4097 
L 1241 0 
L 628 0 
L 628 4666 
z
" transform="scale(0.015625)"/>
       <path id="DejaVuSans-29" d="M 513 4856 
L 1013 4856 
Q 1481 4119 1714 3412 
Q 1947 2706 1947 2009 
Q 1947 1309 1714 600 
Q 1481 -109 1013 -844 
L 513 -844 
Q 928 -128 1133 580 
Q 1338 1288 1338 2009 
Q 1338 2731 1133 3434 
Q 928 4138 513 4856 
z
" transform="scale(0.015625)"/>
      </defs>
      <use xlink:href="#DejaVuSans-50"/>
      <use xlink:href="#DejaVuSans-59" x="58.052734"/>
      <use xlink:href="#DejaVuSans-54" x="119.136719"/>
      <use xlink:href="#DejaVuSans-48" x="180.220703"/>
      <use xlink:href="#DejaVuSans-49" x="255.416016"/>
      <use xlink:href="#DejaVuSans-41" x="284.908203"/>
      <use xlink:href="#DejaVuSans-20" x="353.316406"/>
      <use xlink:href="#DejaVuSans-38" x="385.103516"/>
      <use xlink:href="#DejaVuSans-2e" x="448.726562"/>
      <use xlink:href="#DejaVuSans-33" x="480.513672"/>
      <use xlink:href="#DejaVuSans-31" x="544.136719"/>
      <use xlink:href="#DejaVuSans-36" x="607.759766"/>
      <use xlink:href="#DejaVuSans-20" x="671.382812"/>
      <use xlink:href="#DejaVuSans-28" x="703.169922"/>
      <use xlink:href="#DejaVuSans-32" x="742.183594"/>
      <use xlink:href="#DejaVuSans-30" x="805.806641"/>
      <use xlink:href="#DejaVuSans-32" x="869.429688"/>
      <use xlink:href="#DejaVuSans-35" x="933.052734"/>
      <use xlink:href="#DejaVuSans-2c" x="996.675781"/>
      <use xlink:href="#DejaVuSans-20" x="1028.462891"/>
      <use xlink:href="#DejaVuSans-4d" x="1060.25"/>
      <use xlink:href="#DejaVuSans-6f" x="1146.529297"/>
      <use xlink:href="#DejaVuSans-6e" x="1207.710938"/>
      <use xlink:href="#DejaVuSans-61" x="1271.089844"/>
      <use xlink:href="#DejaVuSans-73" x="1332.369141"/>
      <use xlink:href="#DejaVuSans-68" x="1384.46875"/>
      <use xlink:href="#DejaVuSans-20" x="1447.847656"/>
      <use xlink:href="#DejaVuSans-74" x="1479.634766"/>
      <use xlink:href="#DejaVuSans-75" x="1518.84375"/>
      <use xlink:href="#DejaVuSans-6e" x="1582.222656"/>
      <use xlink:href="#DejaVuSans-65" x="1645.601562"/>
      <use xlink:href="#DejaVuSans-29" x="1707.125"/>
     </g>
    </g>
    <g id="line2d_39">
     <path d="M 203.109062 173.787375 
L 213.109062 173.787375 
L 223.109062 173.787375 
" style="fill: none; stroke: #0000ff; stroke-width: 1.5; stroke-linecap: square"/>
    </g>
    <g id="text_22">
     <!-- PYTHIA 8.186 (2014, Hoeth tune) -->
     <g transform="translate(231.109062 177.287375) scale(0.1 -0.1)">
      <use xlink:href="#DejaVuSans-50"/>
      <use xlink:href="#DejaVuSans-59" x="58.052734"/>
      <use xlink:href="#DejaVuSans-54" x="119.136719"/>
      <use xlink:href="#DejaVuSans-48" x="180.220703"/>
      <use xlink:href="#DejaVuSans-49" x="255.416016"/>
      <use xlink:href="#DejaVuSans-41" x="284.908203"/>
      <use xlink:href="#DejaVuSans-20" x="353.316406"/>
      <use xlink:href="#DejaVuSans-38" x="385.103516"/>
      <use xlink:href="#DejaVuSans-2e" x="448.726562"/>
      <use xlink:href="#DejaVuSans-31" x="480.513672"/>
      <use xlink:href="#DejaVuSans-38" x="544.136719"/>
      <use xlink:href="#DejaVuSans-36" x="607.759766"/>
      <use xlink:href="#DejaVuSans-20" x="671.382812"/>
      <use xlink:href="#DejaVuSans-28" x="703.169922"/>
      <use xlink:href="#DejaVuSans-32" x="742.183594"/>
      <use xlink:href="#DejaVuSans-30" x="805.806641"/>
      <use xlink:href="#DejaVuSans-31" x="869.429688"/>
      <use xlink:href="#DejaVuSans-34" x="933.052734"/>
      <use xlink:href="#DejaVuSans-2c" x="996.675781"/>
      <use xlink:href="#DejaVuSans-20" x="1028.462891"/>
      <use xlink:href="#DejaVuSans-48" x="1060.25"/>
      <use xlink:href="#DejaVuSans-6f" x="1135.445312"/>
      <use xlink:href="#DejaVuSans-65" x="1196.626953"/>
      <use xlink:href="#DejaVuSans-74" x="1258.150391"/>
      <use xlink:href="#DejaVuSans-68" x="1297.359375"/>
      <use xlink:href="#DejaVuSans-20" x="1360.738281"/>
      <use xlink:href="#DejaVuSans-74" x="1392.525391"/>
      <use xlink:href="#DejaVuSans-75" x="1431.734375"/>
      <use xlink:href="#DejaVuSans-6e" x="1495.113281"/>
      <use xlink:href="#DejaVuSans-65" x="1558.492188"/>
      <use xlink:href="#DejaVuSans-29" x="1620.015625"/>
     </g>
    </g>
    <g id="line2d_40">
     <path d="M 203.109062 188.4655 
L 213.109062 188.4655 
L 223.109062 188.4655 
" style="fill: none; stroke: #008000; stroke-width: 1.5; stroke-linecap: square"/>
    </g>
    <g id="text_23">
     <!-- PYTHIA 6.428 (2006, JETSET tune) -->
     <g transform="translate(231.109062 191.9655) scale(0.1 -0.1)">
      <defs>
       <path id="DejaVuSans-4a" d="M 628 4666 
L 1259 4666 
L 1259 325 
Q 1259 -519 939 -900 
Q 619 -1281 -91 -1281 
L -331 -1281 
L -331 -750 
L -134 -750 
Q 284 -750 456 -515 
Q 628 -281 628 325 
L 628 4666 
z
" transform="scale(0.015625)"/>
       <path id="DejaVuSans-45" d="M 628 4666 
L 3578 4666 
L 3578 4134 
L 1259 4134 
L 1259 2753 
L 3481 2753 
L 3481 2222 
L 1259 2222 
L 1259 531 
L 3634 531 
L 3634 0 
L 628 0 
L 628 4666 
z
" transform="scale(0.015625)"/>
       <path id="DejaVuSans-53" d="M 3425 4513 
L 3425 3897 
Q 3066 4069 2747 4153 
Q 2428 4238 2131 4238 
Q 1616 4238 1336 4038 
Q 1056 3838 1056 3469 
Q 1056 3159 1242 3001 
Q 1428 2844 1947 2747 
L 2328 2669 
Q 3034 2534 3370 2195 
Q 3706 1856 3706 1288 
Q 3706 609 3251 259 
Q 2797 -91 1919 -91 
Q 1588 -91 1214 -16 
Q 841 59 441 206 
L 441 856 
Q 825 641 1194 531 
Q 1563 422 1919 422 
Q 2459 422 2753 634 
Q 3047 847 3047 1241 
Q 3047 1584 2836 1778 
Q 2625 1972 2144 2069 
L 1759 2144 
Q 1053 2284 737 2584 
Q 422 2884 422 3419 
Q 422 4038 858 4394 
Q 1294 4750 2059 4750 
Q 2388 4750 2728 4690 
Q 3069 4631 3425 4513 
z
" transform="scale(0.015625)"/>
      </defs>
      <use xlink:href="#DejaVuSans-50"/>
      <use xlink:href="#DejaVuSans-59" x="58.052734"/>
      <use xlink:href="#DejaVuSans-54" x="119.136719"/>
      <use xlink:href="#DejaVuSans-48" x="180.220703"/>
      <use xlink:href="#DejaVuSans-49" x="255.416016"/>
      <use xlink:href="#DejaVuSans-41" x="284.908203"/>
      <use xlink:href="#DejaVuSans-20" x="353.316406"/>
      <use xlink:href="#DejaVuSans-36" x="385.103516"/>
      <use xlink:href="#DejaVuSans-2e" x="448.726562"/>
      <use xlink:href="#DejaVuSans-34" x="480.513672"/>
      <use xlink:href="#DejaVuSans-32" x="544.136719"/>
      <use xlink:href="#DejaVuSans-38" x="607.759766"/>
      <use xlink:href="#DejaVuSans-20" x="671.382812"/>
      <use xlink:href="#DejaVuSans-28" x="703.169922"/>
      <use xlink:href="#DejaVuSans-32" x="742.183594"/>
      <use xlink:href="#DejaVuSans-30" x="805.806641"/>
      <use xlink:href="#DejaVuSans-30" x="869.429688"/>
      <use xlink:href="#DejaVuSans-36" x="933.052734"/>
      <use xlink:href="#DejaVuSans-2c" x="996.675781"/>
      <use xlink:href="#DejaVuSans-20" x="1028.462891"/>
      <use xlink:href="#DejaVuSans-4a" x="1060.25"/>
      <use xlink:href="#DejaVuSans-45" x="1089.742188"/>
      <use xlink:href="#DejaVuSans-54" x="1152.925781"/>
      <use xlink:href="#DejaVuSans-53" x="1214.009766"/>
      <use xlink:href="#DejaVuSans-45" x="1277.486328"/>
      <use xlink:href="#DejaVuSans-54" x="1340.669922"/>
      <use xlink:href="#DejaVuSans-20" x="1401.753906"/>
      <use xlink:href="#DejaVuSans-74" x="1433.541016"/>
      <use xlink:href="#DejaVuSans-75" x="1472.75"/>
      <use xlink:href="#DejaVuSans-6e" x="1536.128906"/>
      <use xlink:href="#DejaVuSans-65" x="1599.507812"/>
      <use xlink:href="#DejaVuSans-29" x="1661.03125"/>
     </g>
    </g>
   </g>
  </g>
 </g>
 <defs>
  <clipPath id="p7929aa8efd">
   <rect x="57.6" y="41.472" width="357.12" height="266.112"/>
  </clipPath>
 </defs>
</svg>
